M48
;Layer_Color=9474304
;FILE_FORMAT=4:4
METRIC,TZ
;TYPE=PLATED
T01F00S00C0.1500
T02F00S00C0.2000
T03F00S00C0.2540
T04F00S00C0.3000
T07F00S00C0.8890
T08F00S00C0.9000
T09F00S00C1.0000
T11F00S00C1.0668
T12F00S00C1.2000
T13F00S00C1.6000
T14F00S00C1.8542
T15F00S00C1.8542
T16F00S00C2.0500
T17F00S00C2.3000
T18F00S00C3.2000
T19F00S00C3.5000
%
T01
X869500Y469750
X883250Y467500
X883000Y474250
X873500Y491750
X856500Y488250
X848500Y515250
X839500Y516000
X836000Y520500
X829000Y520500
X817000Y529000
X831750Y543250
X838250Y543250
X844750Y549750
X844750Y556250
X844250Y566000
X851250Y569250
X851250Y575750
X851250Y582250
X857750Y582250
X857750Y575750
X864250Y575750
X864250Y569250
X864250Y562750
X857750Y562750
X857750Y556250
X864250Y556250
X870750Y556250
X870750Y549750
X880500Y549250
X887000Y551000
X887000Y555750
X887000Y568750
X877250Y569250
X877250Y562750
X877250Y575750
X870750Y575750
X877250Y582250
X877250Y588750
X870750Y588750
X863750Y592000
X850750Y592000
X846000Y592000
X844250Y585500
X844750Y575750
X831250Y566000
X831250Y585500
X831250Y605000
X844250Y605000
X846000Y618000
X850750Y618000
X851250Y627750
X851250Y634250
X844750Y634250
X844250Y624500
X831250Y624500
X831250Y644000
X844250Y644000
X844750Y653750
X844750Y660250
X851250Y660250
X861000Y660750
X864250Y653750
X857750Y653750
X857750Y647250
X857750Y640750
X864250Y640750
X864250Y647250
X870750Y640750
X877250Y647250
X877250Y653750
X870750Y653750
X870750Y660250
X880500Y660750
X887000Y659000
X887000Y654250
X887000Y641250
X883750Y634250
X877250Y634250
X877250Y627750
X870750Y627750
X870750Y621250
X863750Y618000
X864250Y627750
X857750Y627750
X857750Y634250
X883750Y621250
X890250Y621250
X890250Y614750
X883750Y614750
X883750Y608250
X883750Y601750
X891500Y602750
X896750Y601750
X903250Y601750
X909750Y601750
X916250Y601750
X916250Y595250
X909750Y595250
X909750Y588750
X909750Y582250
X916250Y582250
X916250Y575750
X922750Y575750
X929250Y575750
X929250Y582250
X935750Y582250
X942250Y582250
X942250Y575750
X942250Y569250
X935750Y569250
X929250Y569250
X922750Y569250
X922750Y562750
X929250Y562750
X929250Y556250
X929250Y549750
X922750Y556250
X913000Y555750
X913000Y568750
X900000Y575250
X903250Y588750
X896750Y588750
X896750Y595250
X903250Y595250
X890250Y595250
X890250Y588750
X883750Y588750
X883750Y582250
X890250Y608250
X896750Y614750
X903250Y614750
X896750Y621250
X896750Y627750
X903250Y627750
X909750Y627750
X909750Y621250
X916250Y621250
X916250Y614750
X916250Y608250
X929750Y605000
X943500Y605000
X955750Y605000
X968750Y605000
X969750Y585500
X956750Y585500
X950750Y592000
X937750Y592000
X948750Y575750
X948750Y569250
X948750Y562750
X948750Y556250
X948750Y549750
X955250Y549750
X961750Y543250
X968250Y543250
X968750Y566000
X955750Y566000
X942250Y562750
X942250Y556250
X935750Y556250
X919500Y546500
X900000Y545000
X900000Y535750
X880500Y536250
X880250Y528000
X861000Y528500
X861000Y535000
X861000Y548000
X851250Y549750
X863500Y516250
X890250Y501500
X870250Y605000
X900000Y636250
X909750Y640750
X916250Y640750
X916250Y634250
X922750Y634250
X922750Y627750
X916250Y627750
X929250Y627750
X935750Y627750
X935750Y634250
X942250Y634250
X942250Y627750
X948750Y634250
X948750Y640750
X948750Y647250
X948750Y653750
X942250Y653750
X935750Y653750
X929250Y653750
X922750Y653750
X919500Y660750
X909750Y653750
X900000Y660750
X935750Y660250
X939000Y664250
X948681Y660250
X955000Y653500
X961500Y653500
X961500Y660000
X968750Y664750
X975750Y664000
X973000Y644000
X960000Y644000
X955250Y640750
X958500Y624500
X954000Y618000
X949250Y618000
X936250Y618000
X929250Y621250
X929250Y640750
X929250Y647250
X935750Y647250
X942250Y647250
X971500Y624500
X994000Y594250
X1002500Y594250
X1010500Y594000
X1019750Y594000
X961750Y666750
X961750Y673250
X961750Y678250
X939000Y677250
X919500Y673750
X913000Y673750
X900000Y673750
X880500Y673750
X861000Y673750
X835000Y673750
X909500Y698500
X977500Y705000
X977500Y725000
X1012000Y721000
X1012000Y729000
X1012000Y737000
X1012000Y745000
X1022000Y741000
X1022000Y749000
X1029750Y749250
X1030000Y757000
X1022000Y757000
X1030000Y765000
X1030000Y773000
X1022000Y773000
X1022000Y789000
X1012000Y793000
X1012000Y785000
X1012000Y801000
X1012000Y809000
X1012000Y817000
X1012000Y825000
X1012000Y833000
X1012000Y841000
X1022000Y829000
X1022000Y821000
X1022000Y805000
X1038000Y773000
X1038000Y765000
X1062000Y765000
X1062000Y773000
X1070000Y773000
X1070000Y765000
X1070000Y757000
X1062000Y757000
X1070000Y749000
X1078000Y749000
X1078000Y757000
X1088000Y753000
X1088000Y745000
X1088000Y737000
X1089000Y729000
X1085500Y725000
X1089000Y721000
X1088000Y715250
X1088000Y709250
X1078000Y733000
X1078000Y741000
X1070000Y741000
X1078000Y773000
X1088000Y765000
X1086250Y785000
X1086250Y793000
X1086250Y801000
X1086250Y809000
X1078000Y813000
X1078000Y821000
X1086250Y825000
X1086250Y833000
X1082000Y845250
X1074000Y845250
X1070000Y805000
X1062000Y797000
X1070000Y789000
X1038000Y837000
X1030000Y741000
X1030000Y733000
X1022000Y733000
X1022000Y725000
X1030000Y725000
X1030000Y717000
X1108000Y765000
T02
X462000Y106500
X455750Y118500
X459250Y123500
X462000Y156500
X456750Y168250
X456250Y183500
X431750Y185000
X431500Y178500
X431250Y158250
X427000Y153250
X431500Y148250
X492250Y139500
X530500Y140900
X530500Y125900
X530500Y110900
X530500Y95900
X530500Y80900
X530250Y70000
X548219Y98638
X545801Y110819
X556250Y156250
X556500Y173500
X578750Y173500
X577750Y220750
X578500Y226250
X576500Y235750
X576500Y248750
X553500Y247250
X532250Y245500
X530500Y250900
X530500Y265900
X532250Y231000
X535200Y220950
X531350Y215900
X555750Y212500
X559250Y203250
X530500Y185900
X530500Y170900
X530500Y155900
X483250Y202750
X476500Y221750
X466250Y213500
X457250Y240250
X457250Y247500
X457250Y255000
X457250Y261750
X493250Y255750
X489250Y240250
X433100Y223400
X601250Y210000
X637500Y211250
X635250Y229250
X638000Y243500
X654750Y262500
X658750Y222750
X611500Y259250
X631750Y123250
X571250Y61000
X735500Y78750
X761250Y78750
X780750Y107500
X780750Y146250
X771750Y151000
X761500Y137000
X708250Y123250
X712000Y107250
X797250Y66000
X828750Y57500
X869750Y65750
X891500Y81250
X892250Y107750
X898250Y123250
X914750Y107250
X920000Y70750
X931250Y81250
X962500Y88250
X973000Y81750
X1005250Y70000
X1032500Y71750
X1034250Y85000
X1089750Y81750
X1092000Y106500
X1082000Y106500
X1078250Y123250
X1088000Y122250
X1059000Y137000
X1001750Y123250
X971500Y134250
X927500Y146250
X914750Y167500
X906000Y237250
X896750Y241250
X910500Y247000
X856250Y257500
X829250Y199250
X818750Y184500
X802000Y179750
X799250Y191500
X845750Y123250
X863250Y107500
X1034750Y223000
X1047500Y230000
X1073250Y217750
X1082250Y264500
X1005000Y264000
X1097000Y141500
X1102250Y107000
X1109000Y66000
X1122250Y72500
X1146000Y130500
X1179750Y128000
X1191750Y123250
X1195250Y107250
X1268250Y123250
X1291750Y146000
X1308750Y174000
X1317000Y175000
X1323250Y161500
X1347000Y166000
X1346750Y172750
X1356578Y163234
X1364000Y155750
X1365250Y148500
X1387000Y133500
X1382500Y123500
X1384000Y90000
X1386000Y31250
X1437500Y31250
X1462500Y31250
X1453250Y151250
X1343750Y132000
X1346500Y120250
X1334500Y139250
X1291750Y91250
X1279000Y83750
X1239750Y185500
X1218250Y215500
X1192500Y201250
X1192500Y236000
X1258000Y231250
X1302250Y220750
X1307500Y262000
X1373000Y239500
X1395500Y229500
X1154250Y197500
X1575250Y145250
X1559500Y121500
X1585750Y115000
X1595750Y26750
X1641250Y419750
X1628750Y474750
X1628750Y480500
X1628750Y486500
X1628750Y508250
X1618250Y513250
X1622500Y530500
X1621750Y548250
X1622750Y555000
X1623250Y561000
X1616250Y560750
X1587250Y513250
X1602750Y497500
X1587000Y468000
X1530750Y479500
X1521000Y485000
X1503000Y485500
X1509500Y501000
X1511500Y528500
X1515250Y535250
X1520250Y434250
X1521250Y409250
X1506750Y413500
X1566250Y634000
X1566250Y659500
X1430750Y655250
X1419750Y649500
X1428750Y636750
X1428750Y623750
X1419250Y604500
X1424500Y598000
X1413750Y598000
X1419000Y592000
X1401000Y600250
X1387000Y592000
X1396000Y573250
X1408000Y572250
X1420750Y567000
X1380250Y565750
X1370070Y566030
X1364658Y548935
X1358000Y584750
X1352500Y584750
X1347669Y594836
X1347669Y604836
X1353750Y605500
X1359500Y604500
X1359500Y599000
X1372750Y610250
X1373000Y629750
X1360000Y625750
X1346750Y634250
X1340250Y634250
X1344500Y639500
X1349000Y643750
X1354750Y643500
X1350730Y661960
X1362250Y661960
X1373770Y661960
X1385290Y661960
X1384750Y643500
X1397250Y630250
X1403750Y657500
X1339210Y661960
X1320750Y662500
X1325000Y650750
X1329750Y631500
X1320750Y630750
X1311000Y634000
X1287000Y636750
X1284177Y630250
X1273500Y623500
X1278250Y618000
X1289500Y611750
X1301500Y605000
X1301250Y594750
X1319250Y596500
X1329250Y596500
X1325250Y578250
X1285500Y587750
X1287000Y646750
X1278500Y656750
X1268000Y651750
X1267500Y661750
X1242500Y662000
X1220750Y650500
X1234000Y636750
X1252000Y630500
X1183250Y573000
X1182500Y567250
X1183000Y561000
X1182000Y551500
X1171000Y550500
X1170000Y556500
X1173500Y531000
X1178250Y535750
X1183250Y532250
X1189750Y531750
X1182500Y497500
X1163750Y493250
X1155750Y493250
X1147750Y493250
X1139750Y493250
X1131750Y493250
X1123750Y493250
X1115750Y493250
X1107750Y493250
X1099750Y493250
X1139750Y506750
X1155750Y511500
X1163750Y508750
X1220250Y503500
X1263750Y465500
X1267000Y460000
X1275500Y460000
X1281000Y455750
X1287500Y446500
X1296750Y444750
X1315750Y439750
X1328500Y444750
X1332750Y467250
X1348250Y496750
X1332750Y512500
X1374250Y507000
X1374250Y485250
X1384250Y476750
X1403000Y479000
X1396250Y458750
X1390250Y453250
X1396500Y375750
X1385750Y340500
X1362000Y343500
X1339500Y357250
X1339000Y374000
X1340500Y397500
X1306250Y390000
X1268250Y379000
X1268250Y404250
X1267500Y448250
X1258500Y448000
X1248750Y443250
X1244000Y438750
X1277250Y479000
X1268250Y353500
X1273000Y308000
X1239750Y302500
X1228803Y307938
X1181000Y316000
X1187500Y328000
X1190250Y338750
X1164250Y309000
X1115750Y311750
X1101000Y305250
X1105750Y300250
X1096513Y290181
X1129250Y284500
X1124500Y272750
X1104750Y343250
X1101000Y413000
X1095750Y418250
X1111500Y413000
X1110000Y583250
X1104750Y583250
X1099250Y583250
X1461250Y512500
X1476750Y497000
X1461000Y467500
X1455500Y415000
X1353126Y285329
X1334000Y287500
X1090000Y310250
X1075000Y322500
X1075250Y331500
X1066250Y331500
X1064250Y340000
X1056500Y323000
X1061500Y309500
X1061000Y290000
X1052000Y295000
X1042250Y291000
X1028750Y333500
X981000Y331500
X946750Y336000
X930000Y334500
X924250Y337250
X917000Y337500
X910000Y337500
X872000Y330500
X876000Y308500
X882250Y308500
X814500Y278500
X801500Y272750
X790250Y272750
X780500Y272500
X721375Y284375
X752000Y327000
X733250Y399750
X728000Y445750
X801500Y437500
X814750Y442000
X811250Y446500
X809750Y454000
X818500Y460750
X820564Y437429
X834000Y437250
X843000Y431500
X845250Y425000
X845500Y418500
X856250Y420250
X863000Y420000
X867750Y423000
X867250Y428500
X860750Y437250
X865000Y442250
X897500Y447750
X914000Y454500
X918000Y468500
X920250Y477750
X935750Y477250
X939250Y471750
X942000Y454500
X946500Y446250
X963750Y436250
X956750Y421250
X971500Y421250
X992750Y421250
X1000750Y421000
X1011659Y418340
X1006500Y413000
X1017000Y413000
X1022250Y418250
X1027500Y413000
X1032750Y418250
X1038000Y413000
X1043250Y418250
X1053750Y418250
X1048500Y413000
X1059000Y413000
X1064250Y418250
X1069500Y413000
X1074750Y418250
X1080000Y413000
X1085250Y418250
X1090500Y413000
X1091750Y493250
X1083750Y493250
X1075750Y493250
X1067750Y520500
X1060750Y519750
X1041000Y494250
X1042750Y488000
X1047750Y481500
X1039250Y473000
X1016123Y473627
X1007000Y471750
X1009750Y483750
X1022250Y484750
X1014750Y455000
X1009750Y440500
X992500Y453000
X972000Y459250
X980750Y471750
X990000Y495000
X956250Y506750
X925000Y495000
X908000Y432750
X904500Y420500
X891000Y420500
X814250Y407500
X805250Y506750
X780750Y512000
X770500Y503750
X757000Y504250
X770125Y530375
X769500Y538500
X752470Y586551
X745500Y586750
X737500Y586500
X730333Y586600
X723056Y586655
X716338Y586819
X698750Y577750
X708000Y609750
X759000Y612750
X776500Y612250
X780250Y630750
X783250Y639500
X792750Y638500
X795750Y646000
X791000Y648750
X785000Y653500
X770250Y655250
X740000Y650250
X796250Y625250
X802250Y624000
X822750Y624250
X824000Y646250
X804750Y580250
X802250Y571750
X1004500Y583250
X1026500Y583250
X1032250Y583250
X1038000Y583250
X1043500Y583250
X1049250Y583250
X1054750Y583250
X1060250Y583250
X1065750Y583250
X1072250Y583250
X1077250Y583250
X1082750Y583250
X1088250Y583250
X1093750Y583250
X985000Y432250
X685250Y444500
X673750Y478000
X662500Y478000
X651500Y478000
X595171Y484268
X582750Y484000
X568750Y487750
X561500Y481500
X570750Y475500
X570750Y465500
X550250Y469000
X544250Y469000
X538250Y469000
X539000Y453250
X545500Y453250
X552000Y453500
X587250Y439000
X597250Y433750
X586750Y422250
X610500Y418500
X618250Y428750
X650250Y414000
X655500Y393750
X666750Y331500
X530250Y277000
X477750Y298500
X472500Y360000
X399132Y347264
X340750Y399500
X305000Y453750
X305250Y461250
X305250Y471250
X305250Y481250
X305250Y491250
X305250Y501250
X305250Y511250
X305250Y521250
X306500Y543750
X305000Y578750
X305000Y588750
X305000Y597000
X305250Y613250
X305500Y640250
X300500Y646500
X305000Y658750
X333000Y648750
X333000Y628750
X335500Y621500
X352500Y647250
X361500Y647250
X371000Y647000
X382000Y615000
X373750Y593000
X373750Y587250
X375000Y580000
X381500Y580000
X378750Y572000
X386000Y572000
X368250Y580000
X362000Y580000
X334750Y562500
X333601Y556601
X333601Y531722
X386750Y531250
X388750Y526250
X388750Y536250
X387000Y541250
X415000Y556250
X421750Y561250
X415000Y576250
X415000Y586250
X415000Y601250
X415000Y616250
X415000Y631250
X426250Y628500
X415000Y646250
X415000Y661250
X448250Y604500
X463750Y598000
X463750Y587750
X486000Y591250
X484000Y564250
X484000Y557250
X491500Y557250
X511750Y553250
X510250Y547250
X515000Y543250
X519500Y547250
X528250Y552500
X528250Y558250
X531000Y566000
X516750Y563750
X512000Y529750
X512000Y509750
X512000Y499750
X515500Y493750
X515500Y487250
X499750Y492250
X484250Y492500
X447500Y483000
X439000Y483000
X427250Y494750
X427250Y527250
X434000Y531000
X443500Y531250
X440250Y539000
X447000Y545500
X440500Y552250
X442750Y565500
X503750Y602750
X524750Y603000
X579000Y600250
X575750Y586500
X588250Y592000
X579250Y568250
X555750Y563250
X552750Y550500
X591250Y535500
X600250Y513000
X578500Y504750
X618750Y543000
X693500Y551250
X693500Y564750
X664750Y611750
X669500Y637500
X664000Y650250
X663500Y657250
X668750Y662500
X546000Y651000
X481250Y446500
X449000Y427000
X441750Y427000
X430000Y430750
X387500Y471250
X283000Y460500
X273500Y463250
X276148Y446997
X289750Y423750
X286750Y506250
X278995Y520552
X263000Y515250
X237250Y526500
X235500Y499500
X294250Y529500
X294250Y541750
X298000Y554250
X298000Y571250
X298000Y584750
X294250Y605250
X290250Y610750
X271750Y595500
X279750Y665500
X48000Y515250
X79750Y397250
X114500Y397500
X98750Y370000
X133500Y370000
X88000Y291750
X199750Y670250
X271750Y670500
X274783Y688164
X294250Y695500
X291750Y675500
X294250Y720500
X294250Y745500
X263000Y766250
X48000Y788250
X36500Y873250
X66000Y892500
X66000Y914000
X70250Y947500
X57000Y944750
X49500Y990750
X152750Y990000
X150750Y954750
X166250Y948000
X151000Y925500
X305000Y833750
X305000Y808750
X305250Y801250
X305250Y791250
X305250Y781250
X305250Y771250
X305250Y761250
X305250Y751250
X305250Y741250
X305250Y731250
X305250Y721250
X305250Y711250
X305250Y701250
X305000Y688750
X305000Y678750
X305000Y668750
X355500Y685750
X355500Y695750
X387750Y710750
X415000Y706250
X415000Y696250
X415000Y686250
X415000Y676250
X443000Y671750
X446750Y691250
X446750Y701250
X446750Y711250
X446750Y721250
X446750Y731250
X417000Y726250
X417000Y736250
X413750Y741250
X417000Y746250
X413750Y751250
X417000Y756250
X417000Y766250
X413750Y771250
X417000Y776250
X413750Y781250
X417000Y786250
X413750Y791250
X417000Y796250
X415000Y806250
X415000Y831250
X415000Y841250
X415000Y846250
X415000Y856250
X415000Y866250
X415000Y876250
X415000Y886250
X415000Y896250
X415000Y906250
X415000Y916250
X415000Y926250
X415000Y936250
X415000Y946250
X415000Y956250
X415000Y966250
X415000Y976250
X448500Y970000
X446500Y1006000
X486750Y901250
X494500Y901250
X501750Y897000
X514500Y898750
X565250Y893500
X565250Y883500
X661250Y895000
X656000Y900750
X646000Y752500
X646618Y743555
X624000Y742000
X620809Y752457
X620500Y772000
X602000Y746750
X570750Y736750
X573250Y703500
X608000Y698500
X618250Y719750
X656750Y704250
X660500Y698750
X660500Y688500
X660250Y678500
X666761Y668253
X692250Y704750
X680500Y737000
X687000Y772500
X522000Y770750
X513000Y788000
X507000Y751500
X517500Y715500
X415000Y716250
X396250Y821750
X663500Y1058000
X727750Y1013000
X735750Y970750
X719500Y969500
X756000Y965250
X756000Y954750
X760098Y902902
X728000Y899750
X728000Y877000
X715000Y875500
X704530Y890542
X750598Y874652
X714750Y829500
X720750Y803500
X728000Y794000
X736000Y793750
X732000Y784000
X724000Y784000
X716000Y784000
X740225Y776533
X740250Y768000
X756000Y768000
X748250Y760000
X764000Y752000
X769250Y755000
X773000Y760250
X779762Y735837
X764000Y728000
X756250Y727750
X760833Y722208
X742442Y723799
X736750Y723750
X731750Y720500
X738500Y713250
X732000Y736250
X732319Y743986
X740000Y744000
X724000Y760000
X715250Y752000
X707000Y747750
X702750Y736250
X714000Y732000
X697000Y724000
X711000Y684750
X728500Y690000
X739750Y679000
X769503Y703999
X772156Y711024
X835500Y691250
X835250Y685000
X859500Y686500
X897750Y711250
X890750Y718500
X892477Y724060
X892500Y732000
X896757Y738319
X879250Y754250
X835550Y753877
X776000Y790500
X764000Y792000
X756000Y792000
X927333Y891833
X931046Y895546
X933243Y906550
X976255Y938291
X1001500Y938250
X1014505Y938291
X1021000Y1013000
X1038000Y1013000
X1041000Y1040250
X1035000Y1042000
X1029000Y1042000
X1022250Y1040750
X1021250Y1061750
X1026750Y1061750
X1058500Y1060500
X1058500Y1055000
X1058500Y1049500
X1062500Y1040500
X1066750Y1037000
X1075875Y1033000
X1081125Y1033000
X1090250Y1037250
X1091750Y1050500
X985000Y1046750
X976250Y1050750
X974000Y1060500
X969500Y1013000
X952500Y1013000
X850500Y1031250
X853500Y1036250
X858500Y1046750
X827750Y1040000
X829750Y1035000
X815500Y1021000
X815500Y1013750
X824750Y1005250
X830000Y1005250
X1094750Y1040500
X1095596Y895847
X1095596Y890597
X1117250Y892250
X1117250Y897500
X1112500Y827000
X1112500Y818000
X1112500Y809250
X1112500Y800750
X1112500Y792500
X1112500Y784750
X1112500Y776750
X1226382Y763493
X1232049Y763493
X1237715Y763493
X1243382Y763493
X1243382Y757743
X1243465Y752243
X1237799Y752243
X1237715Y757743
X1232049Y757743
X1232132Y752243
X1226465Y752243
X1226382Y757743
X1250382Y776493
X1256049Y776493
X1261715Y776493
X1267382Y776493
X1267382Y782243
X1261715Y782243
X1256049Y782243
X1250382Y782243
X1280250Y783500
X1280250Y789000
X1279965Y799743
X1279965Y805243
X1261715Y808993
X1256215Y808993
X1237465Y808993
X1231965Y808993
X1222250Y803000
X1299215Y793243
X1311716Y808995
X1320465Y807993
X1319715Y801243
X1336465Y810993
X1342965Y811493
X1342250Y823500
X1347750Y825750
X1354000Y825750
X1364965Y816493
X1364965Y806493
X1371715Y800993
X1380215Y799743
X1386250Y807750
X1391750Y807750
X1389465Y791493
X1389465Y781493
X1388215Y769993
X1388215Y764493
X1408465Y770743
X1414132Y770743
X1419799Y770743
X1425465Y770743
X1425465Y776493
X1419799Y776493
X1414132Y776493
X1408465Y776493
X1408465Y782243
X1414132Y782243
X1419799Y782243
X1425465Y782243
X1432965Y782493
X1438632Y782493
X1444299Y782493
X1449965Y782493
X1449965Y776743
X1444299Y776743
X1438632Y776743
X1432965Y776743
X1432965Y770993
X1438632Y770993
X1444299Y770993
X1449965Y770993
X1464500Y768750
X1459750Y778500
X1468500Y787500
X1474000Y792000
X1484000Y791500
X1458000Y795250
X1451250Y804500
X1444215Y808993
X1438715Y808993
X1447500Y814000
X1419715Y808993
X1414215Y808993
X1384750Y825000
X1379966Y837745
X1373966Y835994
X1367966Y838244
X1371215Y857493
X1371215Y861993
X1375715Y861993
X1375715Y857493
X1371965Y874993
X1379965Y874993
X1395716Y874995
X1403965Y874993
X1411965Y874993
X1452000Y879000
X1466000Y878000
X1469500Y897250
X1479750Y911000
X1451250Y945000
X1451250Y950250
X1435500Y943000
X1435500Y937750
X1419750Y947750
X1396000Y912000
X1389500Y913000
X1379216Y912495
X1373966Y913995
X1368466Y912745
X1371215Y892493
X1371215Y887993
X1375715Y887993
X1375715Y892493
X1340465Y906493
X1340465Y910993
X1333750Y931250
X1353215Y925243
X1307966Y911994
X1301966Y913995
X1296216Y911994
X1291000Y925250
X1279000Y925500
X1253750Y924750
X1217750Y921500
X1213750Y930750
X1221250Y935000
X1187250Y919000
X1173750Y942250
X1271500Y947750
X1271965Y874993
X1264250Y875000
X1256715Y874993
X1279965Y874993
X1287965Y874993
X1295965Y874993
X1303965Y874993
X1304715Y861993
X1300215Y861993
X1300215Y857493
X1304715Y857493
X1307215Y836993
X1301966Y836245
X1296215Y836993
X1329966Y841745
X1335465Y843493
X1335465Y838993
X1339715Y783243
X1367965Y786493
X1373000Y735500
X1369750Y726500
X1373770Y708040
X1362250Y708040
X1350730Y708040
X1350730Y696520
X1350730Y685000
X1362250Y685000
X1362250Y673480
X1350730Y673480
X1339210Y673480
X1339210Y685000
X1339210Y696520
X1339210Y708040
X1341000Y726500
X1334750Y726500
X1323250Y725000
X1310750Y724250
X1303250Y730750
X1302500Y744750
X1290500Y719750
X1292250Y702750
X1292250Y683000
X1282750Y678750
X1287000Y666750
X1278250Y667000
X1268000Y671750
X1308750Y666750
X1320750Y682500
X1320750Y697500
X1321000Y703500
X1362250Y696520
X1373770Y696520
X1385290Y696520
X1385290Y685000
X1374250Y685000
X1373770Y673480
X1385290Y673480
X1403750Y672500
X1411750Y669500
X1403750Y697500
X1403750Y712500
X1425000Y712750
X1425000Y722750
X1430125Y731125
X1417197Y733197
X1394750Y729750
X1385290Y708040
X1479250Y736750
X1467750Y980500
X1467750Y985750
X1485500Y1026000
X1485500Y1031250
X1483250Y1050500
X1485000Y1059250
X1354250Y1051750
X1346000Y1051750
X1337250Y1051750
X1329250Y1051750
X1321750Y1051750
X1294250Y1051750
X1286000Y1051750
X1277250Y1051750
X1269250Y1051750
X1261750Y1051750
X1300215Y892493
X1300215Y887993
X1304715Y887993
X1304715Y892493
X1237500Y705500
X1223500Y701000
X1218750Y695750
X1212000Y677500
X1186250Y690250
X1493000Y792500
X1499500Y802250
X1504500Y797750
X1494250Y823000
X1518750Y838000
X1548750Y843000
X1554750Y846250
X1548750Y833000
X1548750Y823000
X1583750Y826250
X1583750Y843750
X1583750Y853750
X1583000Y883750
X1561250Y886250
X1555750Y882000
X1563000Y873750
X1548750Y873000
X1523750Y869000
X1523500Y883000
X1518750Y888000
X1524250Y903000
X1522000Y908000
X1522000Y913250
X1518750Y918000
X1521750Y923000
X1521750Y928250
X1518750Y948000
X1521750Y953250
X1521750Y958500
X1521283Y968125
X1521283Y973375
X1524250Y988000
X1494250Y988000
X1494250Y978000
X1501000Y1030250
X1506250Y1030250
X1491500Y1050750
X1528750Y1051250
X1534250Y1051250
X1547250Y1044000
X1558750Y1042750
X1558500Y1036000
X1558500Y1029000
X1563750Y1033000
X1563750Y1046250
X1558750Y1050000
X1588500Y1049500
X1583750Y1016250
X1575750Y994000
X1570500Y994000
X1558000Y1005000
X1558000Y1010250
X1548750Y963000
X1548750Y933000
X1583750Y943750
X1610000Y946750
X1610000Y952000
X1610530Y962691
X1610530Y967941
X1608250Y973750
X1607500Y982000
X1612750Y982000
X1608250Y1003750
X1636250Y1016250
X1636250Y988750
X1636250Y958750
X1636250Y928750
X1636250Y918750
X1636250Y908750
X1636250Y878750
X1611000Y888750
X1608250Y893750
X1610750Y932500
X1610750Y937750
X1612500Y848750
X1613000Y838750
X1636250Y826250
X1600250Y773250
X1567750Y777000
X1532250Y777000
X1493500Y878000
X1492000Y913125
X1492000Y918375
X1498750Y1091750
X1517500Y1147000
X1460500Y1126250
X1451750Y1126250
X1424500Y1119500
X1474000Y1105000
X1481750Y1096750
X1488250Y1081250
X1388250Y1085250
X1387750Y1185000
X1358500Y1177750
X1346000Y1184250
X1336250Y1163750
X1336250Y1157250
X1336250Y1151000
X1331250Y1154000
X1331250Y1160500
X1326250Y1157250
X1326250Y1151250
X1326250Y1163750
X1327750Y1136000
X1299500Y1133500
X1299500Y1129000
X1294000Y1129000
X1294000Y1133500
X1267950Y1124000
X1263000Y1120500
X1258000Y1124000
X1253000Y1120500
X1248000Y1124000
X1237950Y1124000
X1236250Y1118500
X1242250Y1118500
X1239000Y1112500
X1240000Y1097500
X1234250Y1097500
X1221750Y1098250
X1222750Y1079750
X1216750Y1083500
X1214750Y1115250
X1216900Y1129000
X1216900Y1133500
X1211400Y1133500
X1211400Y1129000
X1192000Y1124250
X1177000Y1091875
X1177000Y1086625
X1176500Y1078250
X1169500Y1078500
X1263250Y1090000
X1266000Y1096500
X1271750Y1096500
X1271500Y1106250
X1276750Y1106250
X1276750Y1112000
X1271500Y1112000
X1280500Y1094250
X1185250Y1169250
X987250Y1120000
X933250Y1120250
X1021250Y1067250
X1026750Y1067250
X792500Y1064250
X786000Y1064250
X786000Y1070750
X792500Y1070750
X789250Y1076000
X743750Y1131500
X728000Y1147500
X721500Y1147500
X715000Y1147500
X719250Y1118500
X684000Y1073000
X375250Y1092750
X375000Y1102250
X365250Y1102250
X365500Y1092750
X355500Y1092750
X355500Y1102250
X346000Y1102500
X346000Y1093000
X199250Y1184500
X176750Y1184500
T03
X534550Y506750
X534550Y517250
X534550Y527750
X545500Y527750
X555950Y527750
X555950Y517250
X555950Y506750
X545250Y506750
X545250Y517250
T04
X1325999Y863000
X1325999Y875000
X1325999Y887000
X1337999Y887000
X1338000Y875002
X1349999Y875000
X1349999Y863000
X1338000Y863000
X1349999Y887000
T07
X1407100Y165700
X1432500Y165700
X1457900Y165700
X1483300Y165700
X1508700Y165700
X1534100Y165700
X1559500Y165700
X1584900Y165700
X1584900Y394300
X1559500Y394300
X1534100Y394300
X1508700Y394300
X1483300Y394300
X1457900Y394300
X1432500Y394300
X1407100Y394300
X475700Y957100
X475700Y982500
X475700Y1007900
X475700Y1033300
X475700Y1058700
X704300Y1058700
X704300Y1033300
X704300Y1007900
X704300Y982500
X704300Y957100
X704300Y1084100
X704300Y1109500
X704300Y1134900
X475700Y1134900
X475700Y1109500
X475700Y1084100
T08
X49000Y225500
X49000Y250900
X674350Y230750
X699750Y230750
X725150Y230750
X734100Y42700
X734100Y17300
X708700Y17300
X708700Y42700
X759500Y42700
X759500Y17300
X784900Y17300
X810300Y17300
X835700Y17300
X835700Y42700
X810300Y42700
X784900Y42700
X861100Y42700
X861100Y17300
X886500Y17300
X911900Y17300
X937300Y17300
X962700Y17300
X988100Y17300
X1013500Y17300
X1038900Y17300
X1038900Y42700
X1013500Y42700
X988100Y42700
X962700Y42700
X937300Y42700
X911900Y42700
X886500Y42700
X1064300Y42700
X1064300Y17300
X1089700Y17300
X1089700Y42700
X1073250Y251250
X1047850Y251250
X1022450Y251250
X997050Y251250
X956750Y251250
X1098650Y251250
X1141600Y251250
X1167000Y251250
X1192400Y251250
X1217800Y251250
X1243200Y251250
X1459000Y241900
X1459000Y267300
X1191300Y42700
X1165900Y42700
X1140500Y42700
X1115100Y42700
X1115100Y17300
X1140500Y17300
X1165900Y17300
X1191300Y17300
X1503750Y597550
X1503750Y622950
X1503750Y648350
X1478350Y635650
X1478350Y661050
X1478350Y610250
X1478350Y584850
X1459000Y318100
X1459000Y292700
X1318700Y283250
X1293300Y283250
X1293250Y314250
X1318650Y314250
X1318700Y347350
X1318700Y372750
X1293300Y372750
X1293300Y398150
X1318700Y398150
X1242700Y398100
X1217300Y398100
X1217300Y372700
X1217300Y347300
X1242700Y347300
X1242700Y321900
X1217300Y321900
X1217800Y276650
X1192400Y276650
X1167000Y276650
X1141600Y276650
X1098650Y276650
X1243200Y276650
X1242700Y372700
X1293300Y347350
X1073250Y276650
X1047850Y276650
X1022450Y276650
X997050Y276650
X956750Y276650
X697500Y645350
X477750Y628200
X477750Y602800
X500500Y398150
X500500Y372750
X500500Y347350
X537300Y347300
X562700Y347300
X562700Y321900
X537300Y321900
X537300Y372700
X537300Y398100
X562700Y398100
X562700Y372700
X613250Y344000
X613250Y318600
X638650Y318600
X638650Y344000
X638650Y293200
X613250Y293200
X49000Y301700
X49000Y276300
X49000Y327100
X49000Y352500
X561900Y837300
X561900Y862700
X587300Y862700
X612700Y862700
X612700Y837300
X587300Y837300
X638100Y837300
X638100Y862700
X628100Y1009000
X602700Y1009000
X577300Y1009000
X551900Y1009000
X753000Y1003750
X778400Y1003750
X803800Y1003750
X803800Y1035750
X778400Y1035750
X753000Y1035750
X747300Y833500
X772700Y833500
X697500Y670750
X1167300Y811900
X1167300Y837300
X1192700Y837300
X1192700Y811900
X1192700Y862700
X1192700Y888100
X1167300Y888100
X1167300Y862700
X1478350Y686450
X1503750Y699150
X1503750Y673750
X1325200Y1103000
X1299800Y1103000
T09
X1549750Y492500
X1599750Y457500
X1599750Y527500
X1473750Y527500
X1473750Y457500
X1423750Y492500
X1347750Y527500
X1347750Y457500
X1297750Y492500
X1113500Y1076350
X1088500Y1076350
X1068500Y1076350
X1043500Y1076350
X877000Y1076350
X852000Y1076350
X832000Y1076350
X807000Y1076350
T11
X1355700Y47300
X1355700Y72700
X1381100Y72700
X1381100Y47300
X1406500Y47300
X1431900Y47300
X1431900Y72700
X1406500Y72700
X1457300Y72700
X1482700Y72700
X1482700Y47300
X1457300Y47300
X1508100Y47300
X1533500Y47300
X1558900Y47300
X1558900Y72700
X1533500Y72700
X1508100Y72700
X1584300Y72700
X1584300Y47300
T12
X1592650Y574150
X1612950Y574150
X1612950Y709850
X1592650Y709850
T13
X1536750Y564250
X1536750Y719750
T14
X1490540Y1119500
T15
X1358460Y1119500
T16
X60000Y457000
X60000Y1113000
T17
X1144200Y1102000
X1012800Y1102000
X907700Y1102000
X776300Y1102000
T18
X1265000Y45000
X70000Y1165000
T19
X142500Y256400
M30
