M48
;Layer_Color=9474304
;FILE_FORMAT=4:4
METRIC,TZ
;TYPE=PLATED
T05F00S00C0.6000
T06F00S00C0.6500
T10F00S00C1.0000
%
G90
G05
T05
G00X15270Y890000
M15
G01X22270
M16
G00X15270Y973500
M15
G01X22270
M16
G00X1199250Y1148000
M15
G01Y1140000
M16
G00X1199250Y1190000
M15
G01Y1178000
M16
G00X1311650Y1190000
M15
G01Y1178000
M16
G00X1311650Y1148000
M15
G01Y1140000
M16
T06
G00X47750Y909500
M15
G01X49750
M16
G00X47750Y954000
M15
G01X49750
M16
T10
G00X1536000Y1093000
M15
G01Y1101000
M16
G00X1571000Y1093000
M15
G01Y1101000
M16
G00X1622000Y1093000
M15
G01Y1101000
M16
G00X1632000Y1165000
M15
G01Y1175000
M16
G00X1533000Y1165000
M15
G01Y1175000
M16
M17
M30
