G04*
G04 #@! TF.GenerationSoftware,Altium Limited,Altium Designer,24.9.1 (31)*
G04*
G04 Layer_Color=8388736*
%FSLAX44Y44*%
%MOMM*%
G71*
G04*
G04 #@! TF.SameCoordinates,4E7B9EB5-4590-4106-9FCC-8C6433276ED0*
G04*
G04*
G04 #@! TF.FilePolarity,Negative*
G04*
G01*
G75*
%ADD11C,0.1000*%
%ADD17C,0.2540*%
%ADD19C,0.1500*%
%ADD22C,0.1270*%
%ADD28C,0.1778*%
%ADD29C,0.0500*%
%ADD34C,0.1800*%
%ADD35C,0.3810*%
%ADD44C,0.4000*%
%ADD56R,0.4500X1.1000*%
%ADD83R,0.7000X1.4000*%
%ADD92C,0.0254*%
G04:AMPARAMS|DCode=93|XSize=0.65mm|YSize=0.7mm|CornerRadius=0.1875mm|HoleSize=0mm|Usage=FLASHONLY|Rotation=180.000|XOffset=0mm|YOffset=0mm|HoleType=Round|Shape=RoundedRectangle|*
%AMROUNDEDRECTD93*
21,1,0.6500,0.3250,0,0,180.0*
21,1,0.2750,0.7000,0,0,180.0*
1,1,0.3750,-0.1375,0.1625*
1,1,0.3750,0.1375,0.1625*
1,1,0.3750,0.1375,-0.1625*
1,1,0.3750,-0.1375,-0.1625*
%
%ADD93ROUNDEDRECTD93*%
%ADD94R,0.6500X1.2500*%
%ADD95R,0.3794X0.8874*%
%ADD96R,0.3000X0.3000*%
%ADD97R,0.3000X0.7000*%
%ADD98R,0.7500X1.1500*%
%ADD99C,0.5000*%
%ADD100R,1.1500X0.7500*%
G04:AMPARAMS|DCode=101|XSize=1.5mm|YSize=1mm|CornerRadius=0.275mm|HoleSize=0mm|Usage=FLASHONLY|Rotation=0.000|XOffset=0mm|YOffset=0mm|HoleType=Round|Shape=RoundedRectangle|*
%AMROUNDEDRECTD101*
21,1,1.5000,0.4500,0,0,0.0*
21,1,0.9500,1.0000,0,0,0.0*
1,1,0.5500,0.4750,-0.2250*
1,1,0.5500,-0.4750,-0.2250*
1,1,0.5500,-0.4750,0.2250*
1,1,0.5500,0.4750,0.2250*
%
%ADD101ROUNDEDRECTD101*%
%ADD102R,1.6500X1.1000*%
%ADD103R,4.4000X1.1000*%
G04:AMPARAMS|DCode=104|XSize=0.65mm|YSize=0.7mm|CornerRadius=0.1875mm|HoleSize=0mm|Usage=FLASHONLY|Rotation=270.000|XOffset=0mm|YOffset=0mm|HoleType=Round|Shape=RoundedRectangle|*
%AMROUNDEDRECTD104*
21,1,0.6500,0.3250,0,0,270.0*
21,1,0.2750,0.7000,0,0,270.0*
1,1,0.3750,-0.1625,-0.1375*
1,1,0.3750,-0.1625,0.1375*
1,1,0.3750,0.1625,0.1375*
1,1,0.3750,0.1625,-0.1375*
%
%ADD104ROUNDEDRECTD104*%
%ADD105O,1.5500X0.5500*%
%ADD106R,0.8874X0.3794*%
%ADD107R,3.2000X3.2000*%
%ADD108R,1.1000X3.5000*%
G04:AMPARAMS|DCode=109|XSize=1mm|YSize=0.9mm|CornerRadius=0.25mm|HoleSize=0mm|Usage=FLASHONLY|Rotation=90.000|XOffset=0mm|YOffset=0mm|HoleType=Round|Shape=RoundedRectangle|*
%AMROUNDEDRECTD109*
21,1,1.0000,0.4000,0,0,90.0*
21,1,0.5000,0.9000,0,0,90.0*
1,1,0.5000,0.2000,0.2500*
1,1,0.5000,0.2000,-0.2500*
1,1,0.5000,-0.2000,-0.2500*
1,1,0.5000,-0.2000,0.2500*
%
%ADD109ROUNDEDRECTD109*%
G04:AMPARAMS|DCode=110|XSize=1mm|YSize=0.9mm|CornerRadius=0.25mm|HoleSize=0mm|Usage=FLASHONLY|Rotation=0.000|XOffset=0mm|YOffset=0mm|HoleType=Round|Shape=RoundedRectangle|*
%AMROUNDEDRECTD110*
21,1,1.0000,0.4000,0,0,0.0*
21,1,0.5000,0.9000,0,0,0.0*
1,1,0.5000,0.2500,-0.2000*
1,1,0.5000,-0.2500,-0.2000*
1,1,0.5000,-0.2500,0.2000*
1,1,0.5000,0.2500,0.2000*
%
%ADD110ROUNDEDRECTD110*%
%ADD111R,0.5500X1.2000*%
%ADD112R,4.1000X3.5000*%
G04:AMPARAMS|DCode=113|XSize=4.1mm|YSize=4.1mm|CornerRadius=0.35mm|HoleSize=0mm|Usage=FLASHONLY|Rotation=0.000|XOffset=0mm|YOffset=0mm|HoleType=Round|Shape=RoundedRectangle|*
%AMROUNDEDRECTD113*
21,1,4.1000,3.4000,0,0,0.0*
21,1,3.4000,4.1000,0,0,0.0*
1,1,0.7000,1.7000,-1.7000*
1,1,0.7000,-1.7000,-1.7000*
1,1,0.7000,-1.7000,1.7000*
1,1,0.7000,1.7000,1.7000*
%
%ADD113ROUNDEDRECTD113*%
%ADD114R,2.5500X1.0500*%
%ADD115R,0.6000X1.1000*%
G04:AMPARAMS|DCode=116|XSize=0.4mm|YSize=0.8mm|CornerRadius=0.125mm|HoleSize=0mm|Usage=FLASHONLY|Rotation=270.000|XOffset=0mm|YOffset=0mm|HoleType=Round|Shape=RoundedRectangle|*
%AMROUNDEDRECTD116*
21,1,0.4000,0.5500,0,0,270.0*
21,1,0.1500,0.8000,0,0,270.0*
1,1,0.2500,-0.2750,-0.0750*
1,1,0.2500,-0.2750,0.0750*
1,1,0.2500,0.2750,0.0750*
1,1,0.2500,0.2750,-0.0750*
%
%ADD116ROUNDEDRECTD116*%
G04:AMPARAMS|DCode=117|XSize=0.4mm|YSize=0.8mm|CornerRadius=0.125mm|HoleSize=0mm|Usage=FLASHONLY|Rotation=180.000|XOffset=0mm|YOffset=0mm|HoleType=Round|Shape=RoundedRectangle|*
%AMROUNDEDRECTD117*
21,1,0.4000,0.5500,0,0,180.0*
21,1,0.1500,0.8000,0,0,180.0*
1,1,0.2500,-0.0750,0.2750*
1,1,0.2500,0.0750,0.2750*
1,1,0.2500,0.0750,-0.2750*
1,1,0.2500,-0.0750,-0.2750*
%
%ADD117ROUNDEDRECTD117*%
%ADD118R,3.8000X3.8000*%
%ADD119C,1.1000*%
%ADD120R,0.8500X0.8500*%
G04:AMPARAMS|DCode=121|XSize=0.4mm|YSize=0.9mm|CornerRadius=0.125mm|HoleSize=0mm|Usage=FLASHONLY|Rotation=270.000|XOffset=0mm|YOffset=0mm|HoleType=Round|Shape=RoundedRectangle|*
%AMROUNDEDRECTD121*
21,1,0.4000,0.6500,0,0,270.0*
21,1,0.1500,0.9000,0,0,270.0*
1,1,0.2500,-0.3250,-0.0750*
1,1,0.2500,-0.3250,0.0750*
1,1,0.2500,0.3250,0.0750*
1,1,0.2500,0.3250,-0.0750*
%
%ADD121ROUNDEDRECTD121*%
G04:AMPARAMS|DCode=122|XSize=1.9mm|YSize=1.5mm|CornerRadius=0.12mm|HoleSize=0mm|Usage=FLASHONLY|Rotation=180.000|XOffset=0mm|YOffset=0mm|HoleType=Round|Shape=RoundedRectangle|*
%AMROUNDEDRECTD122*
21,1,1.9000,1.2600,0,0,180.0*
21,1,1.6600,1.5000,0,0,180.0*
1,1,0.2400,-0.8300,0.6300*
1,1,0.2400,0.8300,0.6300*
1,1,0.2400,0.8300,-0.6300*
1,1,0.2400,-0.8300,-0.6300*
%
%ADD122ROUNDEDRECTD122*%
%ADD123O,0.8000X0.3800*%
%ADD124R,5.2000X5.2000*%
%ADD125O,0.3800X0.8000*%
%ADD126R,2.7500X2.7500*%
G04:AMPARAMS|DCode=127|XSize=0.464mm|YSize=0.914mm|CornerRadius=0.1445mm|HoleSize=0mm|Usage=FLASHONLY|Rotation=270.000|XOffset=0mm|YOffset=0mm|HoleType=Round|Shape=RoundedRectangle|*
%AMROUNDEDRECTD127*
21,1,0.4640,0.6250,0,0,270.0*
21,1,0.1750,0.9140,0,0,270.0*
1,1,0.2890,-0.3125,-0.0875*
1,1,0.2890,-0.3125,0.0875*
1,1,0.2890,0.3125,0.0875*
1,1,0.2890,0.3125,-0.0875*
%
%ADD127ROUNDEDRECTD127*%
G04:AMPARAMS|DCode=128|XSize=0.5mm|YSize=0.95mm|CornerRadius=0.1625mm|HoleSize=0mm|Usage=FLASHONLY|Rotation=0.000|XOffset=0mm|YOffset=0mm|HoleType=Round|Shape=RoundedRectangle|*
%AMROUNDEDRECTD128*
21,1,0.5000,0.6250,0,0,0.0*
21,1,0.1750,0.9500,0,0,0.0*
1,1,0.3250,0.0875,-0.3125*
1,1,0.3250,-0.0875,-0.3125*
1,1,0.3250,-0.0875,0.3125*
1,1,0.3250,0.0875,0.3125*
%
%ADD128ROUNDEDRECTD128*%
%ADD129R,1.8000X0.7000*%
%ADD130R,1.8000X0.9000*%
%ADD131R,1.0000X1.3000*%
%ADD132R,1.6500X1.2500*%
%ADD133R,1.6500X0.5500*%
%ADD134O,1.6500X0.7000*%
%ADD135R,0.7000X0.9500*%
%ADD136R,0.4000X0.9500*%
%ADD137R,0.8500X0.7500*%
%ADD138R,0.8500X0.8500*%
%ADD139R,0.6000X0.4500*%
%ADD140R,0.6000X0.5300*%
G04:AMPARAMS|DCode=141|XSize=0.402mm|YSize=0.427mm|CornerRadius=0.1323mm|HoleSize=0mm|Usage=FLASHONLY|Rotation=180.000|XOffset=0mm|YOffset=0mm|HoleType=Round|Shape=RoundedRectangle|*
%AMROUNDEDRECTD141*
21,1,0.4020,0.1625,0,0,180.0*
21,1,0.1375,0.4270,0,0,180.0*
1,1,0.2645,-0.0688,0.0813*
1,1,0.2645,0.0688,0.0813*
1,1,0.2645,0.0688,-0.0813*
1,1,0.2645,-0.0688,-0.0813*
%
%ADD141ROUNDEDRECTD141*%
%ADD142R,1.2000X1.6000*%
%ADD143R,1.1000X0.9500*%
%ADD144R,3.6000X2.1000*%
%ADD145R,1.8500X0.4000*%
%ADD146R,0.9000X0.9000*%
G04:AMPARAMS|DCode=147|XSize=0.402mm|YSize=0.427mm|CornerRadius=0.1323mm|HoleSize=0mm|Usage=FLASHONLY|Rotation=90.000|XOffset=0mm|YOffset=0mm|HoleType=Round|Shape=RoundedRectangle|*
%AMROUNDEDRECTD147*
21,1,0.4020,0.1625,0,0,90.0*
21,1,0.1375,0.4270,0,0,90.0*
1,1,0.2645,0.0813,0.0688*
1,1,0.2645,0.0813,-0.0688*
1,1,0.2645,-0.0813,-0.0688*
1,1,0.2645,-0.0813,0.0688*
%
%ADD147ROUNDEDRECTD147*%
%ADD148C,2.0000*%
G04:AMPARAMS|DCode=149|XSize=0.4mm|YSize=1.65mm|CornerRadius=0.0725mm|HoleSize=0mm|Usage=FLASHONLY|Rotation=270.000|XOffset=0mm|YOffset=0mm|HoleType=Round|Shape=RoundedRectangle|*
%AMROUNDEDRECTD149*
21,1,0.4000,1.5050,0,0,270.0*
21,1,0.2550,1.6500,0,0,270.0*
1,1,0.1450,-0.7525,-0.1275*
1,1,0.1450,-0.7525,0.1275*
1,1,0.1450,0.7525,0.1275*
1,1,0.1450,0.7525,-0.1275*
%
%ADD149ROUNDEDRECTD149*%
G04:AMPARAMS|DCode=150|XSize=1.3mm|YSize=2.85mm|CornerRadius=0.14mm|HoleSize=0mm|Usage=FLASHONLY|Rotation=270.000|XOffset=0mm|YOffset=0mm|HoleType=Round|Shape=RoundedRectangle|*
%AMROUNDEDRECTD150*
21,1,1.3000,2.5700,0,0,270.0*
21,1,1.0200,2.8500,0,0,270.0*
1,1,0.2800,-1.2850,-0.5100*
1,1,0.2800,-1.2850,0.5100*
1,1,0.2800,1.2850,0.5100*
1,1,0.2800,1.2850,-0.5100*
%
%ADD150ROUNDEDRECTD150*%
%ADD151C,5.4000*%
%ADD152O,2.1000X3.1000*%
%ADD153C,2.9000*%
%ADD154C,1.8000*%
%ADD155R,1.8000X1.8000*%
G04:AMPARAMS|DCode=156|XSize=1.8mm|YSize=1.8mm|CornerRadius=0mm|HoleSize=0mm|Usage=FLASHONLY|Rotation=0.000|XOffset=0mm|YOffset=0mm|HoleType=Round|Shape=Octagon|*
%AMOCTAGOND156*
4,1,8,0.9000,-0.4500,0.9000,0.4500,0.4500,0.9000,-0.4500,0.9000,-0.9000,0.4500,-0.9000,-0.4500,-0.4500,-0.9000,0.4500,-0.9000,0.9000,-0.4500,0.0*
%
%ADD156OCTAGOND156*%

%ADD157C,2.1000*%
%ADD158C,1.5000*%
%ADD159R,1.5000X1.5000*%
%ADD160C,3.3500*%
%ADD161C,2.7000*%
G04:AMPARAMS|DCode=162|XSize=1.6mm|YSize=2.4mm|CornerRadius=0.425mm|HoleSize=0mm|Usage=FLASHONLY|Rotation=180.000|XOffset=0mm|YOffset=0mm|HoleType=Round|Shape=RoundedRectangle|*
%AMROUNDEDRECTD162*
21,1,1.6000,1.5500,0,0,180.0*
21,1,0.7500,2.4000,0,0,180.0*
1,1,0.8500,-0.3750,0.7750*
1,1,0.8500,0.3750,0.7750*
1,1,0.8500,0.3750,-0.7750*
1,1,0.8500,-0.3750,-0.7750*
%
%ADD162ROUNDEDRECTD162*%
%ADD163R,1.6000X2.4000*%
%ADD164C,3.6000*%
%ADD165C,1.7764*%
%ADD166R,1.7764X1.7764*%
G04:AMPARAMS|DCode=167|XSize=1.8mm|YSize=1.8mm|CornerRadius=0mm|HoleSize=0mm|Usage=FLASHONLY|Rotation=270.000|XOffset=0mm|YOffset=0mm|HoleType=Round|Shape=Octagon|*
%AMOCTAGOND167*
4,1,8,-0.4500,-0.9000,0.4500,-0.9000,0.9000,-0.4500,0.9000,0.4500,0.4500,0.9000,-0.4500,0.9000,-0.9000,0.4500,-0.9000,-0.4500,-0.4500,-0.9000,0.0*
%
%ADD167OCTAGOND167*%

%ADD168C,1.7000*%
%ADD169C,1.2000*%
%ADD170O,1.3500X1.1500*%
%ADD171O,2.0000X1.3250*%
%ADD172R,2.6400X2.6400*%
%ADD173C,1.6000*%
%ADD174R,1.6000X1.6000*%
%ADD175C,1.6240*%
%ADD176R,1.6240X1.6240*%
%ADD177O,1.1000X1.9000*%
%ADD178O,1.1000X2.3000*%
%ADD179R,1.8000X1.8000*%
%ADD180R,1.6240X1.6240*%
%ADD181R,1.6000X1.6000*%
%ADD182C,4.6000*%
%ADD183C,6.1000*%
%ADD184C,2.6000*%
%ADD185C,0.3810*%
%ADD186C,0.4500*%
G36*
X1312910Y621998D02*
X1312968Y621993D01*
X1312968Y621993D01*
X1312968Y621993D01*
X1313039Y621976D01*
X1313083Y621966D01*
X1313083Y621966D01*
X1313083Y621966D01*
X1313138Y621943D01*
X1313192Y621921D01*
X1313192Y621921D01*
X1313192Y621921D01*
X1313227Y621899D01*
X1313292Y621859D01*
X1313293Y621859D01*
X1313293Y621859D01*
X1313325Y621831D01*
X1313382Y621783D01*
X1313383Y621782D01*
X1313383Y621782D01*
X1314162Y621002D01*
X1323001Y621003D01*
X1323002Y621003D01*
X1323004Y621003D01*
X1323093Y621003D01*
X1323122Y621000D01*
X1323152Y621000D01*
X1323181Y620995D01*
X1323211Y620993D01*
X1323239Y620986D01*
X1323268Y620981D01*
X1323297Y620972D01*
X1323326Y620965D01*
X1323352Y620954D01*
X1323380Y620945D01*
X1323545Y620876D01*
X1323571Y620862D01*
X1323598Y620851D01*
X1323624Y620835D01*
X1323650Y620822D01*
X1323674Y620804D01*
X1323698Y620789D01*
X1323721Y620770D01*
X1323746Y620752D01*
X1323766Y620731D01*
X1323788Y620712D01*
X1323914Y620586D01*
X1323933Y620564D01*
X1323954Y620543D01*
X1323971Y620519D01*
X1323991Y620496D01*
X1324006Y620471D01*
X1324023Y620447D01*
X1324037Y620421D01*
X1324052Y620395D01*
X1324064Y620368D01*
X1324077Y620342D01*
X1324145Y620177D01*
X1324154Y620149D01*
X1324165Y620122D01*
X1324172Y620093D01*
X1324182Y620065D01*
X1324186Y620036D01*
X1324193Y620007D01*
X1324195Y619977D01*
X1324200Y619948D01*
X1324200Y619919D01*
X1324202Y619889D01*
X1324202Y619800D01*
X1324202Y619800D01*
X1324202Y619800D01*
X1324203Y608700D01*
X1324203Y608700D01*
X1324203Y608700D01*
X1324203Y608700D01*
X1324203Y608612D01*
X1324200Y608582D01*
X1324200Y608552D01*
X1324196Y608523D01*
X1324194Y608494D01*
X1324187Y608465D01*
X1324182Y608436D01*
X1324173Y608408D01*
X1324166Y608379D01*
X1324155Y608352D01*
X1324146Y608323D01*
X1324077Y608158D01*
X1324064Y608131D01*
X1324052Y608104D01*
X1324037Y608079D01*
X1324024Y608053D01*
X1324006Y608029D01*
X1323991Y608003D01*
X1323972Y607981D01*
X1323954Y607957D01*
X1323934Y607936D01*
X1323914Y607913D01*
X1323787Y607786D01*
X1323764Y607767D01*
X1323743Y607746D01*
X1323720Y607729D01*
X1323698Y607710D01*
X1323672Y607694D01*
X1323648Y607677D01*
X1323622Y607664D01*
X1323597Y607648D01*
X1323569Y607637D01*
X1323543Y607623D01*
X1323377Y607555D01*
X1323349Y607546D01*
X1323321Y607534D01*
X1323293Y607527D01*
X1323265Y607519D01*
X1323235Y607514D01*
X1323206Y607507D01*
X1323177Y607505D01*
X1323148Y607500D01*
X1323118Y607500D01*
X1323089Y607498D01*
X1322999Y607498D01*
X1311750Y607498D01*
X1311750Y607498D01*
X1311750Y607498D01*
X1311632Y607507D01*
X1311517Y607534D01*
X1311409Y607580D01*
X1311347Y607617D01*
X1311308Y607641D01*
X1311218Y607718D01*
X1311218Y607718D01*
X1311218Y607718D01*
X1311141Y607808D01*
X1311118Y607847D01*
X1311080Y607908D01*
X1311035Y608018D01*
X1311007Y608132D01*
X1310998Y608250D01*
X1310998Y608250D01*
X1310998Y608250D01*
X1310998Y620250D01*
X1310998Y621250D01*
X1311002Y621301D01*
X1311007Y621367D01*
X1311007Y621367D01*
X1311007Y621368D01*
X1311021Y621427D01*
X1311034Y621482D01*
X1311035Y621482D01*
X1311035Y621483D01*
X1311060Y621544D01*
X1311080Y621591D01*
X1311080Y621591D01*
X1311080Y621591D01*
X1311123Y621662D01*
X1311141Y621692D01*
X1311141Y621692D01*
X1311141Y621692D01*
X1311187Y621745D01*
X1311218Y621782D01*
X1311218Y621782D01*
X1311218Y621782D01*
X1311255Y621813D01*
X1311308Y621858D01*
X1311308Y621858D01*
X1311308Y621859D01*
X1311338Y621877D01*
X1311408Y621920D01*
X1311408Y621920D01*
X1311409Y621920D01*
X1311455Y621940D01*
X1311517Y621965D01*
X1311517Y621965D01*
X1311517Y621965D01*
X1311573Y621979D01*
X1311632Y621993D01*
X1311632Y621993D01*
X1311632Y621993D01*
X1311699Y621998D01*
X1311750Y622002D01*
X1312850Y622003D01*
X1312850Y622003D01*
X1312851Y622003D01*
X1312910Y621998D01*
X1312910Y621998D02*
G37*
G36*
X1336750Y622002D02*
X1336787Y621999D01*
X1336868Y621993D01*
X1336983Y621965D01*
X1336983Y621965D01*
X1336983Y621965D01*
X1337054Y621936D01*
X1337092Y621920D01*
X1337092Y621920D01*
X1337092Y621920D01*
X1337166Y621875D01*
X1337192Y621859D01*
X1337192Y621859D01*
X1337192Y621858D01*
X1337243Y621815D01*
X1337282Y621782D01*
X1337282Y621782D01*
X1337282Y621782D01*
X1337316Y621743D01*
X1337359Y621692D01*
X1337359Y621692D01*
X1337359Y621692D01*
X1337375Y621666D01*
X1337420Y621591D01*
X1337420Y621591D01*
X1337420Y621591D01*
X1337436Y621554D01*
X1337466Y621483D01*
X1337466Y621482D01*
X1337466Y621482D01*
X1337493Y621367D01*
X1337499Y621287D01*
X1337502Y621250D01*
X1337502Y608250D01*
X1337493Y608132D01*
X1337473Y608050D01*
X1337466Y608018D01*
X1337466Y608018D01*
X1337466Y608018D01*
X1337420Y607908D01*
X1337388Y607856D01*
X1337359Y607808D01*
X1337282Y607718D01*
X1337282Y607718D01*
X1337282Y607718D01*
X1337192Y607641D01*
X1337144Y607612D01*
X1337092Y607580D01*
X1336983Y607534D01*
X1336983Y607534D01*
X1336983Y607534D01*
X1336950Y607527D01*
X1336868Y607507D01*
X1336750Y607498D01*
X1331250Y607497D01*
X1331250Y607497D01*
X1331250Y607497D01*
X1331248Y607497D01*
X1331247Y607497D01*
X1331188Y607497D01*
X1331158Y607500D01*
X1331129Y607500D01*
X1331099Y607505D01*
X1331070Y607507D01*
X1331041Y607514D01*
X1331012Y607519D01*
X1330984Y607528D01*
X1330955Y607535D01*
X1330928Y607546D01*
X1330900Y607556D01*
X1330790Y607602D01*
X1330764Y607615D01*
X1330736Y607626D01*
X1330711Y607642D01*
X1330685Y607656D01*
X1330661Y607673D01*
X1330636Y607688D01*
X1330613Y607708D01*
X1330589Y607725D01*
X1330569Y607746D01*
X1330546Y607765D01*
X1330462Y607850D01*
X1330443Y607873D01*
X1330423Y607893D01*
X1330405Y607917D01*
X1330386Y607940D01*
X1330370Y607965D01*
X1330353Y607989D01*
X1330340Y608016D01*
X1330324Y608041D01*
X1330313Y608068D01*
X1330300Y608094D01*
X1330255Y608205D01*
X1330245Y608233D01*
X1330234Y608260D01*
X1330227Y608289D01*
X1330218Y608317D01*
X1330214Y608346D01*
X1330207Y608375D01*
X1330205Y608405D01*
X1330200Y608434D01*
X1330200Y608463D01*
X1330198Y608493D01*
X1330198Y608553D01*
X1330197Y619949D01*
X1330197Y619949D01*
X1330197Y619949D01*
X1330197Y619951D01*
X1330197Y619952D01*
X1330197Y620012D01*
X1330200Y620041D01*
X1330200Y620070D01*
X1330205Y620099D01*
X1330207Y620129D01*
X1330214Y620158D01*
X1330219Y620186D01*
X1330228Y620215D01*
X1330235Y620244D01*
X1330246Y620271D01*
X1330255Y620298D01*
X1330301Y620409D01*
X1330314Y620434D01*
X1330325Y620461D01*
X1330341Y620487D01*
X1330355Y620514D01*
X1330372Y620537D01*
X1330387Y620562D01*
X1330407Y620585D01*
X1330424Y620609D01*
X1330445Y620629D01*
X1330464Y620651D01*
X1330548Y620736D01*
X1330570Y620755D01*
X1330590Y620775D01*
X1330615Y620793D01*
X1330638Y620812D01*
X1330663Y620828D01*
X1330686Y620845D01*
X1330713Y620858D01*
X1330739Y620874D01*
X1330765Y620885D01*
X1330791Y620898D01*
X1330901Y620944D01*
X1330929Y620953D01*
X1330956Y620965D01*
X1330985Y620972D01*
X1331013Y620981D01*
X1331042Y620986D01*
X1331070Y620993D01*
X1331100Y620995D01*
X1331130Y621000D01*
X1331159Y621000D01*
X1331188Y621002D01*
X1331248Y621002D01*
X1331249Y621002D01*
X1331250Y621002D01*
X1334339Y621003D01*
X1335118Y621782D01*
X1335118Y621782D01*
X1335118Y621782D01*
X1335158Y621816D01*
X1335208Y621859D01*
X1335208Y621859D01*
X1335208Y621859D01*
X1335309Y621921D01*
X1335343Y621935D01*
X1335418Y621966D01*
X1335528Y621992D01*
X1335533Y621993D01*
X1335613Y622000D01*
X1335650Y622002D01*
X1335650Y622002D01*
X1335650Y622002D01*
X1336750Y622002D01*
X1336750Y622002D02*
G37*
G36*
X101022Y162528D02*
X108249Y161091D01*
X115301Y158952D01*
X122109Y156132D01*
X128608Y152658D01*
X134735Y148564D01*
X140431Y143889D01*
X145642Y138679D01*
X150317Y132982D01*
X154411Y126855D01*
X157885Y120356D01*
X160705Y113548D01*
X162844Y106496D01*
X164281Y99269D01*
X165004Y91935D01*
X165004Y88251D01*
X165004Y84566D01*
X164281Y77233D01*
X162844Y70005D01*
X160705Y62954D01*
X157885Y56146D01*
X154411Y49647D01*
X150317Y43520D01*
X145642Y37823D01*
X140431Y32612D01*
X134735Y27938D01*
X128608Y23844D01*
X122109Y20370D01*
X115301Y17550D01*
X108249Y15411D01*
X101022Y13973D01*
X93688Y13251D01*
X86319Y13251D01*
X78986Y13973D01*
X71758Y15411D01*
X64706Y17550D01*
X57898Y20370D01*
X51399Y23844D01*
X45272Y27938D01*
X39576Y32612D01*
X34365Y37823D01*
X29690Y43520D01*
X25596Y49647D01*
X22123Y56146D01*
X19303Y62954D01*
X17163Y70005D01*
X15726Y77233D01*
X15004Y84566D01*
X15004Y88251D01*
X15004Y91935D01*
X15726Y99269D01*
X17163Y106496D01*
X19303Y113548D01*
X22123Y120356D01*
X25596Y126855D01*
X29690Y132982D01*
X34365Y138679D01*
X39576Y143889D01*
X45272Y148564D01*
X51399Y152658D01*
X57898Y156132D01*
X64706Y158952D01*
X71758Y161091D01*
X78986Y162528D01*
X86319Y163251D01*
X93688Y163251D01*
X101022Y162528D01*
X101022Y162528D02*
G37*
G36*
X2593426Y-755517D02*
X2594273Y-755799D01*
X2595402Y-756222D01*
X2596389Y-756786D01*
X2597236Y-757774D01*
X2597800Y-759185D01*
X2598082Y-760878D01*
X2598082Y-761160D01*
X2597941Y-761725D01*
X2597800Y-762712D01*
X2597377Y-763700D01*
X2596813Y-764829D01*
X2595825Y-765676D01*
X2594414Y-766381D01*
X2592580Y-766663D01*
X2592156Y-766663D01*
X2591733Y-766522D01*
X2591169Y-766381D01*
X2589758Y-765958D01*
X2589052Y-765534D01*
X2588347Y-764970D01*
X2588347Y-764829D01*
X2588065Y-764688D01*
X2587500Y-763841D01*
X2586936Y-762571D01*
X2586795Y-761725D01*
X2586654Y-760878D01*
X2586654Y-760737D01*
X2586654Y-760455D01*
X2586795Y-760032D01*
X2586936Y-759608D01*
X2587500Y-758338D01*
X2587923Y-757633D01*
X2588488Y-757069D01*
X2588629Y-756927D01*
X2588770Y-756786D01*
X2589617Y-756222D01*
X2590887Y-755658D01*
X2591733Y-755376D01*
X2592862Y-755376D01*
X2593426Y-755517D01*
X2593426Y-755517D02*
G37*
G36*
X2557305Y-750578D02*
X2558434Y-750719D01*
X2559845Y-750719D01*
X2561256Y-751001D01*
X2564501Y-751425D01*
X2568029Y-752271D01*
X2571556Y-753259D01*
X2575084Y-754670D01*
X2606689Y-805042D01*
X2606689Y-805183D01*
X2606689Y-805465D01*
X2606548Y-806029D01*
X2606548Y-806594D01*
X2606407Y-807440D01*
X2606266Y-808428D01*
X2605843Y-810544D01*
X2605843Y-810686D01*
X2605702Y-811109D01*
X2605561Y-811673D01*
X2605420Y-812379D01*
X2605137Y-813366D01*
X2604855Y-814354D01*
X2604149Y-816753D01*
X2576636Y-773718D01*
X2576495Y-773577D01*
X2576353Y-773154D01*
X2575789Y-772589D01*
X2575225Y-772025D01*
X2574519Y-771460D01*
X2573673Y-770896D01*
X2572826Y-770473D01*
X2571697Y-770332D01*
X2571274Y-770332D01*
X2570851Y-770473D01*
X2570286Y-770755D01*
X2569581Y-771178D01*
X2568734Y-771743D01*
X2568029Y-772448D01*
X2567182Y-773577D01*
X2558011Y-786135D01*
X2590322Y-837071D01*
X2590181Y-837212D01*
X2589617Y-837635D01*
X2588770Y-838341D01*
X2587641Y-839187D01*
X2586089Y-840316D01*
X2584255Y-841445D01*
X2582280Y-842714D01*
X2579881Y-843984D01*
X2577341Y-845254D01*
X2574378Y-846524D01*
X2571415Y-847653D01*
X2568029Y-848782D01*
X2564501Y-849628D01*
X2560833Y-850334D01*
X2557023Y-850757D01*
X2552931Y-850898D01*
X2551944Y-850898D01*
X2550815Y-850757D01*
X2549263Y-850616D01*
X2547287Y-850334D01*
X2545030Y-850051D01*
X2542631Y-849487D01*
X2539809Y-848782D01*
X2536987Y-847935D01*
X2533883Y-846806D01*
X2530638Y-845536D01*
X2527393Y-843984D01*
X2524148Y-842009D01*
X2520902Y-839893D01*
X2517798Y-837353D01*
X2514694Y-834390D01*
X2528380Y-815483D01*
X2528522Y-815342D01*
X2528663Y-814777D01*
X2528945Y-813931D01*
X2529086Y-813225D01*
X2529227Y-812379D01*
X2529227Y-812096D01*
X2529086Y-811391D01*
X2528663Y-810121D01*
X2527816Y-808569D01*
X2517657Y-792625D01*
X2502560Y-813649D01*
X2502560Y-813507D01*
X2502419Y-813366D01*
X2502278Y-812520D01*
X2501995Y-811250D01*
X2501713Y-809557D01*
X2501290Y-807440D01*
X2501008Y-805183D01*
X2500867Y-802502D01*
X2500726Y-799821D01*
X2500726Y-799539D01*
X2500726Y-798974D01*
X2500867Y-797846D01*
X2501008Y-796576D01*
X2501149Y-794883D01*
X2501431Y-792907D01*
X2501995Y-790650D01*
X2502560Y-788251D01*
X2503265Y-785711D01*
X2504253Y-782889D01*
X2505523Y-780067D01*
X2506793Y-777245D01*
X2508486Y-774424D01*
X2510461Y-771460D01*
X2512719Y-768639D01*
X2515258Y-765958D01*
X2515400Y-765817D01*
X2515964Y-765252D01*
X2516811Y-764547D01*
X2518080Y-763559D01*
X2519633Y-762289D01*
X2521467Y-761019D01*
X2523583Y-759608D01*
X2525982Y-758197D01*
X2528663Y-756786D01*
X2531626Y-755376D01*
X2534871Y-753964D01*
X2538257Y-752836D01*
X2541926Y-751848D01*
X2545876Y-751143D01*
X2549968Y-750578D01*
X2554342Y-750437D01*
X2556318Y-750437D01*
X2557305Y-750578D01*
X2557305Y-750578D02*
G37*
G36*
X2609793Y-865149D02*
X2610499Y-865290D01*
X2611064Y-865431D01*
X2611205Y-865431D01*
X2611487Y-865572D01*
X2612474Y-865995D01*
X2613039Y-866560D01*
X2613462Y-867124D01*
X2613885Y-867830D01*
X2614167Y-868817D01*
X2614167Y-868959D01*
X2614308Y-869100D01*
X2614308Y-869523D01*
X2614450Y-870228D01*
X2614450Y-870934D01*
X2614591Y-871922D01*
X2614591Y-873050D01*
X2614591Y-874320D01*
X2595684Y-873897D01*
X2595543Y-873897D01*
X2594978Y-874038D01*
X2594273Y-874179D01*
X2593567Y-874743D01*
X2592721Y-875449D01*
X2592015Y-876719D01*
X2591733Y-877566D01*
X2591451Y-878553D01*
X2591310Y-879541D01*
X2591310Y-880811D01*
X2591310Y-884620D01*
X2591310Y-884761D01*
X2591310Y-884902D01*
X2591451Y-885749D01*
X2591592Y-886737D01*
X2591874Y-888007D01*
X2592297Y-889277D01*
X2593144Y-890405D01*
X2594132Y-891252D01*
X2594837Y-891393D01*
X2595543Y-891534D01*
X2614873Y-891534D01*
X2614873Y-891816D01*
X2614873Y-892381D01*
X2614873Y-893368D01*
X2614732Y-894497D01*
X2614591Y-895626D01*
X2614450Y-896755D01*
X2614167Y-897742D01*
X2613744Y-898448D01*
X2613744Y-898589D01*
X2613462Y-898730D01*
X2613039Y-899012D01*
X2612474Y-899294D01*
X2611628Y-899718D01*
X2610499Y-900000D01*
X2609088Y-900141D01*
X2607395Y-900282D01*
X2593285Y-900282D01*
X2592156Y-900141D01*
X2590746Y-899859D01*
X2589334Y-899436D01*
X2587782Y-898730D01*
X2586512Y-897883D01*
X2585525Y-896613D01*
X2585525Y-896472D01*
X2585243Y-896049D01*
X2584960Y-895344D01*
X2584678Y-894497D01*
X2584396Y-893227D01*
X2584114Y-891816D01*
X2583973Y-889982D01*
X2583831Y-888007D01*
X2583831Y-877566D01*
X2583831Y-877424D01*
X2583831Y-877142D01*
X2583831Y-876719D01*
X2583973Y-876154D01*
X2584114Y-874743D01*
X2584396Y-872909D01*
X2584819Y-871075D01*
X2585666Y-869241D01*
X2586654Y-867689D01*
X2587359Y-866983D01*
X2588065Y-866419D01*
X2588206Y-866419D01*
X2588488Y-866137D01*
X2588911Y-865995D01*
X2589617Y-865713D01*
X2590463Y-865431D01*
X2591592Y-865290D01*
X2592862Y-865008D01*
X2608100Y-865008D01*
X2609793Y-865149D01*
X2609793Y-865149D02*
G37*
G36*
X2649019Y-900000D02*
X2641823Y-900000D01*
X2641823Y-886878D01*
X2626161Y-886878D01*
X2626161Y-900000D01*
X2619388Y-900000D01*
X2619388Y-865431D01*
X2626161Y-865431D01*
X2626161Y-877566D01*
X2641823Y-877566D01*
X2641823Y-865431D01*
X2649019Y-865431D01*
X2649019Y-900000D01*
X2649019Y-900000D02*
G37*
G36*
X2452047Y-854143D02*
X2452753Y-854284D01*
X2453599Y-854708D01*
X2454305Y-855272D01*
X2455010Y-856260D01*
X2455716Y-857530D01*
X2455998Y-859364D01*
X2460654Y-900000D01*
X2451906Y-900000D01*
X2449507Y-870793D01*
X2449366Y-870793D01*
X2440477Y-894215D01*
X2440477Y-894356D01*
X2440195Y-894779D01*
X2439772Y-895485D01*
X2439207Y-896190D01*
X2438502Y-896896D01*
X2437655Y-897601D01*
X2436667Y-898025D01*
X2435398Y-898166D01*
X2434833Y-898166D01*
X2434128Y-897883D01*
X2433281Y-897601D01*
X2432294Y-897178D01*
X2431447Y-896472D01*
X2430741Y-895485D01*
X2430036Y-894215D01*
X2421147Y-871216D01*
X2421006Y-871216D01*
X2418466Y-900000D01*
X2410000Y-900000D01*
X2414374Y-858941D01*
X2414374Y-858659D01*
X2414515Y-858094D01*
X2414797Y-857389D01*
X2415221Y-856401D01*
X2415785Y-855554D01*
X2416632Y-854708D01*
X2417760Y-854143D01*
X2419030Y-854002D01*
X2419736Y-854002D01*
X2420582Y-854284D01*
X2421570Y-854567D01*
X2422558Y-855131D01*
X2423687Y-855978D01*
X2424533Y-857106D01*
X2425380Y-858659D01*
X2435257Y-883774D01*
X2435398Y-883774D01*
X2445274Y-858659D01*
X2445415Y-858517D01*
X2445557Y-857953D01*
X2446121Y-857247D01*
X2446685Y-856260D01*
X2447532Y-855413D01*
X2448661Y-854708D01*
X2449931Y-854143D01*
X2451483Y-854002D01*
X2451624Y-854002D01*
X2452047Y-854143D01*
X2452047Y-854143D02*
G37*
G36*
X2690360Y-865572D02*
X2691489Y-865713D01*
X2692758Y-866137D01*
X2694170Y-866842D01*
X2695439Y-867830D01*
X2696568Y-869241D01*
X2697415Y-871216D01*
X2697415Y-871357D01*
X2697556Y-871639D01*
X2697556Y-872204D01*
X2697697Y-872909D01*
X2697838Y-873756D01*
X2697838Y-874743D01*
X2697979Y-876013D01*
X2697979Y-877283D01*
X2697979Y-879964D01*
X2697979Y-880246D01*
X2697979Y-880952D01*
X2697838Y-882081D01*
X2697697Y-883350D01*
X2697415Y-884902D01*
X2697133Y-886455D01*
X2696568Y-887724D01*
X2695863Y-888994D01*
X2695863Y-889135D01*
X2695580Y-889277D01*
X2695157Y-889700D01*
X2694734Y-890123D01*
X2694028Y-890546D01*
X2693182Y-890829D01*
X2692335Y-891111D01*
X2691206Y-891252D01*
X2673993Y-891252D01*
X2673993Y-900000D01*
X2666938Y-900000D01*
X2666938Y-865431D01*
X2689655Y-865431D01*
X2690360Y-865572D01*
X2690360Y-865572D02*
G37*
G36*
X2662281Y-900000D02*
X2654098Y-900000D01*
X2654098Y-865431D01*
X2662281Y-865431D01*
X2662281Y-900000D01*
X2662281Y-900000D02*
G37*
G36*
X2537270Y-865572D02*
X2538398Y-865995D01*
X2539668Y-866701D01*
X2540233Y-867265D01*
X2540938Y-867971D01*
X2541503Y-868817D01*
X2541926Y-869805D01*
X2542490Y-870934D01*
X2542772Y-872345D01*
X2542914Y-873897D01*
X2543055Y-875731D01*
X2543055Y-877848D01*
X2543055Y-877989D01*
X2543055Y-878130D01*
X2543055Y-878976D01*
X2542914Y-880246D01*
X2542631Y-881657D01*
X2542067Y-883068D01*
X2541361Y-884479D01*
X2540374Y-885608D01*
X2539104Y-886455D01*
X2539104Y-886596D01*
X2539245Y-886596D01*
X2539668Y-886878D01*
X2540374Y-887301D01*
X2541079Y-888007D01*
X2541785Y-888994D01*
X2542490Y-890264D01*
X2542914Y-891957D01*
X2543055Y-894215D01*
X2543055Y-900000D01*
X2535718Y-900000D01*
X2535718Y-895908D01*
X2535718Y-895767D01*
X2535718Y-895485D01*
X2535718Y-894920D01*
X2535718Y-894356D01*
X2535576Y-893227D01*
X2535576Y-892663D01*
X2535435Y-892240D01*
X2535294Y-892098D01*
X2534871Y-891534D01*
X2534165Y-891111D01*
X2532896Y-890970D01*
X2520056Y-890970D01*
X2520056Y-900000D01*
X2512719Y-900000D01*
X2512719Y-865431D01*
X2536423Y-865431D01*
X2537270Y-865572D01*
X2537270Y-865572D02*
G37*
G36*
X2473071Y-900000D02*
X2465028Y-900000D01*
X2465028Y-865431D01*
X2473071Y-865431D01*
X2473071Y-900000D01*
X2473071Y-900000D02*
G37*
G36*
X2571556Y-865149D02*
X2572826Y-865431D01*
X2574096Y-865713D01*
X2575507Y-866278D01*
X2576636Y-867124D01*
X2577623Y-868112D01*
X2577765Y-868253D01*
X2578047Y-868676D01*
X2578329Y-869382D01*
X2578752Y-870369D01*
X2579175Y-871780D01*
X2579599Y-873333D01*
X2579740Y-875167D01*
X2579881Y-877424D01*
X2579881Y-887866D01*
X2579881Y-888007D01*
X2579881Y-888289D01*
X2579881Y-888712D01*
X2579740Y-889418D01*
X2579599Y-890970D01*
X2579316Y-892945D01*
X2578611Y-894920D01*
X2577765Y-896896D01*
X2576495Y-898448D01*
X2575648Y-899153D01*
X2574801Y-899577D01*
X2574660Y-899577D01*
X2574378Y-899718D01*
X2573955Y-899859D01*
X2573391Y-899859D01*
X2572685Y-900000D01*
X2571838Y-900141D01*
X2569581Y-900282D01*
X2556882Y-900282D01*
X2555753Y-900141D01*
X2554483Y-899859D01*
X2553073Y-899436D01*
X2551662Y-898871D01*
X2550392Y-898025D01*
X2549263Y-896896D01*
X2549122Y-896755D01*
X2548981Y-896331D01*
X2548698Y-895626D01*
X2548416Y-894638D01*
X2547993Y-893509D01*
X2547711Y-891957D01*
X2547570Y-889982D01*
X2547429Y-887866D01*
X2547429Y-877424D01*
X2547429Y-877283D01*
X2547429Y-877001D01*
X2547429Y-876437D01*
X2547570Y-875731D01*
X2547711Y-874038D01*
X2548134Y-872063D01*
X2548840Y-869946D01*
X2549968Y-868112D01*
X2550674Y-867265D01*
X2551379Y-866560D01*
X2552367Y-865995D01*
X2553355Y-865572D01*
X2553496Y-865572D01*
X2553637Y-865431D01*
X2554060Y-865431D01*
X2554625Y-865290D01*
X2556035Y-865149D01*
X2557870Y-865008D01*
X2570569Y-865008D01*
X2571556Y-865149D01*
X2571556Y-865149D02*
G37*
G36*
X2500867Y-865149D02*
X2502560Y-865149D01*
X2504112Y-865290D01*
X2505382Y-865572D01*
X2505805Y-865713D01*
X2506087Y-865854D01*
X2506228Y-865854D01*
X2506369Y-866137D01*
X2506652Y-866560D01*
X2507075Y-867265D01*
X2507498Y-868253D01*
X2507780Y-869664D01*
X2507921Y-871498D01*
X2508062Y-873897D01*
X2489014Y-873897D01*
X2488168Y-874038D01*
X2487180Y-874461D01*
X2486192Y-875308D01*
X2486051Y-875590D01*
X2485910Y-875872D01*
X2485628Y-876437D01*
X2485487Y-877142D01*
X2485205Y-878130D01*
X2485064Y-879400D01*
X2485064Y-880811D01*
X2485064Y-884620D01*
X2485064Y-884761D01*
X2485064Y-885326D01*
X2485064Y-886031D01*
X2485205Y-886737D01*
X2485346Y-888571D01*
X2485487Y-889277D01*
X2485628Y-889841D01*
X2485769Y-890123D01*
X2486334Y-890687D01*
X2486898Y-890970D01*
X2487462Y-891252D01*
X2488309Y-891393D01*
X2489155Y-891534D01*
X2508486Y-891534D01*
X2508486Y-891816D01*
X2508486Y-892381D01*
X2508486Y-893227D01*
X2508345Y-894215D01*
X2508062Y-896472D01*
X2507780Y-897460D01*
X2507498Y-898166D01*
X2507498Y-898307D01*
X2507216Y-898448D01*
X2506793Y-898871D01*
X2506228Y-899153D01*
X2505241Y-899577D01*
X2504112Y-900000D01*
X2502701Y-900141D01*
X2501008Y-900282D01*
X2487039Y-900282D01*
X2486051Y-900141D01*
X2484781Y-899859D01*
X2483371Y-899577D01*
X2481960Y-899153D01*
X2480690Y-898448D01*
X2479702Y-897460D01*
X2479561Y-897319D01*
X2479420Y-896896D01*
X2478997Y-896190D01*
X2478573Y-895203D01*
X2478150Y-893933D01*
X2477868Y-892240D01*
X2477586Y-890264D01*
X2477444Y-887866D01*
X2477444Y-877424D01*
X2477444Y-877283D01*
X2477444Y-877001D01*
X2477444Y-876437D01*
X2477586Y-875731D01*
X2477868Y-873897D01*
X2478291Y-871780D01*
X2479138Y-869664D01*
X2480408Y-867689D01*
X2481254Y-866842D01*
X2482242Y-866137D01*
X2483230Y-865572D01*
X2484499Y-865290D01*
X2484781Y-865290D01*
X2485487Y-865149D01*
X2486616Y-865008D01*
X2499173Y-865008D01*
X2500867Y-865149D01*
X2500867Y-865149D02*
G37*
%LPC*%
G36*
X2592580Y-756363D02*
X2591874Y-756363D01*
X2591028Y-756645D01*
X2590181Y-756927D01*
X2589193Y-757492D01*
X2588488Y-758197D01*
X2587923Y-759326D01*
X2587641Y-760878D01*
X2587641Y-761019D01*
X2587641Y-761160D01*
X2587782Y-762007D01*
X2588206Y-763136D01*
X2589052Y-764406D01*
X2589334Y-764688D01*
X2590040Y-765111D01*
X2591169Y-765534D01*
X2592580Y-765817D01*
X2592721Y-765817D01*
X2593285Y-765676D01*
X2593990Y-765534D01*
X2594978Y-765252D01*
X2595825Y-764547D01*
X2596530Y-763700D01*
X2597095Y-762571D01*
X2597236Y-760878D01*
X2597236Y-760737D01*
X2597236Y-760173D01*
X2596954Y-759467D01*
X2596671Y-758621D01*
X2596107Y-757774D01*
X2595261Y-757069D01*
X2594132Y-756504D01*
X2592580Y-756363D01*
X2592580Y-756363D02*
G37*
%LPD*%
G36*
X2593849Y-757915D02*
X2594555Y-758480D01*
X2594837Y-758903D01*
X2594978Y-759608D01*
X2594978Y-759750D01*
X2594978Y-759891D01*
X2594837Y-760596D01*
X2594273Y-761160D01*
X2593849Y-761443D01*
X2593285Y-761584D01*
X2595119Y-764406D01*
X2593990Y-764406D01*
X2592297Y-761584D01*
X2591169Y-761584D01*
X2591169Y-764406D01*
X2590181Y-764406D01*
X2590181Y-757633D01*
X2593003Y-757633D01*
X2593849Y-757915D01*
X2593849Y-757915D02*
G37*
%LPC*%
G36*
X2592862Y-758621D02*
X2591169Y-758621D01*
X2591169Y-760737D01*
X2593003Y-760737D01*
X2593426Y-760596D01*
X2593708Y-760314D01*
X2593849Y-759608D01*
X2593849Y-759467D01*
X2593708Y-759044D01*
X2593426Y-758762D01*
X2592862Y-758621D01*
X2592862Y-758621D02*
G37*
G36*
X2536000Y-770191D02*
X2535576Y-770191D01*
X2535012Y-770332D01*
X2534448Y-770614D01*
X2533742Y-771037D01*
X2532896Y-771602D01*
X2532049Y-772307D01*
X2531203Y-773436D01*
X2522313Y-785993D01*
X2549263Y-828746D01*
X2549404Y-828887D01*
X2549686Y-829310D01*
X2550110Y-830016D01*
X2550674Y-830580D01*
X2551379Y-831286D01*
X2552226Y-831991D01*
X2552931Y-832414D01*
X2553778Y-832555D01*
X2554201Y-832555D01*
X2554766Y-832414D01*
X2555330Y-832132D01*
X2556035Y-831850D01*
X2556882Y-831427D01*
X2557729Y-830721D01*
X2558434Y-829734D01*
X2567888Y-816188D01*
X2540797Y-773577D01*
X2540656Y-773436D01*
X2540374Y-773013D01*
X2539951Y-772448D01*
X2539386Y-771884D01*
X2538681Y-771319D01*
X2537834Y-770755D01*
X2536987Y-770332D01*
X2536000Y-770191D01*
X2536000Y-770191D02*
G37*
G36*
X2687679Y-873756D02*
X2673993Y-873756D01*
X2673993Y-882504D01*
X2688526Y-882504D01*
X2688808Y-882363D01*
X2689231Y-882081D01*
X2689655Y-881657D01*
X2690078Y-880952D01*
X2690219Y-880105D01*
X2690360Y-878976D01*
X2690360Y-877566D01*
X2690360Y-877424D01*
X2690360Y-877001D01*
X2690219Y-876296D01*
X2690078Y-875590D01*
X2689655Y-875026D01*
X2689231Y-874320D01*
X2688526Y-873897D01*
X2687679Y-873756D01*
X2687679Y-873756D02*
G37*
G36*
X2532613Y-873756D02*
X2520056Y-873756D01*
X2520056Y-882363D01*
X2533742Y-882363D01*
X2534165Y-882222D01*
X2534730Y-881939D01*
X2535294Y-881516D01*
X2535718Y-880811D01*
X2536000Y-879964D01*
X2536141Y-878694D01*
X2536141Y-877566D01*
X2536141Y-877424D01*
X2536141Y-877001D01*
X2536000Y-876296D01*
X2535718Y-875590D01*
X2535294Y-875026D01*
X2534589Y-874320D01*
X2533742Y-873897D01*
X2532613Y-873756D01*
X2532613Y-873756D02*
G37*
G36*
X2568593Y-873756D02*
X2558999Y-873756D01*
X2558152Y-873897D01*
X2557023Y-874461D01*
X2556459Y-874743D01*
X2556035Y-875308D01*
X2555894Y-875590D01*
X2555753Y-876013D01*
X2555471Y-876578D01*
X2555330Y-877283D01*
X2555048Y-878271D01*
X2554907Y-879400D01*
X2554907Y-880811D01*
X2554907Y-884620D01*
X2554907Y-884761D01*
X2554907Y-885326D01*
X2554907Y-885890D01*
X2555048Y-886737D01*
X2555189Y-888571D01*
X2555330Y-889418D01*
X2555612Y-890123D01*
X2555753Y-890405D01*
X2556318Y-890829D01*
X2557305Y-891252D01*
X2558011Y-891534D01*
X2568311Y-891534D01*
X2568875Y-891393D01*
X2569581Y-891111D01*
X2570428Y-890687D01*
X2571274Y-889841D01*
X2571979Y-888571D01*
X2572262Y-887866D01*
X2572544Y-886878D01*
X2572685Y-885890D01*
X2572685Y-884620D01*
X2572685Y-880811D01*
X2572685Y-880670D01*
X2572685Y-880105D01*
X2572685Y-879541D01*
X2572544Y-878694D01*
X2572121Y-876860D01*
X2571697Y-876013D01*
X2571274Y-875308D01*
X2571274Y-875167D01*
X2570992Y-875026D01*
X2570286Y-874461D01*
X2569299Y-874038D01*
X2568593Y-873756D01*
X2568593Y-873756D02*
G37*
%LPD*%
D11*
X2720000Y-815000D02*
X3538200Y-815000D01*
X3219250Y-770000D02*
X3219250Y-740000D01*
X3538200Y-770000D02*
X3538200Y-770000D01*
X3219250Y-770000D02*
X3538200Y-770000D01*
X3477000Y-966000D02*
X3477000Y-960000D01*
X3501600Y-986350D02*
X3501600Y-973650D01*
X3476200Y-986350D02*
X3476200Y-973650D01*
X3450800Y-986350D02*
X3450800Y-973650D01*
X3527000Y-986350D02*
X3527000Y-973650D01*
X3425400Y-986350D02*
X3425400Y-973650D01*
X3425400Y-980000D02*
X3527000Y-980000D01*
X3527000Y-968000D02*
X3527000Y-958000D01*
X3427000Y-968000D02*
X3427000Y-958000D01*
X3427000Y-963000D02*
X3527000Y-963000D01*
X3392333Y-976001D02*
X3389000Y-980667D01*
X3393999Y-980667D01*
X3392333Y-976001D02*
X3392333Y-983000D01*
X3397232Y-976001D02*
X3396232Y-976335D01*
X3395565Y-977334D01*
X3395232Y-979001D01*
X3395232Y-980001D01*
X3395565Y-981667D01*
X3396232Y-982667D01*
X3397232Y-983000D01*
X3397898Y-983000D01*
X3398898Y-982667D01*
X3399565Y-981667D01*
X3399898Y-980001D01*
X3399898Y-979001D01*
X3399565Y-977334D01*
X3398898Y-976335D01*
X3397898Y-976001D01*
X3397232Y-976001D01*
X3403464Y-976001D02*
X3402464Y-976335D01*
X3401797Y-977334D01*
X3401464Y-979001D01*
X3401464Y-980001D01*
X3401797Y-981667D01*
X3402464Y-982667D01*
X3403464Y-983000D01*
X3404130Y-983000D01*
X3405130Y-982667D01*
X3405797Y-981667D01*
X3406130Y-980001D01*
X3406130Y-979001D01*
X3405797Y-977334D01*
X3405130Y-976335D01*
X3404130Y-976001D01*
X3403464Y-976001D01*
X3407696Y-978334D02*
X3407696Y-983000D01*
X3407696Y-979667D02*
X3408696Y-978668D01*
X3409362Y-978334D01*
X3410362Y-978334D01*
X3411029Y-978668D01*
X3411362Y-979667D01*
X3411362Y-983000D01*
X3411362Y-979667D02*
X3412362Y-978668D01*
X3413028Y-978334D01*
X3414028Y-978334D01*
X3414695Y-978668D01*
X3415028Y-979667D01*
X3415028Y-983000D01*
X3417894Y-976001D02*
X3418227Y-976335D01*
X3418560Y-976001D01*
X3418227Y-975668D01*
X3417894Y-976001D01*
X3418227Y-978334D02*
X3418227Y-983000D01*
X3419794Y-976001D02*
X3419794Y-983000D01*
X3390000Y-960334D02*
X3390667Y-960001D01*
X3391666Y-959001D01*
X3391666Y-966000D01*
X3397132Y-959001D02*
X3396132Y-959335D01*
X3395466Y-960334D01*
X3395132Y-962001D01*
X3395132Y-963000D01*
X3395466Y-964667D01*
X3396132Y-965667D01*
X3397132Y-966000D01*
X3397798Y-966000D01*
X3398798Y-965667D01*
X3399465Y-964667D01*
X3399798Y-963000D01*
X3399798Y-962001D01*
X3399465Y-960334D01*
X3398798Y-959335D01*
X3397798Y-959001D01*
X3397132Y-959001D01*
X3401364Y-961334D02*
X3401364Y-966000D01*
X3401364Y-962667D02*
X3402364Y-961667D01*
X3403031Y-961334D01*
X3404030Y-961334D01*
X3404697Y-961667D01*
X3405030Y-962667D01*
X3405030Y-966000D01*
X3405030Y-962667D02*
X3406030Y-961667D01*
X3406696Y-961334D01*
X3407697Y-961334D01*
X3408363Y-961667D01*
X3408696Y-962667D01*
X3408696Y-966000D01*
X3410896Y-961334D02*
X3410896Y-966000D01*
X3410896Y-962667D02*
X3411895Y-961667D01*
X3412562Y-961334D01*
X3413562Y-961334D01*
X3414228Y-961667D01*
X3414561Y-962667D01*
X3414561Y-966000D01*
X3414561Y-962667D02*
X3415561Y-961667D01*
X3416228Y-961334D01*
X3417228Y-961334D01*
X3417894Y-961667D01*
X3418228Y-962667D01*
X3418228Y-966000D01*
X3347856Y-750002D02*
X3346428Y-750478D01*
X3345476Y-751907D01*
X3345000Y-754287D01*
X3345000Y-755715D01*
X3345476Y-758096D01*
X3346428Y-759524D01*
X3347856Y-760000D01*
X3348809Y-760000D01*
X3350237Y-759524D01*
X3351189Y-758096D01*
X3351665Y-755715D01*
X3351665Y-754287D01*
X3351189Y-751907D01*
X3350237Y-750478D01*
X3348809Y-750002D01*
X3347856Y-750002D01*
X3358664Y-750002D02*
X3353903Y-756667D01*
X3361044Y-756667D01*
X3358664Y-750002D02*
X3358664Y-760000D01*
X3362806Y-755715D02*
X3371375Y-755715D01*
X3374327Y-751907D02*
X3375279Y-751430D01*
X3376707Y-750002D01*
X3376707Y-760000D01*
X3382135Y-752383D02*
X3382135Y-751907D01*
X3382611Y-750954D01*
X3383087Y-750478D01*
X3384039Y-750002D01*
X3385944Y-750002D01*
X3386896Y-750478D01*
X3387372Y-750954D01*
X3387848Y-751907D01*
X3387848Y-752859D01*
X3387372Y-753811D01*
X3386420Y-755239D01*
X3381659Y-760000D01*
X3388324Y-760000D01*
X3390562Y-751907D02*
X3391514Y-751430D01*
X3392942Y-750002D01*
X3392942Y-760000D01*
X3403607Y-751430D02*
X3403130Y-750478D01*
X3401702Y-750002D01*
X3400750Y-750002D01*
X3399322Y-750478D01*
X3398369Y-751907D01*
X3397893Y-754287D01*
X3397893Y-756667D01*
X3398369Y-758572D01*
X3399322Y-759524D01*
X3400750Y-760000D01*
X3401226Y-760000D01*
X3402654Y-759524D01*
X3403607Y-758572D01*
X3404083Y-757143D01*
X3404083Y-756667D01*
X3403607Y-755239D01*
X3402654Y-754287D01*
X3401226Y-753811D01*
X3400750Y-753811D01*
X3399322Y-754287D01*
X3398369Y-755239D01*
X3397893Y-756667D01*
X3412462Y-753335D02*
X3411985Y-754763D01*
X3411034Y-755715D01*
X3409605Y-756191D01*
X3409129Y-756191D01*
X3407701Y-755715D01*
X3406749Y-754763D01*
X3406273Y-753335D01*
X3406273Y-752859D01*
X3406749Y-751430D01*
X3407701Y-750478D01*
X3409129Y-750002D01*
X3409605Y-750002D01*
X3411034Y-750478D01*
X3411985Y-751430D01*
X3412462Y-753335D01*
X3412462Y-755715D01*
X3411985Y-758096D01*
X3411034Y-759524D01*
X3409605Y-760000D01*
X3408653Y-760000D01*
X3407225Y-759524D01*
X3406749Y-758572D01*
X3230000Y-755239D02*
X3234285Y-755239D01*
X3235713Y-754763D01*
X3236189Y-754287D01*
X3236665Y-753335D01*
X3236665Y-751907D01*
X3236189Y-750954D01*
X3235713Y-750478D01*
X3234285Y-750002D01*
X3230000Y-750002D01*
X3230000Y-760000D01*
X3246520Y-760000D02*
X3242711Y-750002D01*
X3238903Y-760000D01*
X3240331Y-756667D02*
X3245092Y-756667D01*
X3248853Y-750002D02*
X3248853Y-760000D01*
X3248853Y-750002D02*
X3253138Y-750002D01*
X3254566Y-750478D01*
X3255042Y-750954D01*
X3255518Y-751907D01*
X3255518Y-752859D01*
X3255042Y-753811D01*
X3254566Y-754287D01*
X3253138Y-754763D01*
X3248853Y-754763D01*
X3252186Y-754763D02*
X3255518Y-760000D01*
X3261089Y-750002D02*
X3261089Y-760000D01*
X3257756Y-750002D02*
X3264421Y-750002D01*
X3273467Y-750002D02*
X3273467Y-760000D01*
X3273467Y-750002D02*
X3280132Y-760000D01*
X3280132Y-750002D02*
X3280132Y-760000D01*
X3282893Y-750002D02*
X3282893Y-757143D01*
X3283369Y-758572D01*
X3284322Y-759524D01*
X3285750Y-760000D01*
X3286702Y-760000D01*
X3288130Y-759524D01*
X3289083Y-758572D01*
X3289559Y-757143D01*
X3289559Y-750002D01*
X3292320Y-750002D02*
X3292320Y-760000D01*
X3292320Y-750002D02*
X3296129Y-760000D01*
X3299937Y-750002D02*
X3296129Y-760000D01*
X3299937Y-750002D02*
X3299937Y-760000D01*
X3302794Y-750002D02*
X3302794Y-760000D01*
X3302794Y-750002D02*
X3307079Y-750002D01*
X3308507Y-750478D01*
X3308983Y-750954D01*
X3309459Y-751907D01*
X3309459Y-752859D01*
X3308983Y-753811D01*
X3308507Y-754287D01*
X3307079Y-754763D01*
X3302794Y-754763D02*
X3307079Y-754763D01*
X3308507Y-755239D01*
X3308983Y-755715D01*
X3309459Y-756667D01*
X3309459Y-758096D01*
X3308983Y-759048D01*
X3308507Y-759524D01*
X3307079Y-760000D01*
X3302794Y-760000D01*
X3317886Y-750002D02*
X3311697Y-750002D01*
X3311697Y-760000D01*
X3317886Y-760000D01*
X3311697Y-754763D02*
X3315505Y-754763D01*
X3319552Y-750002D02*
X3319552Y-760000D01*
X3319552Y-750002D02*
X3323837Y-750002D01*
X3325265Y-750478D01*
X3325741Y-750954D01*
X3326218Y-751907D01*
X3326218Y-752859D01*
X3325741Y-753811D01*
X3325265Y-754287D01*
X3323837Y-754763D01*
X3319552Y-754763D01*
X3322885Y-754763D02*
X3326218Y-760000D01*
X3328931Y-753335D02*
X3328455Y-753811D01*
X3328931Y-754287D01*
X3329407Y-753811D01*
X3328931Y-753335D01*
X3328931Y-759048D02*
X3328455Y-759524D01*
X3328931Y-760000D01*
X3329407Y-759524D01*
X3328931Y-759048D01*
D17*
X2430000Y1225000D02*
X2430000Y1270000D01*
X3340000Y1225000D02*
X3340000Y1270000D01*
X2320000Y1225000D02*
X3535000Y1225000D01*
X2320000Y1225000D02*
X2320000Y1270000D01*
X3340000Y1270000D02*
X3340000Y1315000D01*
X2555000Y1270000D02*
X2555000Y1315000D01*
X2430000Y1270000D02*
X2430000Y1315000D01*
X2320000Y1270000D02*
X3535000Y1270000D01*
X2320000Y1270000D02*
X2320000Y1315000D01*
X2555000Y1225000D02*
X2555000Y1270000D01*
X3390000Y1295235D02*
X3390000Y1280000D01*
X3397618Y1280000D01*
X3400157Y1282539D01*
X3400157Y1292696D01*
X3397618Y1295235D01*
X3390000Y1295235D01*
X3407774Y1290157D02*
X3412853Y1290157D01*
X3415392Y1287618D01*
X3415392Y1280000D01*
X3407774Y1280000D01*
X3405235Y1282539D01*
X3407774Y1285078D01*
X3415392Y1285078D01*
X3423010Y1292696D02*
X3423010Y1290157D01*
X3420470Y1290157D01*
X3425549Y1290157D01*
X3423010Y1290157D01*
X3423010Y1282539D01*
X3425549Y1280000D01*
X3440784Y1280000D02*
X3435705Y1280000D01*
X3433166Y1282539D01*
X3433166Y1287618D01*
X3435705Y1290157D01*
X3440784Y1290157D01*
X3443323Y1287618D01*
X3443323Y1285078D01*
X3433166Y1285078D01*
X2920157Y1292696D02*
X2917618Y1295235D01*
X2912539Y1295235D01*
X2910000Y1292696D01*
X2910000Y1282539D01*
X2912539Y1280000D01*
X2917618Y1280000D01*
X2920157Y1282539D01*
X2927774Y1280000D02*
X2932853Y1280000D01*
X2935392Y1282539D01*
X2935392Y1287618D01*
X2932853Y1290157D01*
X2927774Y1290157D01*
X2925235Y1287618D01*
X2925235Y1282539D01*
X2927774Y1280000D01*
X2940470Y1280000D02*
X2940470Y1290157D01*
X2943010Y1290157D01*
X2945549Y1287618D01*
X2945549Y1280000D01*
X2945549Y1287618D01*
X2948088Y1290157D01*
X2950627Y1287618D01*
X2950627Y1280000D01*
X2955705Y1280000D02*
X2955705Y1290157D01*
X2958245Y1290157D01*
X2960784Y1287618D01*
X2960784Y1280000D01*
X2960784Y1287618D01*
X2963323Y1290157D01*
X2965862Y1287618D01*
X2965862Y1280000D01*
X2978558Y1280000D02*
X2973480Y1280000D01*
X2970941Y1282539D01*
X2970941Y1287618D01*
X2973480Y1290157D01*
X2978558Y1290157D01*
X2981097Y1287618D01*
X2981097Y1285078D01*
X2970941Y1285078D01*
X2986176Y1280000D02*
X2986176Y1290157D01*
X2993793Y1290157D01*
X2996332Y1287618D01*
X2996332Y1280000D01*
X3003950Y1292696D02*
X3003950Y1290157D01*
X3001411Y1290157D01*
X3006489Y1290157D01*
X3003950Y1290157D01*
X3003950Y1282539D01*
X3006489Y1280000D01*
X3014106Y1280000D02*
X3021724Y1280000D01*
X3024263Y1282539D01*
X3021724Y1285078D01*
X3016646Y1285078D01*
X3014106Y1287618D01*
X3016646Y1290157D01*
X3024263Y1290157D01*
X2455157Y1300235D02*
X2445000Y1300235D01*
X2445000Y1285000D01*
X2455157Y1285000D01*
X2445000Y1292618D02*
X2450078Y1292618D01*
X2470392Y1297696D02*
X2467853Y1300235D01*
X2462774Y1300235D01*
X2460235Y1297696D01*
X2460235Y1287539D01*
X2462774Y1285000D01*
X2467853Y1285000D01*
X2470392Y1287539D01*
X2483088Y1300235D02*
X2478009Y1300235D01*
X2475470Y1297696D01*
X2475470Y1287539D01*
X2478009Y1285000D01*
X2483088Y1285000D01*
X2485627Y1287539D01*
X2485627Y1297696D01*
X2483088Y1300235D01*
X2345000Y1285000D02*
X2345000Y1300235D01*
X2352618Y1300235D01*
X2355157Y1297696D01*
X2355157Y1292618D01*
X2352618Y1290078D01*
X2345000Y1290078D01*
X2350078Y1290078D02*
X2355157Y1285000D01*
X2370392Y1300235D02*
X2360235Y1300235D01*
X2360235Y1285000D01*
X2370392Y1285000D01*
X2360235Y1292618D02*
X2365314Y1292618D01*
X2375470Y1300235D02*
X2375470Y1290078D01*
X2380549Y1285000D01*
X2385627Y1290078D01*
X2385627Y1300235D01*
D19*
X3009999Y-972503D02*
X3009999Y-987500D01*
X3005000Y-972503D02*
X3014998Y-972503D01*
X3020354Y-977502D02*
X3018926Y-978216D01*
X3017497Y-979644D01*
X3016783Y-981787D01*
X3016783Y-983215D01*
X3017497Y-985358D01*
X3018926Y-986786D01*
X3020354Y-987500D01*
X3022496Y-987500D01*
X3023925Y-986786D01*
X3025353Y-985358D01*
X3026067Y-983215D01*
X3026067Y-981787D01*
X3025353Y-979644D01*
X3023925Y-978216D01*
X3022496Y-977502D01*
X3020354Y-977502D01*
X3029352Y-977502D02*
X3029352Y-992499D01*
X3029352Y-979644D02*
X3030780Y-978216D01*
X3032209Y-977502D01*
X3034351Y-977502D01*
X3035779Y-978216D01*
X3037208Y-979644D01*
X3037921Y-981787D01*
X3037921Y-983215D01*
X3037208Y-985358D01*
X3035779Y-986786D01*
X3034351Y-987500D01*
X3032209Y-987500D01*
X3030780Y-986786D01*
X3029352Y-985358D01*
X3062916Y-974645D02*
X3061488Y-973217D01*
X3059346Y-972503D01*
X3056489Y-972503D01*
X3054347Y-973217D01*
X3052918Y-974645D01*
X3052918Y-976074D01*
X3053633Y-977502D01*
X3054347Y-978216D01*
X3055775Y-978930D01*
X3060060Y-980359D01*
X3061488Y-981073D01*
X3062202Y-981787D01*
X3062916Y-983215D01*
X3062916Y-985358D01*
X3061488Y-986786D01*
X3059346Y-987500D01*
X3056489Y-987500D01*
X3054347Y-986786D01*
X3052918Y-985358D01*
X3069843Y-977502D02*
X3068415Y-978216D01*
X3066987Y-979644D01*
X3066273Y-981787D01*
X3066273Y-983215D01*
X3066987Y-985358D01*
X3068415Y-986786D01*
X3069843Y-987500D01*
X3071986Y-987500D01*
X3073414Y-986786D01*
X3074842Y-985358D01*
X3075556Y-983215D01*
X3075556Y-981787D01*
X3074842Y-979644D01*
X3073414Y-978216D01*
X3071986Y-977502D01*
X3069843Y-977502D01*
X3078841Y-972503D02*
X3078841Y-987500D01*
X3090553Y-972503D02*
X3090553Y-987500D01*
X3090553Y-979644D02*
X3089125Y-978216D01*
X3087697Y-977502D01*
X3085554Y-977502D01*
X3084126Y-978216D01*
X3082698Y-979644D01*
X3081984Y-981787D01*
X3081984Y-983215D01*
X3082698Y-985358D01*
X3084126Y-986786D01*
X3085554Y-987500D01*
X3087697Y-987500D01*
X3089125Y-986786D01*
X3090553Y-985358D01*
X3094552Y-981787D02*
X3103122Y-981787D01*
X3103122Y-980359D01*
X3102408Y-978930D01*
X3101694Y-978216D01*
X3100266Y-977502D01*
X3098123Y-977502D01*
X3096695Y-978216D01*
X3095266Y-979644D01*
X3094552Y-981787D01*
X3094552Y-983215D01*
X3095266Y-985358D01*
X3096695Y-986786D01*
X3098123Y-987500D01*
X3100266Y-987500D01*
X3101694Y-986786D01*
X3103122Y-985358D01*
X3106335Y-977502D02*
X3106335Y-987500D01*
X3106335Y-981787D02*
X3107050Y-979644D01*
X3108478Y-978216D01*
X3109906Y-977502D01*
X3112049Y-977502D01*
X3406284Y-930002D02*
X3405570Y-932144D01*
X3404142Y-933573D01*
X3401999Y-934287D01*
X3401285Y-934287D01*
X3399142Y-933573D01*
X3397714Y-932144D01*
X3397000Y-930002D01*
X3397000Y-929288D01*
X3397714Y-927145D01*
X3399142Y-925717D01*
X3401285Y-925003D01*
X3401999Y-925003D01*
X3404142Y-925717D01*
X3405570Y-927145D01*
X3406284Y-930002D01*
X3406284Y-933573D01*
X3405570Y-937143D01*
X3404142Y-939286D01*
X3401999Y-940000D01*
X3400571Y-940000D01*
X3398428Y-939286D01*
X3397714Y-937858D01*
X3410354Y-942142D02*
X3420352Y-925003D01*
X3421352Y-927860D02*
X3422780Y-927145D01*
X3424923Y-925003D01*
X3424923Y-940000D01*
X3433064Y-928574D02*
X3433064Y-927860D01*
X3433778Y-926431D01*
X3434492Y-925717D01*
X3435920Y-925003D01*
X3438777Y-925003D01*
X3440205Y-925717D01*
X3440919Y-926431D01*
X3441633Y-927860D01*
X3441633Y-929288D01*
X3440919Y-930716D01*
X3439491Y-932859D01*
X3432350Y-940000D01*
X3442347Y-940000D01*
X3445704Y-942142D02*
X3455702Y-925003D01*
X3457416Y-928574D02*
X3457416Y-927860D01*
X3458130Y-926431D01*
X3458844Y-925717D01*
X3460272Y-925003D01*
X3463129Y-925003D01*
X3464557Y-925717D01*
X3465271Y-926431D01*
X3465985Y-927860D01*
X3465985Y-929288D01*
X3465271Y-930716D01*
X3463843Y-932859D01*
X3456702Y-940000D01*
X3466700Y-940000D01*
X3474341Y-925003D02*
X3472198Y-925717D01*
X3470770Y-927860D01*
X3470056Y-931430D01*
X3470056Y-933573D01*
X3470770Y-937143D01*
X3472198Y-939286D01*
X3474341Y-940000D01*
X3475769Y-940000D01*
X3477911Y-939286D01*
X3479340Y-937143D01*
X3480054Y-933573D01*
X3480054Y-931430D01*
X3479340Y-927860D01*
X3477911Y-925717D01*
X3475769Y-925003D01*
X3474341Y-925003D01*
X3484124Y-928574D02*
X3484124Y-927860D01*
X3484838Y-926431D01*
X3485552Y-925717D01*
X3486981Y-925003D01*
X3489837Y-925003D01*
X3491266Y-925717D01*
X3491980Y-926431D01*
X3492694Y-927860D01*
X3492694Y-929288D01*
X3491980Y-930716D01*
X3490551Y-932859D01*
X3483410Y-940000D01*
X3493408Y-940000D01*
X3503906Y-925003D02*
X3496765Y-935001D01*
X3507477Y-935001D01*
X3503906Y-925003D02*
X3503906Y-940000D01*
D22*
X2720000Y-994200D02*
X2720000Y-740000D01*
X2380000Y-994200D02*
X2380000Y-740000D01*
X3538200Y-740000D01*
X2954000Y1317200D02*
X2954000Y1368000D01*
X2319000Y1317200D02*
X2319000Y1368000D01*
X1684000Y1317200D02*
X1684000Y1368000D01*
X1049000Y1317200D02*
X1049000Y1368000D01*
X-170200Y1317200D02*
X3538200Y1317200D01*
X-221000Y1368000D02*
X3589000Y1368000D01*
X414000Y1317200D02*
X414000Y1368000D01*
X3538200Y-994200D02*
X3538200Y1317200D01*
X3589000Y-1045000D02*
X3589000Y1368000D01*
X3538200Y764750D02*
X3589000Y764750D01*
X3538200Y161500D02*
X3589000Y161500D01*
X3538200Y-441750D02*
X3589000Y-441750D01*
X2954000Y-1045000D02*
X2954000Y-994200D01*
X2319000Y-1045000D02*
X2319000Y-994200D01*
X1684000Y-1045000D02*
X1684000Y-994200D01*
X1049000Y-1045000D02*
X1049000Y-994200D01*
X3538200Y-994200D02*
X3538200Y-689400D01*
X-221000Y-1045000D02*
X-221000Y1368000D01*
X-221000Y-1045000D02*
X3589000Y-1045000D01*
X-170200Y-994200D02*
X-170200Y1317200D01*
X-170200Y-994200D02*
X3538200Y-994200D01*
X-221000Y764750D02*
X-170200Y764750D01*
X-221000Y161500D02*
X-170200Y161500D01*
X-221000Y-441750D02*
X-170200Y-441750D01*
X414000Y-1045000D02*
X414000Y-994200D01*
X2039600Y-994200D02*
X2395200Y-994200D01*
X2720000Y-950000D02*
X3538200Y-950000D01*
X2720000Y-890000D02*
X3538200Y-890000D01*
X3385000Y-994200D02*
X3385000Y-890000D01*
X3000000Y-994200D02*
X3000000Y-830000D01*
X2720000Y-830000D02*
X3538200Y-830000D01*
X3180000Y-950000D02*
X3180000Y-890000D01*
X3310000Y-994200D02*
X3310000Y-950000D01*
X3018163Y-841293D02*
X3017618Y-840205D01*
X3016530Y-839117D01*
X3015442Y-838572D01*
X3013265Y-838572D01*
X3012177Y-839117D01*
X3011089Y-840205D01*
X3010544Y-841293D01*
X3010000Y-842926D01*
X3010000Y-845647D01*
X3010544Y-847279D01*
X3011089Y-848367D01*
X3012177Y-849456D01*
X3013265Y-850000D01*
X3015442Y-850000D01*
X3016530Y-849456D01*
X3017618Y-848367D01*
X3018163Y-847279D01*
X3018163Y-845647D01*
X3015442Y-845647D02*
X3018163Y-845647D01*
X3027849Y-838572D02*
X3020775Y-838572D01*
X3020775Y-850000D01*
X3027849Y-850000D01*
X3020775Y-844014D02*
X3025128Y-844014D01*
X3029753Y-838572D02*
X3029753Y-850000D01*
X3029753Y-838572D02*
X3034651Y-838572D01*
X3036284Y-839117D01*
X3036828Y-839661D01*
X3037372Y-840749D01*
X3037372Y-841837D01*
X3036828Y-842926D01*
X3036284Y-843470D01*
X3034651Y-844014D01*
X3029753Y-844014D01*
X3033563Y-844014D02*
X3037372Y-850000D01*
X3039930Y-838572D02*
X3039930Y-850000D01*
X3039930Y-838572D02*
X3044827Y-838572D01*
X3046459Y-839117D01*
X3047003Y-839661D01*
X3047548Y-840749D01*
X3047548Y-841837D01*
X3047003Y-842926D01*
X3046459Y-843470D01*
X3044827Y-844014D01*
X3039930Y-844014D02*
X3044827Y-844014D01*
X3046459Y-844558D01*
X3047003Y-845102D01*
X3047548Y-846191D01*
X3047548Y-847823D01*
X3047003Y-848912D01*
X3046459Y-849456D01*
X3044827Y-850000D01*
X3039930Y-850000D01*
X3057180Y-838572D02*
X3050105Y-838572D01*
X3050105Y-850000D01*
X3057180Y-850000D01*
X3050105Y-844014D02*
X3054459Y-844014D01*
X3059084Y-838572D02*
X3059084Y-850000D01*
X3059084Y-838572D02*
X3063982Y-838572D01*
X3065614Y-839117D01*
X3066158Y-839661D01*
X3066703Y-840749D01*
X3066703Y-841837D01*
X3066158Y-842926D01*
X3065614Y-843470D01*
X3063982Y-844014D01*
X3059084Y-844014D01*
X3062893Y-844014D02*
X3066703Y-850000D01*
X3078239Y-838572D02*
X3078239Y-850000D01*
X3078239Y-838572D02*
X3085313Y-838572D01*
X3078239Y-844014D02*
X3082592Y-844014D01*
X3086619Y-838572D02*
X3086619Y-850000D01*
X3089013Y-838572D02*
X3089013Y-850000D01*
X3095544Y-850000D01*
X3103869Y-838572D02*
X3096795Y-838572D01*
X3096795Y-850000D01*
X3103869Y-850000D01*
X3096795Y-844014D02*
X3101148Y-844014D01*
X3106318Y-842382D02*
X3105774Y-842926D01*
X3106318Y-843470D01*
X3106862Y-842926D01*
X3106318Y-842382D01*
X3106318Y-848912D02*
X3105774Y-849456D01*
X3106318Y-850000D01*
X3106862Y-849456D01*
X3106318Y-848912D01*
X2737618Y-977705D02*
X2736530Y-976617D01*
X2734898Y-976072D01*
X2732721Y-976072D01*
X2731089Y-976617D01*
X2730000Y-977705D01*
X2730000Y-978793D01*
X2730544Y-979882D01*
X2731089Y-980426D01*
X2732177Y-980970D01*
X2735442Y-982058D01*
X2736530Y-982602D01*
X2737074Y-983147D01*
X2737618Y-984235D01*
X2737618Y-985867D01*
X2736530Y-986956D01*
X2734898Y-987500D01*
X2732721Y-987500D01*
X2731089Y-986956D01*
X2730000Y-985867D01*
X2748883Y-987500D02*
X2744529Y-976072D01*
X2740176Y-987500D01*
X2741808Y-983691D02*
X2747250Y-983691D01*
X2751549Y-976072D02*
X2751549Y-987500D01*
X2751549Y-976072D02*
X2755903Y-987500D01*
X2760256Y-976072D02*
X2755903Y-987500D01*
X2760256Y-976072D02*
X2760256Y-987500D01*
X2772228Y-987500D02*
X2767874Y-976072D01*
X2763521Y-987500D01*
X2765154Y-983691D02*
X2770595Y-983691D01*
X2782513Y-976072D02*
X2777071Y-987500D01*
X2774894Y-976072D02*
X2782513Y-976072D01*
X2785070Y-976072D02*
X2785070Y-987500D01*
X2785070Y-976072D02*
X2788879Y-976072D01*
X2790512Y-976617D01*
X2791600Y-977705D01*
X2792144Y-978793D01*
X2792688Y-980426D01*
X2792688Y-983147D01*
X2792144Y-984779D01*
X2791600Y-985867D01*
X2790512Y-986956D01*
X2788879Y-987500D01*
X2785070Y-987500D01*
X2801776Y-977705D02*
X2801232Y-976617D01*
X2799599Y-976072D01*
X2798511Y-976072D01*
X2796878Y-976617D01*
X2795790Y-978249D01*
X2795246Y-980970D01*
X2795246Y-983691D01*
X2795790Y-985867D01*
X2796878Y-986956D01*
X2798511Y-987500D01*
X2799055Y-987500D01*
X2800688Y-986956D01*
X2801776Y-985867D01*
X2802320Y-984235D01*
X2802320Y-983691D01*
X2801776Y-982058D01*
X2800688Y-980970D01*
X2799055Y-980426D01*
X2798511Y-980426D01*
X2796878Y-980970D01*
X2795790Y-982058D01*
X2795246Y-983691D01*
X2811353Y-976072D02*
X2805912Y-976072D01*
X2805367Y-980970D01*
X2805912Y-980426D01*
X2807544Y-979882D01*
X2809177Y-979882D01*
X2810809Y-980426D01*
X2811898Y-981514D01*
X2812442Y-983147D01*
X2812442Y-984235D01*
X2811898Y-985867D01*
X2810809Y-986956D01*
X2809177Y-987500D01*
X2807544Y-987500D01*
X2805912Y-986956D01*
X2805367Y-986412D01*
X2804823Y-985323D01*
X2814999Y-982602D02*
X2824794Y-982602D01*
X2836331Y-978793D02*
X2835787Y-977705D01*
X2834698Y-976617D01*
X2833610Y-976072D01*
X2831433Y-976072D01*
X2830345Y-976617D01*
X2829257Y-977705D01*
X2828712Y-978793D01*
X2828168Y-980426D01*
X2828168Y-983147D01*
X2828712Y-984779D01*
X2829257Y-985867D01*
X2830345Y-986956D01*
X2831433Y-987500D01*
X2833610Y-987500D01*
X2834698Y-986956D01*
X2835787Y-985867D01*
X2836331Y-984779D01*
X2839541Y-979882D02*
X2839541Y-985323D01*
X2840085Y-986956D01*
X2841174Y-987500D01*
X2842806Y-987500D01*
X2843895Y-986956D01*
X2845527Y-985323D01*
X2845527Y-979882D02*
X2845527Y-987500D01*
X2848520Y-979882D02*
X2848520Y-987500D01*
X2848520Y-983147D02*
X2849064Y-981514D01*
X2850153Y-980426D01*
X2851241Y-979882D01*
X2852874Y-979882D01*
X2854996Y-976072D02*
X2855540Y-976617D01*
X2856084Y-976072D01*
X2855540Y-975528D01*
X2854996Y-976072D01*
X2855540Y-979882D02*
X2855540Y-987500D01*
X2860818Y-979882D02*
X2859730Y-980426D01*
X2858642Y-981514D01*
X2858098Y-983147D01*
X2858098Y-984235D01*
X2858642Y-985867D01*
X2859730Y-986956D01*
X2860818Y-987500D01*
X2862451Y-987500D01*
X2863539Y-986956D01*
X2864627Y-985867D01*
X2865172Y-984235D01*
X2865172Y-983147D01*
X2864627Y-981514D01*
X2863539Y-980426D01*
X2862451Y-979882D01*
X2860818Y-979882D01*
X2873661Y-981514D02*
X2873116Y-980426D01*
X2871484Y-979882D01*
X2869851Y-979882D01*
X2868219Y-980426D01*
X2867675Y-981514D01*
X2868219Y-982602D01*
X2869307Y-983147D01*
X2872028Y-983691D01*
X2873116Y-984235D01*
X2873661Y-985323D01*
X2873661Y-985867D01*
X2873116Y-986956D01*
X2871484Y-987500D01*
X2869851Y-987500D01*
X2868219Y-986956D01*
X2867675Y-985867D01*
X2877143Y-976072D02*
X2877688Y-976617D01*
X2878232Y-976072D01*
X2877688Y-975528D01*
X2877143Y-976072D01*
X2877688Y-979882D02*
X2877688Y-987500D01*
X2881878Y-976072D02*
X2881878Y-985323D01*
X2882422Y-986956D01*
X2883510Y-987500D01*
X2884598Y-987500D01*
X2880245Y-979882D02*
X2884054Y-979882D01*
X2886775Y-979882D02*
X2890040Y-987500D01*
X2893305Y-979882D02*
X2890040Y-987500D01*
X2888952Y-989677D01*
X2887863Y-990765D01*
X2886775Y-991309D01*
X2886231Y-991309D01*
X2895754Y-986412D02*
X2895210Y-986956D01*
X2895754Y-987500D01*
X2896298Y-986956D01*
X2895754Y-986412D01*
X2898801Y-982058D02*
X2903699Y-982058D01*
X2905331Y-981514D01*
X2905876Y-980970D01*
X2906420Y-979882D01*
X2906420Y-978249D01*
X2905876Y-977161D01*
X2905331Y-976617D01*
X2903699Y-976072D01*
X2898801Y-976072D01*
X2898801Y-987500D01*
X2915507Y-981514D02*
X2914419Y-980426D01*
X2913331Y-979882D01*
X2911698Y-979882D01*
X2910610Y-980426D01*
X2909521Y-981514D01*
X2908977Y-983147D01*
X2908977Y-984235D01*
X2909521Y-985867D01*
X2910610Y-986956D01*
X2911698Y-987500D01*
X2913331Y-987500D01*
X2914419Y-986956D01*
X2915507Y-985867D01*
X2917956Y-976072D02*
X2917956Y-987500D01*
X2917956Y-981514D02*
X2919044Y-980426D01*
X2920133Y-979882D01*
X2921765Y-979882D01*
X2922854Y-980426D01*
X2923942Y-981514D01*
X2924486Y-983147D01*
X2924486Y-984235D01*
X2923942Y-985867D01*
X2922854Y-986956D01*
X2921765Y-987500D01*
X2920133Y-987500D01*
X2919044Y-986956D01*
X2917956Y-985867D01*
X2926935Y-976072D02*
X2926935Y-987500D01*
X2926935Y-976072D02*
X2930744Y-976072D01*
X2932377Y-976617D01*
X2933465Y-977705D01*
X2934009Y-978793D01*
X2934553Y-980426D01*
X2934553Y-983147D01*
X2934009Y-984779D01*
X2933465Y-985867D01*
X2932377Y-986956D01*
X2930744Y-987500D01*
X2926935Y-987500D01*
X2939832Y-979882D02*
X2938743Y-980426D01*
X2937655Y-981514D01*
X2937111Y-983147D01*
X2937111Y-984235D01*
X2937655Y-985867D01*
X2938743Y-986956D01*
X2939832Y-987500D01*
X2941464Y-987500D01*
X2942552Y-986956D01*
X2943641Y-985867D01*
X2944185Y-984235D01*
X2944185Y-983147D01*
X2943641Y-981514D01*
X2942552Y-980426D01*
X2941464Y-979882D01*
X2939832Y-979882D01*
X2953218Y-981514D02*
X2952130Y-980426D01*
X2951042Y-979882D01*
X2949409Y-979882D01*
X2948321Y-980426D01*
X2947232Y-981514D01*
X2946688Y-983147D01*
X2946688Y-984235D01*
X2947232Y-985867D01*
X2948321Y-986956D01*
X2949409Y-987500D01*
X2951042Y-987500D01*
X2952130Y-986956D01*
X2953218Y-985867D01*
X2737074Y-898572D02*
X2730000Y-898572D01*
X2730000Y-910000D01*
X2737074Y-910000D01*
X2730000Y-904014D02*
X2734354Y-904014D01*
X2738979Y-898572D02*
X2738979Y-910000D01*
X2738979Y-898572D02*
X2746597Y-910000D01*
X2746597Y-898572D02*
X2746597Y-910000D01*
X2757916Y-901293D02*
X2757372Y-900205D01*
X2756284Y-899117D01*
X2755195Y-898572D01*
X2753018Y-898572D01*
X2751930Y-899117D01*
X2750842Y-900205D01*
X2750298Y-901293D01*
X2749753Y-902926D01*
X2749753Y-905647D01*
X2750298Y-907279D01*
X2750842Y-908367D01*
X2751930Y-909456D01*
X2753018Y-910000D01*
X2755195Y-910000D01*
X2756284Y-909456D01*
X2757372Y-908367D01*
X2757916Y-907279D01*
X2757916Y-905647D01*
X2755195Y-905647D02*
X2757916Y-905647D01*
X2760528Y-898572D02*
X2760528Y-910000D01*
X2762922Y-898572D02*
X2762922Y-910000D01*
X2762922Y-898572D02*
X2770541Y-910000D01*
X2770541Y-898572D02*
X2770541Y-910000D01*
X2780771Y-898572D02*
X2773697Y-898572D01*
X2773697Y-910000D01*
X2780771Y-910000D01*
X2773697Y-904014D02*
X2778050Y-904014D01*
X2789750Y-898572D02*
X2782676Y-898572D01*
X2782676Y-910000D01*
X2789750Y-910000D01*
X2782676Y-904014D02*
X2787029Y-904014D01*
X2791654Y-898572D02*
X2791654Y-910000D01*
X2791654Y-898572D02*
X2796552Y-898572D01*
X2798185Y-899117D01*
X2798729Y-899661D01*
X2799273Y-900749D01*
X2799273Y-901837D01*
X2798729Y-902926D01*
X2798185Y-903470D01*
X2796552Y-904014D01*
X2791654Y-904014D01*
X2795464Y-904014D02*
X2799273Y-910000D01*
X2802375Y-902382D02*
X2801830Y-902926D01*
X2802375Y-903470D01*
X2802919Y-902926D01*
X2802375Y-902382D01*
X2802375Y-908912D02*
X2801830Y-909456D01*
X2802375Y-910000D01*
X2802919Y-909456D01*
X2802375Y-908912D01*
X2733809Y-753572D02*
X2733809Y-765000D01*
X2730000Y-753572D02*
X2737618Y-753572D01*
X2738979Y-753572D02*
X2738979Y-765000D01*
X2745182Y-753572D02*
X2745182Y-765000D01*
X2741373Y-753572D02*
X2748992Y-753572D01*
X2750352Y-753572D02*
X2750352Y-765000D01*
X2756882Y-765000D01*
X2765208Y-753572D02*
X2758134Y-753572D01*
X2758134Y-765000D01*
X2765208Y-765000D01*
X2758134Y-759014D02*
X2762487Y-759014D01*
X2767657Y-757382D02*
X2767112Y-757926D01*
X2767657Y-758470D01*
X2768201Y-757926D01*
X2767657Y-757382D01*
X2767657Y-763912D02*
X2767112Y-764456D01*
X2767657Y-765000D01*
X2768201Y-764456D01*
X2767657Y-763912D01*
X2730000Y-844558D02*
X2734898Y-844558D01*
X2736530Y-844014D01*
X2737074Y-843470D01*
X2737618Y-842382D01*
X2737618Y-840749D01*
X2737074Y-839661D01*
X2736530Y-839117D01*
X2734898Y-838572D01*
X2730000Y-838572D01*
X2730000Y-850000D01*
X2748339Y-841293D02*
X2747794Y-840205D01*
X2746706Y-839117D01*
X2745618Y-838572D01*
X2743441Y-838572D01*
X2742353Y-839117D01*
X2741264Y-840205D01*
X2740720Y-841293D01*
X2740176Y-842926D01*
X2740176Y-845647D01*
X2740720Y-847279D01*
X2741264Y-848367D01*
X2742353Y-849456D01*
X2743441Y-850000D01*
X2745618Y-850000D01*
X2746706Y-849456D01*
X2747794Y-848367D01*
X2748339Y-847279D01*
X2751549Y-838572D02*
X2751549Y-850000D01*
X2751549Y-838572D02*
X2756447Y-838572D01*
X2758079Y-839117D01*
X2758623Y-839661D01*
X2759167Y-840749D01*
X2759167Y-841837D01*
X2758623Y-842926D01*
X2758079Y-843470D01*
X2756447Y-844014D01*
X2751549Y-844014D02*
X2756447Y-844014D01*
X2758079Y-844558D01*
X2758623Y-845102D01*
X2759167Y-846191D01*
X2759167Y-847823D01*
X2758623Y-848912D01*
X2758079Y-849456D01*
X2756447Y-850000D01*
X2751549Y-850000D01*
X2770704Y-838572D02*
X2770704Y-850000D01*
X2770704Y-838572D02*
X2774513Y-838572D01*
X2776146Y-839117D01*
X2777234Y-840205D01*
X2777778Y-841293D01*
X2778322Y-842926D01*
X2778322Y-845647D01*
X2777778Y-847279D01*
X2777234Y-848367D01*
X2776146Y-849456D01*
X2774513Y-850000D01*
X2770704Y-850000D01*
X2787954Y-838572D02*
X2780880Y-838572D01*
X2780880Y-850000D01*
X2787954Y-850000D01*
X2780880Y-844014D02*
X2785233Y-844014D01*
X2797477Y-840205D02*
X2796389Y-839117D01*
X2794756Y-838572D01*
X2792580Y-838572D01*
X2790947Y-839117D01*
X2789859Y-840205D01*
X2789859Y-841293D01*
X2790403Y-842382D01*
X2790947Y-842926D01*
X2792036Y-843470D01*
X2795300Y-844558D01*
X2796389Y-845102D01*
X2796933Y-845647D01*
X2797477Y-846735D01*
X2797477Y-848367D01*
X2796389Y-849456D01*
X2794756Y-850000D01*
X2792580Y-850000D01*
X2790947Y-849456D01*
X2789859Y-848367D01*
X2800035Y-838572D02*
X2800035Y-850000D01*
X2810592Y-841293D02*
X2810047Y-840205D01*
X2808959Y-839117D01*
X2807871Y-838572D01*
X2805694Y-838572D01*
X2804606Y-839117D01*
X2803517Y-840205D01*
X2802973Y-841293D01*
X2802429Y-842926D01*
X2802429Y-845647D01*
X2802973Y-847279D01*
X2803517Y-848367D01*
X2804606Y-849456D01*
X2805694Y-850000D01*
X2807871Y-850000D01*
X2808959Y-849456D01*
X2810047Y-848367D01*
X2810592Y-847279D01*
X2810592Y-845647D01*
X2807871Y-845647D02*
X2810592Y-845647D01*
X2813204Y-838572D02*
X2813204Y-850000D01*
X2813204Y-838572D02*
X2820822Y-850000D01*
X2820822Y-838572D02*
X2820822Y-850000D01*
X2831052Y-838572D02*
X2823978Y-838572D01*
X2823978Y-850000D01*
X2831052Y-850000D01*
X2823978Y-844014D02*
X2828332Y-844014D01*
X2832957Y-838572D02*
X2832957Y-850000D01*
X2832957Y-838572D02*
X2837854Y-838572D01*
X2839487Y-839117D01*
X2840031Y-839661D01*
X2840575Y-840749D01*
X2840575Y-841837D01*
X2840031Y-842926D01*
X2839487Y-843470D01*
X2837854Y-844014D01*
X2832957Y-844014D01*
X2836766Y-844014D02*
X2840575Y-850000D01*
X2843677Y-842382D02*
X2843133Y-842926D01*
X2843677Y-843470D01*
X2844221Y-842926D01*
X2843677Y-842382D01*
X2843677Y-848912D02*
X2843133Y-849456D01*
X2843677Y-850000D01*
X2844221Y-849456D01*
X2843677Y-848912D01*
X2730000Y-962058D02*
X2734898Y-962058D01*
X2736530Y-961514D01*
X2737074Y-960970D01*
X2737618Y-959882D01*
X2737618Y-958249D01*
X2737074Y-957161D01*
X2736530Y-956617D01*
X2734898Y-956072D01*
X2730000Y-956072D01*
X2730000Y-967500D01*
X2748339Y-958793D02*
X2747794Y-957705D01*
X2746706Y-956617D01*
X2745618Y-956072D01*
X2743441Y-956072D01*
X2742353Y-956617D01*
X2741264Y-957705D01*
X2740720Y-958793D01*
X2740176Y-960426D01*
X2740176Y-963147D01*
X2740720Y-964779D01*
X2741264Y-965867D01*
X2742353Y-966956D01*
X2743441Y-967500D01*
X2745618Y-967500D01*
X2746706Y-966956D01*
X2747794Y-965867D01*
X2748339Y-964779D01*
X2751549Y-956072D02*
X2751549Y-967500D01*
X2751549Y-956072D02*
X2756447Y-956072D01*
X2758079Y-956617D01*
X2758623Y-957161D01*
X2759167Y-958249D01*
X2759167Y-959337D01*
X2758623Y-960426D01*
X2758079Y-960970D01*
X2756447Y-961514D01*
X2751549Y-961514D02*
X2756447Y-961514D01*
X2758079Y-962058D01*
X2758623Y-962602D01*
X2759167Y-963691D01*
X2759167Y-965323D01*
X2758623Y-966412D01*
X2758079Y-966956D01*
X2756447Y-967500D01*
X2751549Y-967500D01*
X2770704Y-956072D02*
X2770704Y-967500D01*
X2770704Y-956072D02*
X2777778Y-956072D01*
X2770704Y-961514D02*
X2775057Y-961514D01*
X2779084Y-956072D02*
X2779084Y-967500D01*
X2781479Y-956072D02*
X2781479Y-967500D01*
X2788008Y-967500D01*
X2796334Y-956072D02*
X2789260Y-956072D01*
X2789260Y-967500D01*
X2796334Y-967500D01*
X2789260Y-961514D02*
X2793614Y-961514D01*
X2807218Y-956072D02*
X2807218Y-967500D01*
X2807218Y-956072D02*
X2814836Y-967500D01*
X2814836Y-956072D02*
X2814836Y-967500D01*
X2826699Y-967500D02*
X2822346Y-956072D01*
X2817992Y-967500D01*
X2819625Y-963691D02*
X2825067Y-963691D01*
X2829366Y-956072D02*
X2829366Y-967500D01*
X2829366Y-956072D02*
X2833719Y-967500D01*
X2838072Y-956072D02*
X2833719Y-967500D01*
X2838072Y-956072D02*
X2838072Y-967500D01*
X2848411Y-956072D02*
X2841337Y-956072D01*
X2841337Y-967500D01*
X2848411Y-967500D01*
X2841337Y-961514D02*
X2845691Y-961514D01*
X2850860Y-959882D02*
X2850316Y-960426D01*
X2850860Y-960970D01*
X2851404Y-960426D01*
X2850860Y-959882D01*
X2850860Y-966412D02*
X2850316Y-966956D01*
X2850860Y-967500D01*
X2851404Y-966956D01*
X2850860Y-966412D01*
X3010000Y-898572D02*
X3010000Y-910000D01*
X3010000Y-898572D02*
X3014898Y-898572D01*
X3016530Y-899117D01*
X3017074Y-899661D01*
X3017618Y-900749D01*
X3017618Y-901837D01*
X3017074Y-902926D01*
X3016530Y-903470D01*
X3014898Y-904014D01*
X3010000Y-904014D02*
X3014898Y-904014D01*
X3016530Y-904558D01*
X3017074Y-905102D01*
X3017618Y-906191D01*
X3017618Y-907823D01*
X3017074Y-908912D01*
X3016530Y-909456D01*
X3014898Y-910000D01*
X3010000Y-910000D01*
X3023441Y-898572D02*
X3022353Y-899117D01*
X3021264Y-900205D01*
X3020720Y-901293D01*
X3020176Y-902926D01*
X3020176Y-905647D01*
X3020720Y-907279D01*
X3021264Y-908367D01*
X3022353Y-909456D01*
X3023441Y-910000D01*
X3025618Y-910000D01*
X3026706Y-909456D01*
X3027794Y-908367D01*
X3028339Y-907279D01*
X3028883Y-905647D01*
X3028883Y-902926D01*
X3028339Y-901293D01*
X3027794Y-900205D01*
X3026706Y-899117D01*
X3025618Y-898572D01*
X3023441Y-898572D01*
X3040256Y-910000D02*
X3035903Y-898572D01*
X3031549Y-910000D01*
X3033182Y-906191D02*
X3038623Y-906191D01*
X3042922Y-898572D02*
X3042922Y-910000D01*
X3042922Y-898572D02*
X3047820Y-898572D01*
X3049453Y-899117D01*
X3049997Y-899661D01*
X3050541Y-900749D01*
X3050541Y-901837D01*
X3049997Y-902926D01*
X3049453Y-903470D01*
X3047820Y-904014D01*
X3042922Y-904014D01*
X3046732Y-904014D02*
X3050541Y-910000D01*
X3053098Y-898572D02*
X3053098Y-910000D01*
X3053098Y-898572D02*
X3056907Y-898572D01*
X3058540Y-899117D01*
X3059628Y-900205D01*
X3060172Y-901293D01*
X3060717Y-902926D01*
X3060717Y-905647D01*
X3060172Y-907279D01*
X3059628Y-908367D01*
X3058540Y-909456D01*
X3056907Y-910000D01*
X3053098Y-910000D01*
X3072253Y-898572D02*
X3072253Y-910000D01*
X3072253Y-898572D02*
X3079872Y-910000D01*
X3079872Y-898572D02*
X3079872Y-910000D01*
X3083028Y-898572D02*
X3083028Y-906735D01*
X3083572Y-908367D01*
X3084660Y-909456D01*
X3086293Y-910000D01*
X3087381Y-910000D01*
X3089013Y-909456D01*
X3090102Y-908367D01*
X3090646Y-906735D01*
X3090646Y-898572D01*
X3093802Y-898572D02*
X3093802Y-910000D01*
X3093802Y-898572D02*
X3098156Y-910000D01*
X3102509Y-898572D02*
X3098156Y-910000D01*
X3102509Y-898572D02*
X3102509Y-910000D01*
X3105774Y-898572D02*
X3105774Y-910000D01*
X3105774Y-898572D02*
X3110671Y-898572D01*
X3112304Y-899117D01*
X3112848Y-899661D01*
X3113392Y-900749D01*
X3113392Y-901837D01*
X3112848Y-902926D01*
X3112304Y-903470D01*
X3110671Y-904014D01*
X3105774Y-904014D02*
X3110671Y-904014D01*
X3112304Y-904558D01*
X3112848Y-905102D01*
X3113392Y-906191D01*
X3113392Y-907823D01*
X3112848Y-908912D01*
X3112304Y-909456D01*
X3110671Y-910000D01*
X3105774Y-910000D01*
X3123024Y-898572D02*
X3115950Y-898572D01*
X3115950Y-910000D01*
X3123024Y-910000D01*
X3115950Y-904014D02*
X3120303Y-904014D01*
X3124929Y-898572D02*
X3124929Y-910000D01*
X3124929Y-898572D02*
X3129826Y-898572D01*
X3131459Y-899117D01*
X3132003Y-899661D01*
X3132547Y-900749D01*
X3132547Y-901837D01*
X3132003Y-902926D01*
X3131459Y-903470D01*
X3129826Y-904014D01*
X3124929Y-904014D01*
X3128738Y-904014D02*
X3132547Y-910000D01*
X3135649Y-902382D02*
X3135105Y-902926D01*
X3135649Y-903470D01*
X3136193Y-902926D01*
X3135649Y-902382D01*
X3135649Y-908912D02*
X3135105Y-909456D01*
X3135649Y-910000D01*
X3136193Y-909456D01*
X3135649Y-908912D01*
X3397000Y-898572D02*
X3397000Y-910000D01*
X3397000Y-898572D02*
X3400809Y-898572D01*
X3402442Y-899117D01*
X3403530Y-900205D01*
X3404074Y-901293D01*
X3404619Y-902926D01*
X3404619Y-905647D01*
X3404074Y-907279D01*
X3403530Y-908367D01*
X3402442Y-909456D01*
X3400809Y-910000D01*
X3397000Y-910000D01*
X3415883Y-910000D02*
X3411530Y-898572D01*
X3407176Y-910000D01*
X3408809Y-906191D02*
X3414250Y-906191D01*
X3422358Y-898572D02*
X3422358Y-910000D01*
X3418549Y-898572D02*
X3426168Y-898572D01*
X3434602Y-898572D02*
X3427528Y-898572D01*
X3427528Y-910000D01*
X3434602Y-910000D01*
X3427528Y-904014D02*
X3431881Y-904014D01*
X3437051Y-902382D02*
X3436507Y-902926D01*
X3437051Y-903470D01*
X3437595Y-902926D01*
X3437051Y-902382D01*
X3437051Y-908912D02*
X3436507Y-909456D01*
X3437051Y-910000D01*
X3437595Y-909456D01*
X3437051Y-908912D01*
X3010000Y-953572D02*
X3010000Y-965000D01*
X3016530Y-965000D01*
X3026489Y-965000D02*
X3022135Y-953572D01*
X3017782Y-965000D01*
X3019414Y-961191D02*
X3024856Y-961191D01*
X3029155Y-953572D02*
X3033508Y-959014D01*
X3033508Y-965000D01*
X3037862Y-953572D02*
X3033508Y-959014D01*
X3046405Y-953572D02*
X3039331Y-953572D01*
X3039331Y-965000D01*
X3046405Y-965000D01*
X3039331Y-959014D02*
X3043684Y-959014D01*
X3048310Y-953572D02*
X3048310Y-965000D01*
X3048310Y-953572D02*
X3053207Y-953572D01*
X3054840Y-954117D01*
X3055384Y-954661D01*
X3055928Y-955749D01*
X3055928Y-956837D01*
X3055384Y-957926D01*
X3054840Y-958470D01*
X3053207Y-959014D01*
X3048310Y-959014D01*
X3052119Y-959014D02*
X3055928Y-965000D01*
X3067464Y-953572D02*
X3067464Y-965000D01*
X3067464Y-953572D02*
X3075083Y-965000D01*
X3075083Y-953572D02*
X3075083Y-965000D01*
X3086945Y-965000D02*
X3082592Y-953572D01*
X3078239Y-965000D01*
X3079872Y-961191D02*
X3085313Y-961191D01*
X3089612Y-953572D02*
X3089612Y-965000D01*
X3089612Y-953572D02*
X3093965Y-965000D01*
X3098319Y-953572D02*
X3093965Y-965000D01*
X3098319Y-953572D02*
X3098319Y-965000D01*
X3108658Y-953572D02*
X3101584Y-953572D01*
X3101584Y-965000D01*
X3108658Y-965000D01*
X3101584Y-959014D02*
X3105937Y-959014D01*
X3111107Y-957382D02*
X3110563Y-957926D01*
X3111107Y-958470D01*
X3111651Y-957926D01*
X3111107Y-957382D01*
X3111107Y-963912D02*
X3110563Y-964456D01*
X3111107Y-965000D01*
X3111651Y-964456D01*
X3111107Y-963912D01*
X3317500Y-956072D02*
X3317500Y-967500D01*
X3317500Y-956072D02*
X3322397Y-956072D01*
X3324030Y-956617D01*
X3324574Y-957161D01*
X3325118Y-958249D01*
X3325118Y-959337D01*
X3324574Y-960426D01*
X3324030Y-960970D01*
X3322397Y-961514D01*
X3317500Y-961514D01*
X3321309Y-961514D02*
X3325118Y-967500D01*
X3334750Y-956072D02*
X3327676Y-956072D01*
X3327676Y-967500D01*
X3334750Y-967500D01*
X3327676Y-961514D02*
X3332029Y-961514D01*
X3336655Y-956072D02*
X3341008Y-967500D01*
X3345362Y-956072D02*
X3341008Y-967500D01*
X3347375Y-959882D02*
X3346831Y-960426D01*
X3347375Y-960970D01*
X3347919Y-960426D01*
X3347375Y-959882D01*
X3347375Y-966412D02*
X3346831Y-966956D01*
X3347375Y-967500D01*
X3347919Y-966956D01*
X3347375Y-966412D01*
D28*
X3368891Y-969253D02*
X3361750Y-979251D01*
X3372462Y-979251D01*
X3368891Y-969253D02*
X3368891Y-984250D01*
X91760Y1349370D02*
X93453Y1350217D01*
X95992Y1352756D01*
X95992Y1334980D01*
X726505Y1348524D02*
X726505Y1349370D01*
X727351Y1351063D01*
X728198Y1351910D01*
X729891Y1352756D01*
X733277Y1352756D01*
X734969Y1351910D01*
X735816Y1351063D01*
X736662Y1349370D01*
X736662Y1347677D01*
X735816Y1345984D01*
X734123Y1343445D01*
X725658Y1334980D01*
X737509Y1334980D01*
X1359644Y1352756D02*
X1368956Y1352756D01*
X1363877Y1345984D01*
X1366416Y1345984D01*
X1368109Y1345138D01*
X1368956Y1344291D01*
X1369802Y1341752D01*
X1369802Y1340059D01*
X1368956Y1337520D01*
X1367263Y1335827D01*
X1364723Y1334980D01*
X1362184Y1334980D01*
X1359644Y1335827D01*
X1358798Y1336673D01*
X1357951Y1338366D01*
X2003110Y1352756D02*
X1994645Y1340905D01*
X2007342Y1340905D01*
X2003110Y1352756D02*
X2003110Y1334980D01*
X2639546Y1352756D02*
X2631081Y1352756D01*
X2630235Y1345138D01*
X2631081Y1345984D01*
X2633621Y1346831D01*
X2636160Y1346831D01*
X2638700Y1345984D01*
X2640392Y1344291D01*
X2641239Y1341752D01*
X2641239Y1340059D01*
X2640392Y1337520D01*
X2638700Y1335827D01*
X2636160Y1334980D01*
X2633621Y1334980D01*
X2631081Y1335827D01*
X2630235Y1336673D01*
X2629388Y1338366D01*
X3275816Y1350217D02*
X3274969Y1351910D01*
X3272430Y1352756D01*
X3270737Y1352756D01*
X3268198Y1351910D01*
X3266505Y1349370D01*
X3265658Y1345138D01*
X3265658Y1340905D01*
X3266505Y1337520D01*
X3268198Y1335827D01*
X3270737Y1334980D01*
X3271584Y1334980D01*
X3274123Y1335827D01*
X3275816Y1337520D01*
X3276662Y1340059D01*
X3276662Y1340905D01*
X3275816Y1343445D01*
X3274123Y1345138D01*
X3271584Y1345984D01*
X3270737Y1345984D01*
X3268198Y1345138D01*
X3266505Y1343445D01*
X3265658Y1340905D01*
X3570794Y1044658D02*
X3564022Y1062434D01*
X3557250Y1044658D01*
X3559790Y1050583D02*
X3568254Y1050583D01*
X3557250Y457914D02*
X3557250Y440138D01*
X3557250Y457914D02*
X3564868Y457914D01*
X3567408Y457068D01*
X3568254Y456221D01*
X3569101Y454528D01*
X3569101Y452835D01*
X3568254Y451142D01*
X3567408Y450296D01*
X3564868Y449449D01*
X3557250Y449449D02*
X3564868Y449449D01*
X3567408Y448603D01*
X3568254Y447757D01*
X3569101Y446063D01*
X3569101Y443524D01*
X3568254Y441831D01*
X3567408Y440985D01*
X3564868Y440138D01*
X3557250Y440138D01*
X3569948Y-149568D02*
X3569101Y-147875D01*
X3567408Y-146182D01*
X3565715Y-145336D01*
X3562329Y-145336D01*
X3560636Y-146182D01*
X3558943Y-147875D01*
X3558097Y-149568D01*
X3557250Y-152108D01*
X3557250Y-156340D01*
X3558097Y-158879D01*
X3558943Y-160572D01*
X3560636Y-162265D01*
X3562329Y-163112D01*
X3565715Y-163112D01*
X3567408Y-162265D01*
X3569101Y-160572D01*
X3569948Y-158879D01*
X3557250Y-747316D02*
X3557250Y-765092D01*
X3557250Y-747316D02*
X3563175Y-747316D01*
X3565715Y-748162D01*
X3567408Y-749855D01*
X3568254Y-751548D01*
X3569101Y-754088D01*
X3569101Y-758320D01*
X3568254Y-760860D01*
X3567408Y-762552D01*
X3565715Y-764245D01*
X3563175Y-765092D01*
X3557250Y-765092D01*
X-188406Y1044658D02*
X-195178Y1062434D01*
X-201950Y1044658D01*
X-199410Y1050583D02*
X-190946Y1050583D01*
X-201950Y457914D02*
X-201950Y440138D01*
X-201950Y457914D02*
X-194331Y457914D01*
X-191792Y457068D01*
X-190946Y456221D01*
X-190099Y454528D01*
X-190099Y452835D01*
X-190946Y451142D01*
X-191792Y450296D01*
X-194331Y449449D01*
X-201950Y449449D02*
X-194331Y449449D01*
X-191792Y448603D01*
X-190946Y447757D01*
X-190099Y446063D01*
X-190099Y443524D01*
X-190946Y441831D01*
X-191792Y440985D01*
X-194331Y440138D01*
X-201950Y440138D01*
X-189253Y-149568D02*
X-190099Y-147875D01*
X-191792Y-146182D01*
X-193485Y-145336D01*
X-196871Y-145336D01*
X-198564Y-146182D01*
X-200257Y-147875D01*
X-201103Y-149568D01*
X-201950Y-152108D01*
X-201950Y-156340D01*
X-201103Y-158879D01*
X-200257Y-160572D01*
X-198564Y-162265D01*
X-196871Y-163112D01*
X-193485Y-163112D01*
X-191792Y-162265D01*
X-190099Y-160572D01*
X-189253Y-158879D01*
X-201950Y-747316D02*
X-201950Y-765092D01*
X-201950Y-747316D02*
X-196024Y-747316D01*
X-193485Y-748162D01*
X-191792Y-749855D01*
X-190946Y-751548D01*
X-190099Y-754088D01*
X-190099Y-758320D01*
X-190946Y-760860D01*
X-191792Y-762552D01*
X-193485Y-764245D01*
X-196024Y-765092D01*
X-201950Y-765092D01*
X91760Y-1012830D02*
X93453Y-1011983D01*
X95992Y-1009444D01*
X95992Y-1027220D01*
X726505Y-1013676D02*
X726505Y-1012830D01*
X727351Y-1011137D01*
X728198Y-1010290D01*
X729891Y-1009444D01*
X733277Y-1009444D01*
X734969Y-1010290D01*
X735816Y-1011137D01*
X736662Y-1012830D01*
X736662Y-1014523D01*
X735816Y-1016216D01*
X734123Y-1018755D01*
X725658Y-1027220D01*
X737509Y-1027220D01*
X1359644Y-1009444D02*
X1368956Y-1009444D01*
X1363877Y-1016216D01*
X1366416Y-1016216D01*
X1368109Y-1017062D01*
X1368956Y-1017909D01*
X1369802Y-1020448D01*
X1369802Y-1022141D01*
X1368956Y-1024680D01*
X1367263Y-1026373D01*
X1364723Y-1027220D01*
X1362184Y-1027220D01*
X1359644Y-1026373D01*
X1358798Y-1025527D01*
X1357951Y-1023834D01*
X2003110Y-1009444D02*
X1994645Y-1021294D01*
X2007342Y-1021294D01*
X2003110Y-1009444D02*
X2003110Y-1027220D01*
X2639546Y-1009444D02*
X2631081Y-1009444D01*
X2630235Y-1017062D01*
X2631081Y-1016216D01*
X2633621Y-1015369D01*
X2636160Y-1015369D01*
X2638700Y-1016216D01*
X2640392Y-1017909D01*
X2641239Y-1020448D01*
X2641239Y-1022141D01*
X2640392Y-1024680D01*
X2638700Y-1026373D01*
X2636160Y-1027220D01*
X2633621Y-1027220D01*
X2631081Y-1026373D01*
X2630235Y-1025527D01*
X2629388Y-1023834D01*
X3275816Y-1011983D02*
X3274969Y-1010290D01*
X3272430Y-1009444D01*
X3270737Y-1009444D01*
X3268198Y-1010290D01*
X3266505Y-1012830D01*
X3265658Y-1017062D01*
X3265658Y-1021294D01*
X3266505Y-1024680D01*
X3268198Y-1026373D01*
X3270737Y-1027220D01*
X3271584Y-1027220D01*
X3274123Y-1026373D01*
X3275816Y-1024680D01*
X3276662Y-1022141D01*
X3276662Y-1021294D01*
X3275816Y-1018755D01*
X3274123Y-1017062D01*
X3271584Y-1016216D01*
X3270737Y-1016216D01*
X3268198Y-1017062D01*
X3266505Y-1018755D01*
X3265658Y-1021294D01*
X2432697Y-971456D02*
X2431851Y-969763D01*
X2430158Y-968070D01*
X2428465Y-967224D01*
X2425079Y-967224D01*
X2423386Y-968070D01*
X2421693Y-969763D01*
X2420847Y-971456D01*
X2420000Y-973996D01*
X2420000Y-978228D01*
X2420847Y-980768D01*
X2421693Y-982460D01*
X2423386Y-984153D01*
X2425079Y-985000D01*
X2428465Y-985000D01*
X2430158Y-984153D01*
X2431851Y-982460D01*
X2432697Y-980768D01*
X2437692Y-967224D02*
X2437692Y-985000D01*
X2437692Y-976535D02*
X2440231Y-973996D01*
X2441924Y-973149D01*
X2444464Y-973149D01*
X2446156Y-973996D01*
X2447003Y-976535D01*
X2447003Y-985000D01*
X2461817Y-973149D02*
X2461817Y-985000D01*
X2461817Y-975688D02*
X2460123Y-973996D01*
X2458431Y-973149D01*
X2455891Y-973149D01*
X2454198Y-973996D01*
X2452505Y-975688D01*
X2451659Y-978228D01*
X2451659Y-979921D01*
X2452505Y-982460D01*
X2454198Y-984153D01*
X2455891Y-985000D01*
X2458431Y-985000D01*
X2460123Y-984153D01*
X2461817Y-982460D01*
X2466557Y-973149D02*
X2466557Y-985000D01*
X2466557Y-976535D02*
X2469096Y-973996D01*
X2470789Y-973149D01*
X2473329Y-973149D01*
X2475022Y-973996D01*
X2475868Y-976535D01*
X2475868Y-985000D01*
X2490682Y-967224D02*
X2490682Y-985000D01*
X2490682Y-975688D02*
X2488989Y-973996D01*
X2487296Y-973149D01*
X2484756Y-973149D01*
X2483063Y-973996D01*
X2481370Y-975688D01*
X2480524Y-978228D01*
X2480524Y-979921D01*
X2481370Y-982460D01*
X2483063Y-984153D01*
X2484756Y-985000D01*
X2487296Y-985000D01*
X2488989Y-984153D01*
X2490682Y-982460D01*
X2495422Y-967224D02*
X2495422Y-985000D01*
X2499147Y-978228D02*
X2509304Y-978228D01*
X2509304Y-976535D01*
X2508458Y-974842D01*
X2507611Y-973996D01*
X2505918Y-973149D01*
X2503379Y-973149D01*
X2501686Y-973996D01*
X2499993Y-975688D01*
X2499147Y-978228D01*
X2499147Y-979921D01*
X2499993Y-982460D01*
X2501686Y-984153D01*
X2503379Y-985000D01*
X2505918Y-985000D01*
X2507611Y-984153D01*
X2509304Y-982460D01*
X2513114Y-973149D02*
X2513114Y-985000D01*
X2513114Y-978228D02*
X2513960Y-975688D01*
X2515653Y-973996D01*
X2517346Y-973149D01*
X2519885Y-973149D01*
X2523187Y-984153D02*
X2522340Y-985000D01*
X2521494Y-984153D01*
X2522340Y-983307D01*
X2523187Y-984153D01*
X2523187Y-985846D01*
X2522340Y-987539D01*
X2521494Y-988386D01*
X2554591Y-985000D02*
X2547819Y-967224D01*
X2541048Y-985000D01*
X2543587Y-979074D02*
X2552052Y-979074D01*
X2570590Y-967224D02*
X2558739Y-985000D01*
X2558739Y-967224D02*
X2570590Y-967224D01*
X2558739Y-985000D02*
X2570590Y-985000D01*
X2606735Y-967224D02*
X2604195Y-968070D01*
X2603349Y-969763D01*
X2603349Y-971456D01*
X2604195Y-973149D01*
X2605888Y-973996D01*
X2609274Y-974842D01*
X2611814Y-975688D01*
X2613506Y-977382D01*
X2614353Y-979074D01*
X2614353Y-981614D01*
X2613506Y-983307D01*
X2612660Y-984153D01*
X2610121Y-985000D01*
X2606735Y-985000D01*
X2604195Y-984153D01*
X2603349Y-983307D01*
X2602502Y-981614D01*
X2602502Y-979074D01*
X2603349Y-977382D01*
X2605042Y-975688D01*
X2607581Y-974842D01*
X2610967Y-973996D01*
X2612660Y-973149D01*
X2613506Y-971456D01*
X2613506Y-969763D01*
X2612660Y-968070D01*
X2610121Y-967224D01*
X2606735Y-967224D01*
X2628489Y-967224D02*
X2620025Y-967224D01*
X2619178Y-974842D01*
X2620025Y-973996D01*
X2622564Y-973149D01*
X2625103Y-973149D01*
X2627643Y-973996D01*
X2629336Y-975688D01*
X2630182Y-978228D01*
X2630182Y-979921D01*
X2629336Y-982460D01*
X2627643Y-984153D01*
X2625103Y-985000D01*
X2622564Y-985000D01*
X2620025Y-984153D01*
X2619178Y-983307D01*
X2618332Y-981614D01*
X2635007Y-971456D02*
X2635007Y-970610D01*
X2635854Y-968917D01*
X2636700Y-968070D01*
X2638393Y-967224D01*
X2641779Y-967224D01*
X2643472Y-968070D01*
X2644319Y-968917D01*
X2645165Y-970610D01*
X2645165Y-972303D01*
X2644319Y-973996D01*
X2642626Y-976535D01*
X2634161Y-985000D01*
X2646012Y-985000D01*
X2650836Y-971456D02*
X2650836Y-970610D01*
X2651683Y-968917D01*
X2652530Y-968070D01*
X2654223Y-967224D01*
X2657609Y-967224D01*
X2659301Y-968070D01*
X2660148Y-968917D01*
X2660994Y-970610D01*
X2660994Y-972303D01*
X2660148Y-973996D01*
X2658455Y-976535D01*
X2649990Y-985000D01*
X2661841Y-985000D01*
X2674284Y-967224D02*
X2665819Y-979074D01*
X2678517Y-979074D01*
X2674284Y-967224D02*
X2674284Y-985000D01*
X2410847Y-946456D02*
X2410847Y-945610D01*
X2411693Y-943917D01*
X2412540Y-943070D01*
X2414233Y-942224D01*
X2417619Y-942224D01*
X2419312Y-943070D01*
X2420158Y-943917D01*
X2421004Y-945610D01*
X2421004Y-947303D01*
X2420158Y-948996D01*
X2418465Y-951535D01*
X2410000Y-960000D01*
X2421851Y-960000D01*
X2427522Y-942224D02*
X2436834Y-942224D01*
X2431755Y-948996D01*
X2434294Y-948996D01*
X2435987Y-949842D01*
X2436834Y-950688D01*
X2437680Y-953228D01*
X2437680Y-954921D01*
X2436834Y-957460D01*
X2435141Y-959153D01*
X2432601Y-960000D01*
X2430062Y-960000D01*
X2427522Y-959153D01*
X2426676Y-958307D01*
X2425829Y-956614D01*
X2451817Y-942224D02*
X2443352Y-942224D01*
X2442505Y-949842D01*
X2443352Y-948996D01*
X2445891Y-948149D01*
X2448431Y-948149D01*
X2450970Y-948996D01*
X2452663Y-950688D01*
X2453510Y-953228D01*
X2453510Y-954921D01*
X2452663Y-957460D01*
X2450970Y-959153D01*
X2448431Y-960000D01*
X2445891Y-960000D01*
X2443352Y-959153D01*
X2442505Y-958307D01*
X2441659Y-956614D01*
X2467646Y-942224D02*
X2459181Y-942224D01*
X2458335Y-949842D01*
X2459181Y-948996D01*
X2461720Y-948149D01*
X2464260Y-948149D01*
X2466799Y-948996D01*
X2468492Y-950688D01*
X2469339Y-953228D01*
X2469339Y-954921D01*
X2468492Y-957460D01*
X2466799Y-959153D01*
X2464260Y-960000D01*
X2461720Y-960000D01*
X2459181Y-959153D01*
X2458335Y-958307D01*
X2457488Y-956614D01*
X2487284Y-942224D02*
X2491517Y-960000D01*
X2495749Y-942224D02*
X2491517Y-960000D01*
X2495749Y-942224D02*
X2499982Y-960000D01*
X2504214Y-942224D02*
X2499982Y-960000D01*
X2508616Y-958307D02*
X2507769Y-959153D01*
X2508616Y-960000D01*
X2509462Y-959153D01*
X2508616Y-958307D01*
X2540020Y-946456D02*
X2539174Y-944763D01*
X2537481Y-943070D01*
X2535788Y-942224D01*
X2532402Y-942224D01*
X2530709Y-943070D01*
X2529016Y-944763D01*
X2528170Y-946456D01*
X2527323Y-948996D01*
X2527323Y-953228D01*
X2528170Y-955768D01*
X2529016Y-957460D01*
X2530709Y-959153D01*
X2532402Y-960000D01*
X2535788Y-960000D01*
X2537481Y-959153D01*
X2539174Y-957460D01*
X2540020Y-955768D01*
X2545014Y-942224D02*
X2545014Y-960000D01*
X2545014Y-951535D02*
X2547554Y-948996D01*
X2549247Y-948149D01*
X2551786Y-948149D01*
X2553479Y-948996D01*
X2554326Y-951535D01*
X2554326Y-960000D01*
X2569139Y-948149D02*
X2569139Y-960000D01*
X2569139Y-950688D02*
X2567446Y-948996D01*
X2565753Y-948149D01*
X2563214Y-948149D01*
X2561521Y-948996D01*
X2559828Y-950688D01*
X2558981Y-953228D01*
X2558981Y-954921D01*
X2559828Y-957460D01*
X2561521Y-959153D01*
X2563214Y-960000D01*
X2565753Y-960000D01*
X2567446Y-959153D01*
X2569139Y-957460D01*
X2573880Y-948149D02*
X2573880Y-960000D01*
X2573880Y-951535D02*
X2576419Y-948996D01*
X2578112Y-948149D01*
X2580652Y-948149D01*
X2582344Y-948996D01*
X2583191Y-951535D01*
X2583191Y-960000D01*
X2598004Y-942224D02*
X2598004Y-960000D01*
X2598004Y-950688D02*
X2596312Y-948996D01*
X2594619Y-948149D01*
X2592079Y-948149D01*
X2590386Y-948996D01*
X2588693Y-950688D01*
X2587847Y-953228D01*
X2587847Y-954921D01*
X2588693Y-957460D01*
X2590386Y-959153D01*
X2592079Y-960000D01*
X2594619Y-960000D01*
X2596312Y-959153D01*
X2598004Y-957460D01*
X2602745Y-942224D02*
X2602745Y-960000D01*
X2606469Y-953228D02*
X2616627Y-953228D01*
X2616627Y-951535D01*
X2615781Y-949842D01*
X2614934Y-948996D01*
X2613241Y-948149D01*
X2610702Y-948149D01*
X2609009Y-948996D01*
X2607316Y-950688D01*
X2606469Y-953228D01*
X2606469Y-954921D01*
X2607316Y-957460D01*
X2609009Y-959153D01*
X2610702Y-960000D01*
X2613241Y-960000D01*
X2614934Y-959153D01*
X2616627Y-957460D01*
X2620436Y-948149D02*
X2620436Y-960000D01*
X2620436Y-953228D02*
X2621283Y-950688D01*
X2622976Y-948996D01*
X2624669Y-948149D01*
X2627208Y-948149D01*
X2642784Y-942224D02*
X2642784Y-960000D01*
X2642784Y-942224D02*
X2650402Y-942224D01*
X2652941Y-943070D01*
X2653788Y-943917D01*
X2654634Y-945610D01*
X2654634Y-947303D01*
X2653788Y-948996D01*
X2652941Y-949842D01*
X2650402Y-950688D01*
X2642784Y-950688D02*
X2650402Y-950688D01*
X2652941Y-951535D01*
X2653788Y-952382D01*
X2654634Y-954074D01*
X2654634Y-956614D01*
X2653788Y-958307D01*
X2652941Y-959153D01*
X2650402Y-960000D01*
X2642784Y-960000D01*
X2658613Y-942224D02*
X2658613Y-960000D01*
X2662337Y-948149D02*
X2667416Y-960000D01*
X2672495Y-948149D02*
X2667416Y-960000D01*
X2685531Y-942224D02*
X2685531Y-960000D01*
X2685531Y-950688D02*
X2683838Y-948996D01*
X2682145Y-948149D01*
X2679606Y-948149D01*
X2677913Y-948996D01*
X2676220Y-950688D01*
X2675373Y-953228D01*
X2675373Y-954921D01*
X2676220Y-957460D01*
X2677913Y-959153D01*
X2679606Y-960000D01*
X2682145Y-960000D01*
X2683838Y-959153D01*
X2685531Y-957460D01*
X2691118Y-958307D02*
X2690271Y-959153D01*
X2691118Y-960000D01*
X2691964Y-959153D01*
X2691118Y-958307D01*
X2397700Y-914824D02*
X2397700Y-932600D01*
X2397700Y-914824D02*
X2404472Y-932600D01*
X2411244Y-914824D02*
X2404472Y-932600D01*
X2411244Y-914824D02*
X2411244Y-932600D01*
X2418016Y-914824D02*
X2418862Y-915670D01*
X2419709Y-914824D01*
X2418862Y-913977D01*
X2418016Y-914824D01*
X2418862Y-920749D02*
X2418862Y-932600D01*
X2432999Y-923289D02*
X2431306Y-921596D01*
X2429613Y-920749D01*
X2427073Y-920749D01*
X2425380Y-921596D01*
X2423687Y-923289D01*
X2422841Y-925828D01*
X2422841Y-927521D01*
X2423687Y-930060D01*
X2425380Y-931753D01*
X2427073Y-932600D01*
X2429613Y-932600D01*
X2431306Y-931753D01*
X2432999Y-930060D01*
X2436808Y-920749D02*
X2436808Y-932600D01*
X2436808Y-925828D02*
X2437654Y-923289D01*
X2439347Y-921596D01*
X2441040Y-920749D01*
X2443580Y-920749D01*
X2449420Y-920749D02*
X2447727Y-921596D01*
X2446035Y-923289D01*
X2445188Y-925828D01*
X2445188Y-927521D01*
X2446035Y-930060D01*
X2447727Y-931753D01*
X2449420Y-932600D01*
X2451960Y-932600D01*
X2453653Y-931753D01*
X2455346Y-930060D01*
X2456192Y-927521D01*
X2456192Y-925828D01*
X2455346Y-923289D01*
X2453653Y-921596D01*
X2451960Y-920749D01*
X2449420Y-920749D01*
X2470244Y-923289D02*
X2468551Y-921596D01*
X2466858Y-920749D01*
X2464319Y-920749D01*
X2462626Y-921596D01*
X2460933Y-923289D01*
X2460086Y-925828D01*
X2460086Y-927521D01*
X2460933Y-930060D01*
X2462626Y-931753D01*
X2464319Y-932600D01*
X2466858Y-932600D01*
X2468551Y-931753D01*
X2470244Y-930060D01*
X2474053Y-914824D02*
X2474053Y-932600D01*
X2474053Y-924135D02*
X2476593Y-921596D01*
X2478286Y-920749D01*
X2480825Y-920749D01*
X2482518Y-921596D01*
X2483365Y-924135D01*
X2483365Y-932600D01*
X2489713Y-914824D02*
X2490560Y-915670D01*
X2491406Y-914824D01*
X2490560Y-913977D01*
X2489713Y-914824D01*
X2490560Y-920749D02*
X2490560Y-932600D01*
X2494538Y-920749D02*
X2494538Y-938525D01*
X2494538Y-923289D02*
X2496231Y-921596D01*
X2497924Y-920749D01*
X2500464Y-920749D01*
X2502156Y-921596D01*
X2503849Y-923289D01*
X2504696Y-925828D01*
X2504696Y-927521D01*
X2503849Y-930060D01*
X2502156Y-931753D01*
X2500464Y-932600D01*
X2497924Y-932600D01*
X2496231Y-931753D01*
X2494538Y-930060D01*
X2528398Y-914824D02*
X2528398Y-932600D01*
X2522472Y-914824D02*
X2534323Y-914824D01*
X2536439Y-925828D02*
X2546597Y-925828D01*
X2546597Y-924135D01*
X2545750Y-922442D01*
X2544904Y-921596D01*
X2543211Y-920749D01*
X2540672Y-920749D01*
X2538978Y-921596D01*
X2537286Y-923289D01*
X2536439Y-925828D01*
X2536439Y-927521D01*
X2537286Y-930060D01*
X2538978Y-931753D01*
X2540672Y-932600D01*
X2543211Y-932600D01*
X2544904Y-931753D01*
X2546597Y-930060D01*
X2560564Y-923289D02*
X2558871Y-921596D01*
X2557178Y-920749D01*
X2554639Y-920749D01*
X2552946Y-921596D01*
X2551253Y-923289D01*
X2550406Y-925828D01*
X2550406Y-927521D01*
X2551253Y-930060D01*
X2552946Y-931753D01*
X2554639Y-932600D01*
X2557178Y-932600D01*
X2558871Y-931753D01*
X2560564Y-930060D01*
X2564373Y-914824D02*
X2564373Y-932600D01*
X2564373Y-924135D02*
X2566913Y-921596D01*
X2568606Y-920749D01*
X2571145Y-920749D01*
X2572838Y-921596D01*
X2573684Y-924135D01*
X2573684Y-932600D01*
X2578340Y-920749D02*
X2578340Y-932600D01*
X2578340Y-924135D02*
X2580880Y-921596D01*
X2582573Y-920749D01*
X2585112Y-920749D01*
X2586805Y-921596D01*
X2587651Y-924135D01*
X2587651Y-932600D01*
X2596540Y-920749D02*
X2594846Y-921596D01*
X2593154Y-923289D01*
X2592307Y-925828D01*
X2592307Y-927521D01*
X2593154Y-930060D01*
X2594846Y-931753D01*
X2596540Y-932600D01*
X2599079Y-932600D01*
X2600772Y-931753D01*
X2602465Y-930060D01*
X2603311Y-927521D01*
X2603311Y-925828D01*
X2602465Y-923289D01*
X2600772Y-921596D01*
X2599079Y-920749D01*
X2596540Y-920749D01*
X2607205Y-914824D02*
X2607205Y-932600D01*
X2615162Y-920749D02*
X2613469Y-921596D01*
X2611776Y-923289D01*
X2610930Y-925828D01*
X2610930Y-927521D01*
X2611776Y-930060D01*
X2613469Y-931753D01*
X2615162Y-932600D01*
X2617702Y-932600D01*
X2619395Y-931753D01*
X2621088Y-930060D01*
X2621934Y-927521D01*
X2621934Y-925828D01*
X2621088Y-923289D01*
X2619395Y-921596D01*
X2617702Y-920749D01*
X2615162Y-920749D01*
X2635986Y-920749D02*
X2635986Y-934293D01*
X2635139Y-936832D01*
X2634293Y-937679D01*
X2632600Y-938525D01*
X2630060Y-938525D01*
X2628367Y-937679D01*
X2635986Y-923289D02*
X2634293Y-921596D01*
X2632600Y-920749D01*
X2630060Y-920749D01*
X2628367Y-921596D01*
X2626674Y-923289D01*
X2625828Y-925828D01*
X2625828Y-927521D01*
X2626674Y-930060D01*
X2628367Y-931753D01*
X2630060Y-932600D01*
X2632600Y-932600D01*
X2634293Y-931753D01*
X2635986Y-930060D01*
X2641573Y-920749D02*
X2646651Y-932600D01*
X2651730Y-920749D02*
X2646651Y-932600D01*
X2644958Y-935986D01*
X2643265Y-937679D01*
X2641573Y-938525D01*
X2640726Y-938525D01*
X2668660Y-914824D02*
X2668660Y-932600D01*
X2672385Y-920749D02*
X2672385Y-932600D01*
X2672385Y-924135D02*
X2674924Y-921596D01*
X2676617Y-920749D01*
X2679156Y-920749D01*
X2680849Y-921596D01*
X2681696Y-924135D01*
X2681696Y-932600D01*
X2696509Y-923289D02*
X2694816Y-921596D01*
X2693123Y-920749D01*
X2690584Y-920749D01*
X2688891Y-921596D01*
X2687198Y-923289D01*
X2686352Y-925828D01*
X2686352Y-927521D01*
X2687198Y-930060D01*
X2688891Y-931753D01*
X2690584Y-932600D01*
X2693123Y-932600D01*
X2694816Y-931753D01*
X2696509Y-930060D01*
X2701165Y-930907D02*
X2700319Y-931753D01*
X2701165Y-932600D01*
X2702011Y-931753D01*
X2701165Y-930907D01*
X2742697Y-866456D02*
X2741851Y-864763D01*
X2740158Y-863070D01*
X2738465Y-862224D01*
X2735079Y-862224D01*
X2733386Y-863070D01*
X2731693Y-864763D01*
X2730847Y-866456D01*
X2730000Y-868996D01*
X2730000Y-873228D01*
X2730847Y-875768D01*
X2731693Y-877460D01*
X2733386Y-879153D01*
X2735079Y-880000D01*
X2738465Y-880000D01*
X2740158Y-879153D01*
X2741851Y-877460D01*
X2742697Y-875768D01*
X2761235Y-880000D02*
X2754464Y-862224D01*
X2747692Y-880000D01*
X2750231Y-874074D02*
X2758696Y-874074D01*
X2765383Y-868149D02*
X2770462Y-880000D01*
X2775541Y-868149D02*
X2770462Y-880000D01*
X2742697Y-926456D02*
X2741851Y-924763D01*
X2740158Y-923070D01*
X2738465Y-922224D01*
X2735079Y-922224D01*
X2733386Y-923070D01*
X2731693Y-924763D01*
X2730847Y-926456D01*
X2730000Y-928996D01*
X2730000Y-933228D01*
X2730847Y-935767D01*
X2731693Y-937460D01*
X2733386Y-939153D01*
X2735079Y-940000D01*
X2738465Y-940000D01*
X2740158Y-939153D01*
X2741851Y-937460D01*
X2742697Y-935767D01*
X2761235Y-940000D02*
X2754464Y-922224D01*
X2747692Y-940000D01*
X2750231Y-934074D02*
X2758696Y-934074D01*
X2765383Y-928149D02*
X2770462Y-940000D01*
X2775541Y-928149D02*
X2770462Y-940000D01*
X3014285Y-865003D02*
X3012143Y-865717D01*
X3010714Y-867860D01*
X3010000Y-871430D01*
X3010000Y-873573D01*
X3010714Y-877143D01*
X3012143Y-879286D01*
X3014285Y-880000D01*
X3015713Y-880000D01*
X3017856Y-879286D01*
X3019284Y-877143D01*
X3019998Y-873573D01*
X3019998Y-871430D01*
X3019284Y-867860D01*
X3017856Y-865717D01*
X3015713Y-865003D01*
X3014285Y-865003D01*
X3030496Y-865003D02*
X3023354Y-875001D01*
X3034066Y-875001D01*
X3030496Y-865003D02*
X3030496Y-880000D01*
X3036709Y-873573D02*
X3049563Y-873573D01*
X3053991Y-867860D02*
X3055419Y-867145D01*
X3057561Y-865003D01*
X3057561Y-880000D01*
X3065703Y-868574D02*
X3065703Y-867860D01*
X3066417Y-866431D01*
X3067131Y-865717D01*
X3068559Y-865003D01*
X3071415Y-865003D01*
X3072844Y-865717D01*
X3073558Y-866431D01*
X3074272Y-867860D01*
X3074272Y-869288D01*
X3073558Y-870716D01*
X3072130Y-872859D01*
X3064988Y-880000D01*
X3074986Y-880000D01*
X3078343Y-867860D02*
X3079771Y-867145D01*
X3081913Y-865003D01*
X3081913Y-880000D01*
X3097910Y-867145D02*
X3097196Y-865717D01*
X3095053Y-865003D01*
X3093625Y-865003D01*
X3091483Y-865717D01*
X3090054Y-867860D01*
X3089340Y-871430D01*
X3089340Y-875001D01*
X3090054Y-877858D01*
X3091483Y-879286D01*
X3093625Y-880000D01*
X3094339Y-880000D01*
X3096482Y-879286D01*
X3097910Y-877858D01*
X3098624Y-875715D01*
X3098624Y-875001D01*
X3097910Y-872859D01*
X3096482Y-871430D01*
X3094339Y-870716D01*
X3093625Y-870716D01*
X3091483Y-871430D01*
X3090054Y-872859D01*
X3089340Y-875001D01*
X3111193Y-870002D02*
X3110479Y-872144D01*
X3109050Y-873573D01*
X3106908Y-874287D01*
X3106194Y-874287D01*
X3104052Y-873573D01*
X3102623Y-872144D01*
X3101909Y-870002D01*
X3101909Y-869288D01*
X3102623Y-867145D01*
X3104052Y-865717D01*
X3106194Y-865003D01*
X3106908Y-865003D01*
X3109050Y-865717D01*
X3110479Y-867145D01*
X3111193Y-870002D01*
X3111193Y-873573D01*
X3110479Y-877143D01*
X3109050Y-879286D01*
X3106908Y-880000D01*
X3105480Y-880000D01*
X3103337Y-879286D01*
X3102623Y-877858D01*
X3115263Y-873573D02*
X3128118Y-873573D01*
X3132545Y-865003D02*
X3132545Y-880000D01*
X3132545Y-865003D02*
X3138972Y-865003D01*
X3141115Y-865717D01*
X3141829Y-866431D01*
X3142543Y-867860D01*
X3142543Y-869288D01*
X3141829Y-870716D01*
X3141115Y-871430D01*
X3138972Y-872144D01*
X3132545Y-872144D01*
X3137544Y-872144D02*
X3142543Y-880000D01*
X3155183Y-865003D02*
X3145900Y-865003D01*
X3145900Y-880000D01*
X3155183Y-880000D01*
X3145900Y-872144D02*
X3151613Y-872144D01*
X3157683Y-865003D02*
X3163396Y-880000D01*
X3169109Y-865003D02*
X3163396Y-880000D01*
X3178178Y-865003D02*
X3171037Y-875001D01*
X3181749Y-875001D01*
X3178178Y-865003D02*
X3178178Y-880000D01*
X3185105Y-878572D02*
X3184391Y-879286D01*
X3185105Y-880000D01*
X3185820Y-879286D01*
X3185105Y-878572D01*
X3199817Y-868574D02*
X3199102Y-867145D01*
X3197674Y-865717D01*
X3196246Y-865003D01*
X3193389Y-865003D01*
X3191961Y-865717D01*
X3190533Y-867145D01*
X3189819Y-868574D01*
X3189105Y-870716D01*
X3189105Y-874287D01*
X3189819Y-876429D01*
X3190533Y-877858D01*
X3191961Y-879286D01*
X3193389Y-880000D01*
X3196246Y-880000D01*
X3197674Y-879286D01*
X3199102Y-877858D01*
X3199817Y-876429D01*
X3199817Y-874287D01*
X3196246Y-874287D02*
X3199817Y-874287D01*
X3208243Y-865003D02*
X3208243Y-880000D01*
X3203244Y-865003D02*
X3213242Y-865003D01*
X3225025Y-867145D02*
X3223597Y-865717D01*
X3221455Y-865003D01*
X3218598Y-865003D01*
X3216456Y-865717D01*
X3215027Y-867145D01*
X3215027Y-868574D01*
X3215742Y-870002D01*
X3216456Y-870716D01*
X3217884Y-871430D01*
X3222169Y-872859D01*
X3223597Y-873573D01*
X3224311Y-874287D01*
X3225025Y-875715D01*
X3225025Y-877858D01*
X3223597Y-879286D01*
X3221455Y-880000D01*
X3218598Y-880000D01*
X3216456Y-879286D01*
X3215027Y-877858D01*
D29*
X161189Y1219998D02*
X155000Y1219998D01*
X155000Y1210000D01*
X161189Y1210000D01*
X155000Y1215237D02*
X158809Y1215237D01*
X162855Y1216665D02*
X168092Y1210000D01*
X168092Y1216665D02*
X162855Y1210000D01*
X170187Y1216665D02*
X170187Y1206667D01*
X170187Y1215237D02*
X171139Y1216189D01*
X172092Y1216665D01*
X173520Y1216665D01*
X174472Y1216189D01*
X175424Y1215237D01*
X175900Y1213809D01*
X175900Y1212857D01*
X175424Y1211428D01*
X174472Y1210476D01*
X173520Y1210000D01*
X172092Y1210000D01*
X171139Y1210476D01*
X170187Y1211428D01*
X180423Y1216665D02*
X179471Y1216189D01*
X178519Y1215237D01*
X178043Y1213809D01*
X178043Y1212857D01*
X178519Y1211428D01*
X179471Y1210476D01*
X180423Y1210000D01*
X181851Y1210000D01*
X182804Y1210476D01*
X183756Y1211428D01*
X184232Y1212857D01*
X184232Y1213809D01*
X183756Y1215237D01*
X182804Y1216189D01*
X181851Y1216665D01*
X180423Y1216665D01*
X186422Y1216665D02*
X186422Y1210000D01*
X186422Y1213809D02*
X186898Y1215237D01*
X187850Y1216189D01*
X188802Y1216665D01*
X190231Y1216665D01*
X192563Y1219998D02*
X192563Y1211904D01*
X193039Y1210476D01*
X193992Y1210000D01*
X194944Y1210000D01*
X191135Y1216665D02*
X194468Y1216665D01*
X196372Y1213809D02*
X202085Y1213809D01*
X202085Y1214761D01*
X201609Y1215713D01*
X201133Y1216189D01*
X200181Y1216665D01*
X198752Y1216665D01*
X197800Y1216189D01*
X196848Y1215237D01*
X196372Y1213809D01*
X196372Y1212857D01*
X196848Y1211428D01*
X197800Y1210476D01*
X198752Y1210000D01*
X200181Y1210000D01*
X201133Y1210476D01*
X202085Y1211428D01*
X209941Y1219998D02*
X209941Y1210000D01*
X209941Y1215237D02*
X208988Y1216189D01*
X208036Y1216665D01*
X206608Y1216665D01*
X205656Y1216189D01*
X204704Y1215237D01*
X204228Y1213809D01*
X204228Y1212857D01*
X204704Y1211428D01*
X205656Y1210476D01*
X206608Y1210000D01*
X208036Y1210000D01*
X208988Y1210476D01*
X209941Y1211428D01*
X220462Y1216665D02*
X222367Y1210000D01*
X224271Y1216665D02*
X222367Y1210000D01*
X224271Y1216665D02*
X226175Y1210000D01*
X228080Y1216665D02*
X226175Y1210000D01*
X231365Y1219998D02*
X231841Y1219522D01*
X232317Y1219998D01*
X231841Y1220474D01*
X231365Y1219998D01*
X231841Y1216665D02*
X231841Y1210000D01*
X235506Y1219998D02*
X235506Y1211904D01*
X235983Y1210476D01*
X236935Y1210000D01*
X237887Y1210000D01*
X234078Y1216665D02*
X237411Y1216665D01*
X239315Y1219998D02*
X239315Y1210000D01*
X239315Y1214761D02*
X240744Y1216189D01*
X241696Y1216665D01*
X243124Y1216665D01*
X244076Y1216189D01*
X244552Y1214761D01*
X244552Y1210000D01*
X262644Y1210000D02*
X258835Y1219998D01*
X255026Y1210000D01*
X256454Y1213333D02*
X261215Y1213333D01*
X264976Y1219998D02*
X264976Y1210000D01*
X268500Y1219998D02*
X268500Y1211904D01*
X268976Y1210476D01*
X269928Y1210000D01*
X270880Y1210000D01*
X267071Y1216665D02*
X270404Y1216665D01*
X273260Y1219998D02*
X273736Y1219522D01*
X274212Y1219998D01*
X273736Y1220474D01*
X273260Y1219998D01*
X273736Y1216665D02*
X273736Y1210000D01*
X275974Y1216665D02*
X275974Y1211904D01*
X276450Y1210476D01*
X277402Y1210000D01*
X278831Y1210000D01*
X279783Y1210476D01*
X281211Y1211904D01*
X281211Y1216665D02*
X281211Y1210000D01*
X283829Y1216665D02*
X283829Y1210000D01*
X283829Y1214761D02*
X285258Y1216189D01*
X286210Y1216665D01*
X287638Y1216665D01*
X288590Y1216189D01*
X289067Y1214761D01*
X289067Y1210000D01*
X289067Y1214761D02*
X290495Y1216189D01*
X291447Y1216665D01*
X292875Y1216665D01*
X293827Y1216189D01*
X294303Y1214761D01*
X294303Y1210000D01*
X305301Y1219998D02*
X305301Y1210000D01*
X305301Y1219998D02*
X308634Y1219998D01*
X310062Y1219522D01*
X311014Y1218570D01*
X311490Y1217617D01*
X311966Y1216189D01*
X311966Y1213809D01*
X311490Y1212380D01*
X311014Y1211428D01*
X310062Y1210476D01*
X308634Y1210000D01*
X305301Y1210000D01*
X314204Y1213809D02*
X319917Y1213809D01*
X319917Y1214761D01*
X319441Y1215713D01*
X318965Y1216189D01*
X318013Y1216665D01*
X316584Y1216665D01*
X315632Y1216189D01*
X314680Y1215237D01*
X314204Y1213809D01*
X314204Y1212857D01*
X314680Y1211428D01*
X315632Y1210476D01*
X316584Y1210000D01*
X318013Y1210000D01*
X318965Y1210476D01*
X319917Y1211428D01*
X327296Y1215237D02*
X326820Y1216189D01*
X325392Y1216665D01*
X323964Y1216665D01*
X322536Y1216189D01*
X322059Y1215237D01*
X322536Y1214285D01*
X323488Y1213809D01*
X325868Y1213333D01*
X326820Y1212857D01*
X327296Y1211904D01*
X327296Y1211428D01*
X326820Y1210476D01*
X325392Y1210000D01*
X323964Y1210000D01*
X322536Y1210476D01*
X322059Y1211428D01*
X330343Y1219998D02*
X330819Y1219522D01*
X331296Y1219998D01*
X330819Y1220474D01*
X330343Y1219998D01*
X330819Y1216665D02*
X330819Y1210000D01*
X338770Y1216665D02*
X338770Y1209048D01*
X338294Y1207620D01*
X337818Y1207143D01*
X336866Y1206667D01*
X335438Y1206667D01*
X334485Y1207143D01*
X338770Y1215237D02*
X337818Y1216189D01*
X336866Y1216665D01*
X335438Y1216665D01*
X334485Y1216189D01*
X333533Y1215237D01*
X333057Y1213809D01*
X333057Y1212857D01*
X333533Y1211428D01*
X334485Y1210476D01*
X335438Y1210000D01*
X336866Y1210000D01*
X337818Y1210476D01*
X338770Y1211428D01*
X341436Y1216665D02*
X341436Y1210000D01*
X341436Y1214761D02*
X342864Y1216189D01*
X343817Y1216665D01*
X345245Y1216665D01*
X346197Y1216189D01*
X346673Y1214761D01*
X346673Y1210000D01*
X349292Y1213809D02*
X355005Y1213809D01*
X355005Y1214761D01*
X354529Y1215713D01*
X354053Y1216189D01*
X353100Y1216665D01*
X351672Y1216665D01*
X350720Y1216189D01*
X349768Y1215237D01*
X349292Y1213809D01*
X349292Y1212857D01*
X349768Y1211428D01*
X350720Y1210476D01*
X351672Y1210000D01*
X353100Y1210000D01*
X354053Y1210476D01*
X355005Y1211428D01*
X357147Y1216665D02*
X357147Y1210000D01*
X357147Y1213809D02*
X357623Y1215237D01*
X358575Y1216189D01*
X359528Y1216665D01*
X360956Y1216665D01*
X370192Y1217617D02*
X370192Y1218093D01*
X370668Y1219046D01*
X371144Y1219522D01*
X372096Y1219998D01*
X374001Y1219998D01*
X374953Y1219522D01*
X375429Y1219046D01*
X375905Y1218093D01*
X375905Y1217141D01*
X375429Y1216189D01*
X374477Y1214761D01*
X369716Y1210000D01*
X376381Y1210000D01*
X383380Y1219998D02*
X378619Y1213333D01*
X385760Y1213333D01*
X383380Y1219998D02*
X383380Y1210000D01*
X387998Y1210952D02*
X387522Y1210476D01*
X387998Y1210000D01*
X388474Y1210476D01*
X387998Y1210952D01*
X396853Y1216665D02*
X396377Y1215237D01*
X395425Y1214285D01*
X393996Y1213809D01*
X393520Y1213809D01*
X392092Y1214285D01*
X391140Y1215237D01*
X390664Y1216665D01*
X390664Y1217141D01*
X391140Y1218570D01*
X392092Y1219522D01*
X393520Y1219998D01*
X393996Y1219998D01*
X395425Y1219522D01*
X396377Y1218570D01*
X396853Y1216665D01*
X396853Y1214285D01*
X396377Y1211904D01*
X395425Y1210476D01*
X393996Y1210000D01*
X393044Y1210000D01*
X391616Y1210476D01*
X391140Y1211428D01*
X400043Y1210952D02*
X399567Y1210476D01*
X400043Y1210000D01*
X400519Y1210476D01*
X400043Y1210952D01*
X402709Y1218093D02*
X403661Y1218570D01*
X405089Y1219998D01*
X405089Y1210000D01*
X410517Y1210952D02*
X410041Y1210476D01*
X410517Y1210000D01*
X410993Y1210476D01*
X410517Y1210952D01*
X414135Y1219998D02*
X419372Y1219998D01*
X416515Y1216189D01*
X417944Y1216189D01*
X418896Y1215713D01*
X419372Y1215237D01*
X419848Y1213809D01*
X419848Y1212857D01*
X419372Y1211428D01*
X418420Y1210476D01*
X416991Y1210000D01*
X415563Y1210000D01*
X414135Y1210476D01*
X413659Y1210952D01*
X413183Y1211904D01*
X422086Y1218093D02*
X423038Y1218570D01*
X424466Y1219998D01*
X424466Y1210000D01*
X439653Y1216665D02*
X438701Y1216189D01*
X437749Y1215237D01*
X437273Y1213809D01*
X437273Y1212857D01*
X437749Y1211428D01*
X438701Y1210476D01*
X439653Y1210000D01*
X441082Y1210000D01*
X442034Y1210476D01*
X442986Y1211428D01*
X443462Y1212857D01*
X443462Y1213809D01*
X442986Y1215237D01*
X442034Y1216189D01*
X441082Y1216665D01*
X439653Y1216665D01*
X445652Y1216665D02*
X445652Y1210000D01*
X445652Y1214761D02*
X447080Y1216189D01*
X448032Y1216665D01*
X449461Y1216665D01*
X450413Y1216189D01*
X450889Y1214761D01*
X450889Y1210000D01*
X467552Y1216665D02*
X467076Y1215237D01*
X466124Y1214285D01*
X464696Y1213809D01*
X464219Y1213809D01*
X462791Y1214285D01*
X461839Y1215237D01*
X461363Y1216665D01*
X461363Y1217141D01*
X461839Y1218570D01*
X462791Y1219522D01*
X464219Y1219998D01*
X464696Y1219998D01*
X466124Y1219522D01*
X467076Y1218570D01*
X467552Y1216665D01*
X467552Y1214285D01*
X467076Y1211904D01*
X466124Y1210476D01*
X464696Y1210000D01*
X463743Y1210000D01*
X462315Y1210476D01*
X461839Y1211428D01*
X470266Y1208572D02*
X476931Y1219998D01*
X477598Y1218093D02*
X478550Y1218570D01*
X479978Y1219998D01*
X479978Y1210000D01*
X485405Y1217617D02*
X485405Y1218093D01*
X485881Y1219046D01*
X486357Y1219522D01*
X487310Y1219998D01*
X489214Y1219998D01*
X490166Y1219522D01*
X490642Y1219046D01*
X491118Y1218093D01*
X491118Y1217141D01*
X490642Y1216189D01*
X489690Y1214761D01*
X484929Y1210000D01*
X491595Y1210000D01*
X493832Y1208572D02*
X500497Y1219998D01*
X501640Y1217617D02*
X501640Y1218093D01*
X502116Y1219046D01*
X502592Y1219522D01*
X503544Y1219998D01*
X505449Y1219998D01*
X506401Y1219522D01*
X506877Y1219046D01*
X507353Y1218093D01*
X507353Y1217141D01*
X506877Y1216189D01*
X505925Y1214761D01*
X501164Y1210000D01*
X507829Y1210000D01*
X512923Y1219998D02*
X511495Y1219522D01*
X510543Y1218093D01*
X510067Y1215713D01*
X510067Y1214285D01*
X510543Y1211904D01*
X511495Y1210476D01*
X512923Y1210000D01*
X513875Y1210000D01*
X515304Y1210476D01*
X516256Y1211904D01*
X516732Y1214285D01*
X516732Y1215713D01*
X516256Y1218093D01*
X515304Y1219522D01*
X513875Y1219998D01*
X512923Y1219998D01*
X519446Y1217617D02*
X519446Y1218093D01*
X519922Y1219046D01*
X520398Y1219522D01*
X521350Y1219998D01*
X523254Y1219998D01*
X524207Y1219522D01*
X524683Y1219046D01*
X525159Y1218093D01*
X525159Y1217141D01*
X524683Y1216189D01*
X523730Y1214761D01*
X518969Y1210000D01*
X525635Y1210000D01*
X532633Y1219998D02*
X527872Y1213333D01*
X535014Y1213333D01*
X532633Y1219998D02*
X532633Y1210000D01*
X550344Y1216665D02*
X550344Y1210000D01*
X550344Y1215237D02*
X549392Y1216189D01*
X548439Y1216665D01*
X547011Y1216665D01*
X546059Y1216189D01*
X545107Y1215237D01*
X544631Y1213809D01*
X544631Y1212857D01*
X545107Y1211428D01*
X546059Y1210476D01*
X547011Y1210000D01*
X548439Y1210000D01*
X549392Y1210476D01*
X550344Y1211428D01*
X554438Y1219998D02*
X554438Y1211904D01*
X554914Y1210476D01*
X555866Y1210000D01*
X556819Y1210000D01*
X553010Y1216665D02*
X556343Y1216665D01*
X571815Y1219998D02*
X567054Y1219998D01*
X566578Y1215713D01*
X567054Y1216189D01*
X568483Y1216665D01*
X569911Y1216665D01*
X571339Y1216189D01*
X572291Y1215237D01*
X572767Y1213809D01*
X572767Y1212857D01*
X572291Y1211428D01*
X571339Y1210476D01*
X569911Y1210000D01*
X568483Y1210000D01*
X567054Y1210476D01*
X566578Y1210952D01*
X566102Y1211904D01*
X575481Y1216665D02*
X575005Y1216189D01*
X575481Y1215713D01*
X575957Y1216189D01*
X575481Y1216665D01*
X575481Y1210952D02*
X575005Y1210476D01*
X575481Y1210000D01*
X575957Y1210476D01*
X575481Y1210952D01*
X579100Y1219998D02*
X584337Y1219998D01*
X581480Y1216189D01*
X582908Y1216189D01*
X583860Y1215713D01*
X584337Y1215237D01*
X584813Y1213809D01*
X584813Y1212857D01*
X584337Y1211428D01*
X583384Y1210476D01*
X581956Y1210000D01*
X580528Y1210000D01*
X579100Y1210476D01*
X578623Y1210952D01*
X578147Y1211904D01*
X589907Y1219998D02*
X588479Y1219522D01*
X587526Y1218093D01*
X587050Y1215713D01*
X587050Y1214285D01*
X587526Y1211904D01*
X588479Y1210476D01*
X589907Y1210000D01*
X590859Y1210000D01*
X592287Y1210476D01*
X593239Y1211904D01*
X593715Y1214285D01*
X593715Y1215713D01*
X593239Y1218093D01*
X592287Y1219522D01*
X590859Y1219998D01*
X589907Y1219998D01*
X596429Y1216665D02*
X595953Y1216189D01*
X596429Y1215713D01*
X596905Y1216189D01*
X596429Y1216665D01*
X596429Y1210952D02*
X595953Y1210476D01*
X596429Y1210000D01*
X596905Y1210476D01*
X596429Y1210952D01*
X601952Y1219998D02*
X600523Y1219522D01*
X599571Y1218093D01*
X599095Y1215713D01*
X599095Y1214285D01*
X599571Y1211904D01*
X600523Y1210476D01*
X601952Y1210000D01*
X602904Y1210000D01*
X604332Y1210476D01*
X605284Y1211904D01*
X605760Y1214285D01*
X605760Y1215713D01*
X605284Y1218093D01*
X604332Y1219522D01*
X602904Y1219998D01*
X601952Y1219998D01*
X613711Y1219998D02*
X608950Y1219998D01*
X608474Y1215713D01*
X608950Y1216189D01*
X610378Y1216665D01*
X611807Y1216665D01*
X613235Y1216189D01*
X614187Y1215237D01*
X614663Y1213809D01*
X614663Y1212857D01*
X614187Y1211428D01*
X613235Y1210476D01*
X611807Y1210000D01*
X610378Y1210000D01*
X608950Y1210476D01*
X608474Y1210952D01*
X607998Y1211904D01*
X624756Y1214761D02*
X629041Y1214761D01*
X630470Y1215237D01*
X630946Y1215713D01*
X631422Y1216665D01*
X631422Y1218093D01*
X630946Y1219046D01*
X630470Y1219522D01*
X629041Y1219998D01*
X624756Y1219998D01*
X624756Y1210000D01*
X633659Y1219998D02*
X633659Y1210000D01*
X633659Y1219998D02*
X637468Y1210000D01*
X641277Y1219998D02*
X637468Y1210000D01*
X641277Y1219998D02*
X641277Y1210000D01*
X3333Y1219998D02*
X3333Y1210000D01*
X0Y1219998D02*
X6665Y1219998D01*
X10236Y1216665D02*
X9284Y1216189D01*
X8332Y1215237D01*
X7855Y1213809D01*
X7855Y1212857D01*
X8332Y1211428D01*
X9284Y1210476D01*
X10236Y1210000D01*
X11664Y1210000D01*
X12616Y1210476D01*
X13569Y1211428D01*
X14045Y1212857D01*
X14045Y1213809D01*
X13569Y1215237D01*
X12616Y1216189D01*
X11664Y1216665D01*
X10236Y1216665D01*
X16235Y1216665D02*
X16235Y1206667D01*
X16235Y1215237D02*
X17187Y1216189D01*
X18139Y1216665D01*
X19567Y1216665D01*
X20519Y1216189D01*
X21472Y1215237D01*
X21948Y1213809D01*
X21948Y1212857D01*
X21472Y1211428D01*
X20519Y1210476D01*
X19567Y1210000D01*
X18139Y1210000D01*
X17187Y1210476D01*
X16235Y1211428D01*
X38611Y1218570D02*
X37659Y1219522D01*
X36230Y1219998D01*
X34326Y1219998D01*
X32898Y1219522D01*
X31946Y1218570D01*
X31946Y1217617D01*
X32422Y1216665D01*
X32898Y1216189D01*
X33850Y1215713D01*
X36707Y1214761D01*
X37659Y1214285D01*
X38135Y1213809D01*
X38611Y1212857D01*
X38611Y1211428D01*
X37659Y1210476D01*
X36230Y1210000D01*
X34326Y1210000D01*
X32898Y1210476D01*
X31946Y1211428D01*
X43229Y1216665D02*
X42277Y1216189D01*
X41325Y1215237D01*
X40848Y1213809D01*
X40848Y1212857D01*
X41325Y1211428D01*
X42277Y1210476D01*
X43229Y1210000D01*
X44657Y1210000D01*
X45609Y1210476D01*
X46561Y1211428D01*
X47038Y1212857D01*
X47038Y1213809D01*
X46561Y1215237D01*
X45609Y1216189D01*
X44657Y1216665D01*
X43229Y1216665D01*
X49228Y1219998D02*
X49228Y1210000D01*
X57035Y1219998D02*
X57035Y1210000D01*
X57035Y1215237D02*
X56083Y1216189D01*
X55131Y1216665D01*
X53703Y1216665D01*
X52751Y1216189D01*
X51798Y1215237D01*
X51322Y1213809D01*
X51322Y1212857D01*
X51798Y1211428D01*
X52751Y1210476D01*
X53703Y1210000D01*
X55131Y1210000D01*
X56083Y1210476D01*
X57035Y1211428D01*
X59701Y1213809D02*
X65415Y1213809D01*
X65415Y1214761D01*
X64939Y1215713D01*
X64462Y1216189D01*
X63510Y1216665D01*
X62082Y1216665D01*
X61130Y1216189D01*
X60178Y1215237D01*
X59701Y1213809D01*
X59701Y1212857D01*
X60178Y1211428D01*
X61130Y1210476D01*
X62082Y1210000D01*
X63510Y1210000D01*
X64462Y1210476D01*
X65415Y1211428D01*
X67557Y1216665D02*
X67557Y1210000D01*
X67557Y1213809D02*
X68033Y1215237D01*
X68985Y1216189D01*
X69937Y1216665D01*
X71366Y1216665D01*
D34*
X3014571Y-924003D02*
X3012285Y-924765D01*
X3010762Y-927050D01*
X3010000Y-930859D01*
X3010000Y-933144D01*
X3010762Y-936953D01*
X3012285Y-939238D01*
X3014571Y-940000D01*
X3016094Y-940000D01*
X3018379Y-939238D01*
X3019903Y-936953D01*
X3020664Y-933144D01*
X3020664Y-930859D01*
X3019903Y-927050D01*
X3018379Y-924765D01*
X3016094Y-924003D01*
X3014571Y-924003D01*
X3031862Y-924003D02*
X3024245Y-934668D01*
X3035671Y-934668D01*
X3031862Y-924003D02*
X3031862Y-940000D01*
X3038489Y-933144D02*
X3052201Y-933144D01*
X3056924Y-927050D02*
X3058447Y-926289D01*
X3060732Y-924003D01*
X3060732Y-940000D01*
X3069416Y-927812D02*
X3069416Y-927050D01*
X3070178Y-925527D01*
X3070939Y-924765D01*
X3072463Y-924003D01*
X3075510Y-924003D01*
X3077033Y-924765D01*
X3077795Y-925527D01*
X3078557Y-927050D01*
X3078557Y-928574D01*
X3077795Y-930097D01*
X3076272Y-932383D01*
X3068654Y-940000D01*
X3079319Y-940000D01*
X3082899Y-927050D02*
X3084422Y-926289D01*
X3086707Y-924003D01*
X3086707Y-940000D01*
X3103770Y-926289D02*
X3103009Y-924765D01*
X3100723Y-924003D01*
X3099200Y-924003D01*
X3096915Y-924765D01*
X3095391Y-927050D01*
X3094630Y-930859D01*
X3094630Y-934668D01*
X3095391Y-937715D01*
X3096915Y-939238D01*
X3099200Y-940000D01*
X3099962Y-940000D01*
X3102247Y-939238D01*
X3103770Y-937715D01*
X3104532Y-935429D01*
X3104532Y-934668D01*
X3103770Y-932383D01*
X3102247Y-930859D01*
X3099962Y-930097D01*
X3099200Y-930097D01*
X3096915Y-930859D01*
X3095391Y-932383D01*
X3094630Y-934668D01*
X3117939Y-929335D02*
X3117177Y-931621D01*
X3115654Y-933144D01*
X3113369Y-933906D01*
X3112607Y-933906D01*
X3110321Y-933144D01*
X3108798Y-931621D01*
X3108036Y-929335D01*
X3108036Y-928574D01*
X3108798Y-926289D01*
X3110321Y-924765D01*
X3112607Y-924003D01*
X3113369Y-924003D01*
X3115654Y-924765D01*
X3117177Y-926289D01*
X3117939Y-929335D01*
X3117939Y-933144D01*
X3117177Y-936953D01*
X3115654Y-939238D01*
X3113369Y-940000D01*
X3111845Y-940000D01*
X3109560Y-939238D01*
X3108798Y-937715D01*
D35*
X2746663Y-783576D02*
X2744283Y-781196D01*
X2740712Y-780005D01*
X2735951Y-780005D01*
X2732381Y-781196D01*
X2730000Y-783576D01*
X2730000Y-785956D01*
X2731190Y-788337D01*
X2732381Y-789527D01*
X2734761Y-790717D01*
X2741902Y-793098D01*
X2744283Y-794288D01*
X2745473Y-795478D01*
X2746663Y-797859D01*
X2746663Y-801429D01*
X2744283Y-803810D01*
X2740712Y-805000D01*
X2735951Y-805000D01*
X2732381Y-803810D01*
X2730000Y-801429D01*
X2771301Y-805000D02*
X2761779Y-780005D01*
X2752257Y-805000D01*
X2755828Y-796668D02*
X2767730Y-796668D01*
X2777133Y-780005D02*
X2777133Y-805000D01*
X2777133Y-780005D02*
X2786655Y-805000D01*
X2796176Y-780005D02*
X2786655Y-805000D01*
X2796176Y-780005D02*
X2796176Y-805000D01*
X2822361Y-805000D02*
X2812839Y-780005D01*
X2803318Y-805000D01*
X2806888Y-796668D02*
X2818791Y-796668D01*
X2844856Y-780005D02*
X2832954Y-805000D01*
X2828193Y-780005D02*
X2844856Y-780005D01*
X2850450Y-780005D02*
X2850450Y-805000D01*
X2850450Y-780005D02*
X2858782Y-780005D01*
X2862353Y-781196D01*
X2864733Y-783576D01*
X2865923Y-785956D01*
X2867114Y-789527D01*
X2867114Y-795478D01*
X2865923Y-799049D01*
X2864733Y-801429D01*
X2862353Y-803810D01*
X2858782Y-805000D01*
X2850450Y-805000D01*
X2886990Y-783576D02*
X2885800Y-781196D01*
X2882229Y-780005D01*
X2879849Y-780005D01*
X2876278Y-781196D01*
X2873898Y-784766D01*
X2872708Y-790717D01*
X2872708Y-796668D01*
X2873898Y-801429D01*
X2876278Y-803810D01*
X2879849Y-805000D01*
X2881039Y-805000D01*
X2884610Y-803810D01*
X2886990Y-801429D01*
X2888181Y-797859D01*
X2888181Y-796668D01*
X2886990Y-793098D01*
X2884610Y-790717D01*
X2881039Y-789527D01*
X2879849Y-789527D01*
X2876278Y-790717D01*
X2873898Y-793098D01*
X2872708Y-796668D01*
X2907938Y-780005D02*
X2896036Y-780005D01*
X2894846Y-790717D01*
X2896036Y-789527D01*
X2899607Y-788337D01*
X2903177Y-788337D01*
X2906748Y-789527D01*
X2909128Y-791908D01*
X2910319Y-795478D01*
X2910319Y-797859D01*
X2909128Y-801429D01*
X2906748Y-803810D01*
X2903177Y-805000D01*
X2899607Y-805000D01*
X2896036Y-803810D01*
X2894846Y-802619D01*
X2893655Y-800239D01*
X2953405Y-785956D02*
X2952214Y-783576D01*
X2949834Y-781196D01*
X2947454Y-780005D01*
X2942693Y-780005D01*
X2940312Y-781196D01*
X2937932Y-783576D01*
X2936742Y-785956D01*
X2935551Y-789527D01*
X2935551Y-795478D01*
X2936742Y-799049D01*
X2937932Y-801429D01*
X2940312Y-803810D01*
X2942693Y-805000D01*
X2947454Y-805000D01*
X2949834Y-803810D01*
X2952214Y-801429D01*
X2953405Y-799049D01*
X2960427Y-788337D02*
X2960427Y-800239D01*
X2961617Y-803810D01*
X2963997Y-805000D01*
X2967568Y-805000D01*
X2969949Y-803810D01*
X2973519Y-800239D01*
X2973519Y-788337D02*
X2973519Y-805000D01*
X2980066Y-788337D02*
X2980066Y-805000D01*
X2980066Y-795478D02*
X2981256Y-791908D01*
X2983636Y-789527D01*
X2986017Y-788337D01*
X2989587Y-788337D01*
X2994229Y-780005D02*
X2995419Y-781196D01*
X2996609Y-780005D01*
X2995419Y-778815D01*
X2994229Y-780005D01*
X2995419Y-788337D02*
X2995419Y-805000D01*
X3006964Y-788337D02*
X3004584Y-789527D01*
X3002204Y-791908D01*
X3001013Y-795478D01*
X3001013Y-797859D01*
X3002204Y-801429D01*
X3004584Y-803810D01*
X3006964Y-805000D01*
X3010535Y-805000D01*
X3012916Y-803810D01*
X3015296Y-801429D01*
X3016486Y-797859D01*
X3016486Y-795478D01*
X3015296Y-791908D01*
X3012916Y-789527D01*
X3010535Y-788337D01*
X3006964Y-788337D01*
X3035054Y-791908D02*
X3033864Y-789527D01*
X3030293Y-788337D01*
X3026722Y-788337D01*
X3023152Y-789527D01*
X3021961Y-791908D01*
X3023152Y-794288D01*
X3025532Y-795478D01*
X3031483Y-796668D01*
X3033864Y-797859D01*
X3035054Y-800239D01*
X3035054Y-801429D01*
X3033864Y-803810D01*
X3030293Y-805000D01*
X3026722Y-805000D01*
X3023152Y-803810D01*
X3021961Y-801429D01*
X3042671Y-780005D02*
X3043861Y-781196D01*
X3045052Y-780005D01*
X3043861Y-778815D01*
X3042671Y-780005D01*
X3043861Y-788337D02*
X3043861Y-805000D01*
X3053026Y-780005D02*
X3053026Y-800239D01*
X3054216Y-803810D01*
X3056597Y-805000D01*
X3058977Y-805000D01*
X3049455Y-788337D02*
X3057787Y-788337D01*
X3063738Y-788337D02*
X3070880Y-805000D01*
X3078021Y-788337D02*
X3070880Y-805000D01*
X3068499Y-809761D01*
X3066118Y-812141D01*
X3063738Y-813332D01*
X3062548Y-813332D01*
D44*
X900000Y598500D02*
D03*
X900000Y611500D02*
D03*
X965000Y540000D02*
D03*
X958500Y540000D02*
D03*
X952000Y540000D02*
D03*
X945500Y540000D02*
D03*
X939000Y540000D02*
D03*
X932500Y540000D02*
D03*
X926000Y540000D02*
D03*
X919500Y540000D02*
D03*
X913000Y540000D02*
D03*
X900000Y540000D02*
D03*
X887000Y540000D02*
D03*
X880500Y540000D02*
D03*
X874000Y540000D02*
D03*
X867500Y540000D02*
D03*
X861000Y540000D02*
D03*
X854500Y540000D02*
D03*
X848000Y540000D02*
D03*
X841500Y540000D02*
D03*
X835000Y540000D02*
D03*
X965000Y546500D02*
D03*
X958500Y546500D02*
D03*
X952000Y546500D02*
D03*
X945500Y546500D02*
D03*
X932500Y546500D02*
D03*
X926000Y546500D02*
D03*
X913000Y546500D02*
D03*
X887000Y546500D02*
D03*
X874000Y546500D02*
D03*
X867500Y546500D02*
D03*
X854500Y546500D02*
D03*
X848000Y546500D02*
D03*
X841500Y546500D02*
D03*
X835000Y546500D02*
D03*
X965000Y553000D02*
D03*
X958500Y553000D02*
D03*
X952000Y553000D02*
D03*
X945500Y553000D02*
D03*
X939000Y553000D02*
D03*
X932500Y553000D02*
D03*
X926000Y553000D02*
D03*
X919500Y553000D02*
D03*
X900000Y553000D02*
D03*
X880500Y553000D02*
D03*
X874000Y553000D02*
D03*
X867500Y553000D02*
D03*
X861000Y553000D02*
D03*
X854500Y553000D02*
D03*
X848000Y553000D02*
D03*
X841500Y553000D02*
D03*
X835000Y553000D02*
D03*
X965000Y559500D02*
D03*
X958500Y559500D02*
D03*
X952000Y559500D02*
D03*
X945500Y559500D02*
D03*
X939000Y559500D02*
D03*
X932500Y559500D02*
D03*
X926000Y559500D02*
D03*
X919500Y559500D02*
D03*
X913000Y559500D02*
D03*
X887000Y559500D02*
D03*
X880500Y559500D02*
D03*
X874000Y559500D02*
D03*
X867500Y559500D02*
D03*
X861000Y559500D02*
D03*
X854500Y559500D02*
D03*
X848000Y559500D02*
D03*
X841500Y559500D02*
D03*
X835000Y559500D02*
D03*
X965000Y566000D02*
D03*
X952000Y566000D02*
D03*
X945500Y566000D02*
D03*
X939000Y566000D02*
D03*
X932500Y566000D02*
D03*
X926000Y566000D02*
D03*
X919500Y566000D02*
D03*
X880500Y566000D02*
D03*
X874000Y566000D02*
D03*
X867500Y566000D02*
D03*
X861000Y566000D02*
D03*
X854500Y566000D02*
D03*
X848000Y566000D02*
D03*
X835000Y566000D02*
D03*
X965000Y572500D02*
D03*
X958500Y572500D02*
D03*
X952000Y572500D02*
D03*
X945500Y572500D02*
D03*
X939000Y572500D02*
D03*
X932500Y572500D02*
D03*
X926000Y572500D02*
D03*
X919500Y572500D02*
D03*
X913000Y572500D02*
D03*
X887000Y572500D02*
D03*
X880500Y572500D02*
D03*
X874000Y572500D02*
D03*
X867500Y572500D02*
D03*
X861000Y572500D02*
D03*
X854500Y572500D02*
D03*
X848000Y572500D02*
D03*
X841500Y572500D02*
D03*
X835000Y572500D02*
D03*
X965000Y579000D02*
D03*
X958500Y579000D02*
D03*
X952000Y579000D02*
D03*
X945500Y579000D02*
D03*
X939000Y579000D02*
D03*
X932500Y579000D02*
D03*
X926000Y579000D02*
D03*
X919500Y579000D02*
D03*
X913000Y579000D02*
D03*
X906500Y579000D02*
D03*
X900000Y579000D02*
D03*
X893500Y579000D02*
D03*
X887000Y579000D02*
D03*
X880500Y579000D02*
D03*
X874000Y579000D02*
D03*
X867500Y579000D02*
D03*
X861000Y579000D02*
D03*
X854500Y579000D02*
D03*
X848000Y579000D02*
D03*
X841500Y579000D02*
D03*
X835000Y579000D02*
D03*
X965000Y585500D02*
D03*
X952000Y585500D02*
D03*
X945500Y585500D02*
D03*
X939000Y585500D02*
D03*
X932500Y585500D02*
D03*
X926000Y585500D02*
D03*
X919500Y585500D02*
D03*
X913000Y585500D02*
D03*
X906500Y585500D02*
D03*
X900000Y585500D02*
D03*
X893500Y585500D02*
D03*
X887000Y585500D02*
D03*
X880500Y585500D02*
D03*
X874000Y585500D02*
D03*
X867500Y585500D02*
D03*
X861000Y585500D02*
D03*
X854500Y585500D02*
D03*
X848000Y585500D02*
D03*
X835000Y585500D02*
D03*
X965000Y592000D02*
D03*
X958500Y592000D02*
D03*
X926000Y592000D02*
D03*
X919500Y592000D02*
D03*
X913000Y592000D02*
D03*
X906500Y592000D02*
D03*
X900000Y592000D02*
D03*
X893500Y592000D02*
D03*
X887000Y592000D02*
D03*
X880500Y592000D02*
D03*
X874000Y592000D02*
D03*
X867500Y592000D02*
D03*
X854500Y592000D02*
D03*
X841500Y592000D02*
D03*
X835000Y592000D02*
D03*
X926000Y598500D02*
D03*
X919500Y598500D02*
D03*
X913000Y598500D02*
D03*
X906500Y598500D02*
D03*
X893500Y598500D02*
D03*
X887000Y598500D02*
D03*
X880500Y598500D02*
D03*
X874000Y598500D02*
D03*
X965000Y605000D02*
D03*
X952000Y605000D02*
D03*
X926000Y605000D02*
D03*
X919500Y605000D02*
D03*
X913000Y605000D02*
D03*
X900000Y605000D02*
D03*
X887000Y605000D02*
D03*
X880500Y605000D02*
D03*
X874000Y605000D02*
D03*
X848000Y605000D02*
D03*
X835000Y605000D02*
D03*
X926000Y611500D02*
D03*
X919500Y611500D02*
D03*
X913000Y611500D02*
D03*
X906500Y611500D02*
D03*
X893500Y611500D02*
D03*
X887000Y611500D02*
D03*
X880500Y611500D02*
D03*
X874000Y611500D02*
D03*
X965000Y618000D02*
D03*
X958500Y618000D02*
D03*
X945500Y618000D02*
D03*
X932500Y618000D02*
D03*
X926000Y618000D02*
D03*
X919500Y618000D02*
D03*
X913000Y618000D02*
D03*
X906500Y618000D02*
D03*
X900000Y618000D02*
D03*
X893500Y618000D02*
D03*
X887000Y618000D02*
D03*
X880500Y618000D02*
D03*
X874000Y618000D02*
D03*
X867500Y618000D02*
D03*
X854500Y618000D02*
D03*
X841500Y618000D02*
D03*
X835000Y618000D02*
D03*
X965000Y624500D02*
D03*
X952000Y624500D02*
D03*
X945500Y624500D02*
D03*
X939000Y624500D02*
D03*
X932500Y624500D02*
D03*
X926000Y624500D02*
D03*
X919500Y624500D02*
D03*
X913000Y624500D02*
D03*
X906500Y624500D02*
D03*
X900000Y624500D02*
D03*
X893500Y624500D02*
D03*
X887000Y624500D02*
D03*
X880500Y624500D02*
D03*
X874000Y624500D02*
D03*
X867500Y624500D02*
D03*
X861000Y624500D02*
D03*
X854500Y624500D02*
D03*
X848000Y624500D02*
D03*
X835000Y624500D02*
D03*
X965000Y631000D02*
D03*
X958500Y631000D02*
D03*
X952000Y631000D02*
D03*
X945500Y631000D02*
D03*
X939000Y631000D02*
D03*
X932500Y631000D02*
D03*
X926000Y631000D02*
D03*
X919500Y631000D02*
D03*
X913000Y631000D02*
D03*
X906500Y631000D02*
D03*
X900000Y631000D02*
D03*
X893500Y631000D02*
D03*
X887000Y631000D02*
D03*
X880500Y631000D02*
D03*
X874000Y631000D02*
D03*
X867500Y631000D02*
D03*
X861000Y631000D02*
D03*
X854500Y631000D02*
D03*
X848000Y631000D02*
D03*
X841500Y631000D02*
D03*
X835000Y631000D02*
D03*
X965000Y637500D02*
D03*
X958500Y637500D02*
D03*
X952000Y637500D02*
D03*
X945500Y637500D02*
D03*
X939000Y637500D02*
D03*
X932500Y637500D02*
D03*
X926000Y637500D02*
D03*
X919500Y637500D02*
D03*
X913000Y637500D02*
D03*
X887000Y637500D02*
D03*
X880500Y637500D02*
D03*
X874000Y637500D02*
D03*
X867500Y637500D02*
D03*
X861000Y637500D02*
D03*
X854500Y637500D02*
D03*
X848000Y637500D02*
D03*
X841500Y637500D02*
D03*
X835000Y637500D02*
D03*
X965000Y644000D02*
D03*
X952000Y644000D02*
D03*
X945500Y644000D02*
D03*
X939000Y644000D02*
D03*
X932500Y644000D02*
D03*
X926000Y644000D02*
D03*
X919500Y644000D02*
D03*
X880500Y644000D02*
D03*
X874000Y644000D02*
D03*
X867500Y644000D02*
D03*
X861000Y644000D02*
D03*
X854500Y644000D02*
D03*
X848000Y644000D02*
D03*
X835000Y644000D02*
D03*
X965000Y650500D02*
D03*
X958500Y650500D02*
D03*
X952000Y650500D02*
D03*
X945500Y650500D02*
D03*
X939000Y650500D02*
D03*
X932500Y650500D02*
D03*
X926000Y650500D02*
D03*
X919500Y650500D02*
D03*
X913000Y650500D02*
D03*
X887000Y650500D02*
D03*
X880500Y650500D02*
D03*
X874000Y650500D02*
D03*
X867500Y650500D02*
D03*
X861000Y650500D02*
D03*
X854500Y650500D02*
D03*
X848000Y650500D02*
D03*
X841500Y650500D02*
D03*
X835000Y650500D02*
D03*
X965000Y657000D02*
D03*
X958500Y657000D02*
D03*
X952000Y657000D02*
D03*
X945500Y657000D02*
D03*
X939000Y657000D02*
D03*
X932500Y657000D02*
D03*
X926000Y657000D02*
D03*
X919500Y657000D02*
D03*
X900000Y657000D02*
D03*
X880500Y657000D02*
D03*
X874000Y657000D02*
D03*
X867500Y657000D02*
D03*
X861000Y657000D02*
D03*
X854500Y657000D02*
D03*
X848000Y657000D02*
D03*
X841500Y657000D02*
D03*
X835000Y657000D02*
D03*
X965000Y663500D02*
D03*
X958500Y663500D02*
D03*
X952000Y663500D02*
D03*
X945500Y663500D02*
D03*
X932500Y663500D02*
D03*
X926000Y663500D02*
D03*
X913000Y663500D02*
D03*
X887000Y663500D02*
D03*
X874000Y663500D02*
D03*
X867500Y663500D02*
D03*
X854500Y663500D02*
D03*
X848000Y663500D02*
D03*
X841500Y663500D02*
D03*
X835000Y663500D02*
D03*
X965000Y670000D02*
D03*
X958500Y670000D02*
D03*
X952000Y670000D02*
D03*
X945500Y670000D02*
D03*
X939000Y670000D02*
D03*
X932500Y670000D02*
D03*
X926000Y670000D02*
D03*
X919500Y670000D02*
D03*
X913000Y670000D02*
D03*
X900000Y670000D02*
D03*
X887000Y670000D02*
D03*
X880500Y670000D02*
D03*
X874000Y670000D02*
D03*
X867500Y670000D02*
D03*
X861000Y670000D02*
D03*
X854500Y670000D02*
D03*
X848000Y670000D02*
D03*
X841500Y670000D02*
D03*
X835000Y670000D02*
D03*
X945500Y592000D02*
D03*
X932500Y592000D02*
D03*
D56*
X1441500Y794000D02*
D03*
X1441500Y824000D02*
D03*
X1417000Y794000D02*
D03*
X1417000Y824000D02*
D03*
X1259000Y794000D02*
D03*
X1259000Y824000D02*
D03*
X1234750Y794000D02*
D03*
X1234750Y824000D02*
D03*
D83*
X935500Y445000D02*
D03*
X920500Y445000D02*
D03*
D92*
X165004Y88251D02*
G03*
X165004Y88251I-75000J0D01*
G01*
D93*
X642750Y222750D02*
D03*
X651750Y222750D02*
D03*
X546750Y566750D02*
D03*
X546750Y556750D02*
D03*
X1353750Y635750D02*
D03*
X1362750Y635750D02*
D03*
X505250Y298500D02*
D03*
X496250Y298500D02*
D03*
X691500Y252000D02*
D03*
X682500Y252000D02*
D03*
X448250Y587750D02*
D03*
X457250Y587750D02*
D03*
X438250Y587750D02*
D03*
X429250Y587750D02*
D03*
X490750Y570750D02*
D03*
X499750Y570750D02*
D03*
X556250Y465500D02*
D03*
X565250Y465500D02*
D03*
X555750Y556750D02*
D03*
X556250Y475500D02*
D03*
X565250Y475500D02*
D03*
X801250Y615500D02*
D03*
X810250Y615500D02*
D03*
X791250Y614750D02*
D03*
X782250Y614750D02*
D03*
X457250Y597750D02*
D03*
X448250Y597750D02*
D03*
X1273750Y661750D02*
D03*
X1282750Y661750D02*
D03*
X651750Y251750D02*
D03*
X660750Y251750D02*
D03*
X1410250Y722750D02*
D03*
X1419250Y722750D02*
D03*
X1419250Y712750D02*
D03*
X1410250Y712750D02*
D03*
X1401750Y638500D02*
D03*
X1392750Y638500D02*
D03*
X1373000Y623000D02*
D03*
X1382000Y623000D02*
D03*
X1401000Y623000D02*
D03*
X1392000Y623000D02*
D03*
X1310000Y578000D02*
D03*
X1319000Y578000D02*
D03*
X1331500Y578250D02*
D03*
X1340500Y578250D02*
D03*
X1273750Y641750D02*
D03*
X1282750Y641750D02*
D03*
X1282750Y651750D02*
D03*
X1273750Y651750D02*
D03*
X1292750Y636750D02*
D03*
X1301750Y636750D02*
D03*
X1292750Y646750D02*
D03*
X1301750Y646750D02*
D03*
X1292750Y656750D02*
D03*
X1301750Y656750D02*
D03*
X1292750Y666750D02*
D03*
X1301750Y666750D02*
D03*
X1307000Y683000D02*
D03*
X1298000Y683000D02*
D03*
X1298000Y693000D02*
D03*
X1307000Y693000D02*
D03*
X1273750Y671750D02*
D03*
X1282750Y671750D02*
D03*
X1298000Y702750D02*
D03*
X1307000Y702750D02*
D03*
X1298000Y712750D02*
D03*
X1307000Y712750D02*
D03*
X1349500Y814750D02*
D03*
X1358500Y814750D02*
D03*
X1380250Y793000D02*
D03*
X1371250Y793000D02*
D03*
X1299750Y801250D02*
D03*
X1308750Y801250D02*
D03*
X1570000Y863750D02*
D03*
X1579000Y863750D02*
D03*
X1570000Y873750D02*
D03*
X1579000Y873750D02*
D03*
X1609250Y779750D02*
D03*
X1600250Y779750D02*
D03*
X1559750Y777000D02*
D03*
X1550750Y777000D02*
D03*
X1580250Y893000D02*
D03*
X1571250Y893000D02*
D03*
X1552250Y893000D02*
D03*
X1561250Y893000D02*
D03*
X1488750Y894500D02*
D03*
X1479750Y894500D02*
D03*
X1488750Y904500D02*
D03*
X1479750Y904500D02*
D03*
X1230000Y1115250D02*
D03*
X1221000Y1115250D02*
D03*
X1230000Y1105250D02*
D03*
X1221000Y1105250D02*
D03*
X537750Y566750D02*
D03*
X579250Y561500D02*
D03*
X588250Y561500D02*
D03*
X579000Y593500D02*
D03*
X570000Y593500D02*
D03*
X549500Y893500D02*
D03*
X558500Y893500D02*
D03*
X530500Y893500D02*
D03*
X539500Y893500D02*
D03*
X530500Y883500D02*
D03*
X539500Y883500D02*
D03*
X549500Y883500D02*
D03*
X558500Y883500D02*
D03*
X571750Y173500D02*
D03*
X562750Y173500D02*
D03*
X564500Y61000D02*
D03*
X555500Y61000D02*
D03*
X946000Y471750D02*
D03*
X955000Y471750D02*
D03*
X974000Y471750D02*
D03*
X965000Y471750D02*
D03*
X979250Y461750D02*
D03*
X988250Y461750D02*
D03*
X978250Y432250D02*
D03*
X969250Y432250D02*
D03*
X914000Y461250D02*
D03*
X923000Y461250D02*
D03*
X942000Y461250D02*
D03*
X933000Y461250D02*
D03*
X684500Y582000D02*
D03*
X693500Y582000D02*
D03*
X667750Y678500D02*
D03*
X676750Y678500D02*
D03*
X667750Y688500D02*
D03*
X676750Y688500D02*
D03*
X667750Y698500D02*
D03*
X676750Y698500D02*
D03*
X667750Y708500D02*
D03*
X676750Y708500D02*
D03*
X714750Y823000D02*
D03*
X723750Y823000D02*
D03*
X724000Y867750D02*
D03*
X715000Y867750D02*
D03*
X724000Y857750D02*
D03*
X715000Y857750D02*
D03*
X750500Y906250D02*
D03*
X741500Y906250D02*
D03*
X499750Y560750D02*
D03*
X508750Y560750D02*
D03*
X602250Y710000D02*
D03*
X611250Y710000D02*
D03*
X602250Y720000D02*
D03*
X611250Y720000D02*
D03*
X602262Y729930D02*
D03*
X611262Y729930D02*
D03*
X602250Y740000D02*
D03*
X611250Y740000D02*
D03*
X502000Y783750D02*
D03*
X493000Y783750D02*
D03*
X431000Y691250D02*
D03*
X440000Y691250D02*
D03*
X431000Y681250D02*
D03*
X440000Y681250D02*
D03*
X431000Y701250D02*
D03*
X440000Y701250D02*
D03*
X431000Y711250D02*
D03*
X440000Y711250D02*
D03*
X431000Y721250D02*
D03*
X440000Y721250D02*
D03*
X431000Y731250D02*
D03*
X440000Y731250D02*
D03*
X438250Y597750D02*
D03*
X429250Y597750D02*
D03*
X441250Y645250D02*
D03*
X450250Y645250D02*
D03*
X427750Y545500D02*
D03*
X436750Y545500D02*
D03*
X83000Y265750D02*
D03*
X74000Y265750D02*
D03*
X83000Y255750D02*
D03*
X74000Y255750D02*
D03*
X123500Y370000D02*
D03*
X114500Y370000D02*
D03*
X114500Y380000D02*
D03*
X123500Y380000D02*
D03*
X114500Y390000D02*
D03*
X123500Y390000D02*
D03*
X88750Y370000D02*
D03*
X79750Y370000D02*
D03*
X79750Y380000D02*
D03*
X88750Y380000D02*
D03*
X79750Y390000D02*
D03*
X88750Y390000D02*
D03*
X693500Y572000D02*
D03*
X684500Y572000D02*
D03*
X711000Y691250D02*
D03*
X720000Y691250D02*
D03*
D94*
X741098Y864946D02*
D03*
X750598Y864946D02*
D03*
X760098Y864946D02*
D03*
X760098Y892946D02*
D03*
X750598Y892946D02*
D03*
X741098Y892946D02*
D03*
D95*
X532750Y542250D02*
D03*
X547750Y492250D02*
D03*
X542750Y542250D02*
D03*
X562750Y542250D02*
D03*
X557750Y542250D02*
D03*
X552750Y542250D02*
D03*
X547750Y542250D02*
D03*
X537750Y542250D02*
D03*
X527750Y542250D02*
D03*
X527750Y492250D02*
D03*
X532750Y492250D02*
D03*
X537750Y492250D02*
D03*
X542750Y492250D02*
D03*
X552750Y492250D02*
D03*
X557750Y492250D02*
D03*
X562750Y492250D02*
D03*
D96*
X1088000Y1041500D02*
D03*
X1069000Y1041500D02*
D03*
X1069000Y1047500D02*
D03*
X1088000Y1047500D02*
D03*
X851500Y1039750D02*
D03*
X832500Y1039750D02*
D03*
X832500Y1045750D02*
D03*
X851500Y1045750D02*
D03*
X1262500Y1099000D02*
D03*
X1243500Y1099000D02*
D03*
X1243500Y1105000D02*
D03*
X1262500Y1105000D02*
D03*
D97*
X1086000Y1039500D02*
D03*
X1081000Y1039500D02*
D03*
X1076000Y1039500D02*
D03*
X1071000Y1039500D02*
D03*
X1071000Y1049500D02*
D03*
X1076000Y1049500D02*
D03*
X1081000Y1049500D02*
D03*
X1086000Y1049500D02*
D03*
X849500Y1037750D02*
D03*
X844500Y1037750D02*
D03*
X839500Y1037750D02*
D03*
X834500Y1037750D02*
D03*
X834500Y1047750D02*
D03*
X839500Y1047750D02*
D03*
X844500Y1047750D02*
D03*
X849500Y1047750D02*
D03*
X1260500Y1097000D02*
D03*
X1255500Y1097000D02*
D03*
X1250500Y1097000D02*
D03*
X1245500Y1097000D02*
D03*
X1245500Y1107000D02*
D03*
X1250500Y1107000D02*
D03*
X1255500Y1107000D02*
D03*
X1260500Y1107000D02*
D03*
D98*
X1555750Y813500D02*
D03*
X1574750Y813500D02*
D03*
X1565250Y790500D02*
D03*
X124250Y334750D02*
D03*
X133750Y357750D02*
D03*
X114750Y357750D02*
D03*
X89250Y334750D02*
D03*
X98750Y357750D02*
D03*
X79750Y357750D02*
D03*
D99*
X1074000Y817000D02*
D03*
X1018000Y753000D02*
D03*
X1018000Y737000D02*
D03*
X1018000Y721000D02*
D03*
X1082000Y721000D02*
D03*
X1082000Y737000D02*
D03*
X1026000Y777000D02*
D03*
X1018000Y793000D02*
D03*
X1074000Y793000D02*
D03*
X1082000Y753000D02*
D03*
X1082000Y793000D02*
D03*
X1034000Y833000D02*
D03*
X1018000Y833000D02*
D03*
X1018000Y809000D02*
D03*
X1026000Y809000D02*
D03*
X1018000Y817000D02*
D03*
X1082000Y801000D02*
D03*
X1082000Y833000D02*
D03*
X1082000Y841000D02*
D03*
X1074000Y777000D02*
D03*
X1074000Y809000D02*
D03*
X1082000Y761000D02*
D03*
X1018000Y761000D02*
D03*
X1082000Y777000D02*
D03*
X1018000Y777000D02*
D03*
X1066000Y753000D02*
D03*
X1066000Y721000D02*
D03*
X1034000Y793000D02*
D03*
X1066000Y825000D02*
D03*
X1066000Y833000D02*
D03*
X1066000Y777000D02*
D03*
X1066000Y769000D02*
D03*
X1034000Y753000D02*
D03*
X1018000Y769000D02*
D03*
X1082000Y809000D02*
D03*
X1026000Y817000D02*
D03*
X1018000Y825000D02*
D03*
X1018000Y841000D02*
D03*
X1026000Y833000D02*
D03*
X1018000Y801000D02*
D03*
X1026000Y785000D02*
D03*
X1026000Y769000D02*
D03*
X1018000Y745000D02*
D03*
X1018000Y729000D02*
D03*
X1082000Y729000D02*
D03*
X1082000Y745000D02*
D03*
X1066000Y793000D02*
D03*
X1074000Y769000D02*
D03*
X1074000Y841000D02*
D03*
X1082000Y825000D02*
D03*
X1082000Y817000D02*
D03*
X1082000Y785000D02*
D03*
X1034000Y809000D02*
D03*
X1074000Y761000D02*
D03*
X1066000Y801000D02*
D03*
X1026000Y801000D02*
D03*
X1074000Y801000D02*
D03*
X1034000Y785000D02*
D03*
X1074000Y785000D02*
D03*
X1026000Y793000D02*
D03*
X1066000Y785000D02*
D03*
X1066000Y817000D02*
D03*
X1034000Y825000D02*
D03*
X1074000Y825000D02*
D03*
X1026000Y825000D02*
D03*
X1066000Y841000D02*
D03*
X1026000Y841000D02*
D03*
X1074000Y833000D02*
D03*
X1034000Y841000D02*
D03*
X1034000Y745000D02*
D03*
X1066000Y737000D02*
D03*
X1034000Y737000D02*
D03*
X1026000Y745000D02*
D03*
X1074000Y737000D02*
D03*
X1026000Y737000D02*
D03*
X1074000Y729000D02*
D03*
X1026000Y729000D02*
D03*
X1074000Y721000D02*
D03*
X1034000Y729000D02*
D03*
X1066000Y761000D02*
D03*
X1066000Y729000D02*
D03*
X1066000Y745000D02*
D03*
X1034000Y721000D02*
D03*
X1026000Y753000D02*
D03*
X1074000Y745000D02*
D03*
X1034000Y777000D02*
D03*
X1034000Y769000D02*
D03*
X1082000Y769000D02*
D03*
X1026000Y761000D02*
D03*
X1034000Y761000D02*
D03*
X1026000Y721000D02*
D03*
X1074000Y753000D02*
D03*
X1018000Y785000D02*
D03*
X1066000Y809000D02*
D03*
X1034000Y817000D02*
D03*
X1034000Y801000D02*
D03*
X720000Y756000D02*
D03*
X728000Y756000D02*
D03*
X736000Y756000D02*
D03*
X744000Y756000D02*
D03*
X752000Y756000D02*
D03*
X760000Y756000D02*
D03*
X760000Y748000D02*
D03*
X752000Y748000D02*
D03*
X744000Y748000D02*
D03*
X736000Y748000D02*
D03*
X728000Y748000D02*
D03*
X720000Y748000D02*
D03*
X760000Y740000D02*
D03*
X752000Y740000D02*
D03*
X744000Y740000D02*
D03*
X736000Y740000D02*
D03*
X728000Y740000D02*
D03*
X720000Y740000D02*
D03*
X760000Y732000D02*
D03*
X752000Y732000D02*
D03*
X744000Y732000D02*
D03*
X736000Y732000D02*
D03*
X728000Y732000D02*
D03*
X720000Y732000D02*
D03*
X776000Y724000D02*
D03*
X768000Y724000D02*
D03*
X712000Y724000D02*
D03*
X704000Y724000D02*
D03*
X776000Y716000D02*
D03*
X768000Y716000D02*
D03*
X712000Y716000D02*
D03*
X704000Y716000D02*
D03*
X720000Y764000D02*
D03*
X728000Y764000D02*
D03*
X736000Y764000D02*
D03*
X744000Y764000D02*
D03*
X752000Y764000D02*
D03*
X760000Y764000D02*
D03*
X720000Y772000D02*
D03*
X728000Y772000D02*
D03*
X736000Y772000D02*
D03*
X744000Y772000D02*
D03*
X752000Y772000D02*
D03*
X760000Y772000D02*
D03*
X720000Y780000D02*
D03*
X728000Y780000D02*
D03*
X736000Y780000D02*
D03*
X744000Y780000D02*
D03*
X752000Y780000D02*
D03*
X760000Y780000D02*
D03*
X720000Y788000D02*
D03*
X728000Y788000D02*
D03*
X736000Y788000D02*
D03*
X744000Y788000D02*
D03*
X752000Y788000D02*
D03*
X760000Y788000D02*
D03*
X704000Y796000D02*
D03*
X768000Y796000D02*
D03*
X776000Y796000D02*
D03*
X776000Y804000D02*
D03*
X768000Y804000D02*
D03*
X712000Y804000D02*
D03*
X704000Y804000D02*
D03*
D100*
X534750Y603000D02*
D03*
X557750Y593500D02*
D03*
X557750Y612500D02*
D03*
X588500Y762500D02*
D03*
X611500Y753000D02*
D03*
X611500Y772000D02*
D03*
X517250Y726000D02*
D03*
X494250Y735500D02*
D03*
X494250Y716500D02*
D03*
X517250Y761000D02*
D03*
X494250Y770500D02*
D03*
X494250Y751500D02*
D03*
X97500Y310750D02*
D03*
X97500Y291750D02*
D03*
X74500Y301250D02*
D03*
D101*
X443250Y504750D02*
D03*
X443250Y523750D02*
D03*
X1417000Y846000D02*
D03*
X1417000Y865000D02*
D03*
X1417000Y904000D02*
D03*
X1417000Y885000D02*
D03*
X1259000Y904000D02*
D03*
X1259000Y885000D02*
D03*
X1259000Y846000D02*
D03*
X1259000Y865000D02*
D03*
X443250Y491250D02*
D03*
X443250Y472250D02*
D03*
X445750Y435250D02*
D03*
X445750Y454250D02*
D03*
D102*
X886250Y123250D02*
D03*
X886250Y91250D02*
D03*
X833750Y91250D02*
D03*
X833750Y123250D02*
D03*
X643750Y123250D02*
D03*
X643750Y91250D02*
D03*
X696250Y91250D02*
D03*
X696250Y123250D02*
D03*
X1013750Y123250D02*
D03*
X1013750Y91250D02*
D03*
X1066250Y91250D02*
D03*
X1066250Y123250D02*
D03*
X1203750Y123250D02*
D03*
X1203750Y91250D02*
D03*
X1256250Y91250D02*
D03*
X1256250Y123250D02*
D03*
D103*
X1278250Y1043250D02*
D03*
X1338250Y1043250D02*
D03*
D104*
X685250Y510750D02*
D03*
X685250Y519750D02*
D03*
X651750Y232750D02*
D03*
X651750Y241750D02*
D03*
X481250Y452000D02*
D03*
X481250Y461000D02*
D03*
X638000Y252750D02*
D03*
X638000Y261750D02*
D03*
X708000Y616000D02*
D03*
X708000Y625000D02*
D03*
X651500Y510250D02*
D03*
X651500Y519250D02*
D03*
X753500Y69750D02*
D03*
X753500Y78750D02*
D03*
X743533Y69731D02*
D03*
X743533Y78731D02*
D03*
X712000Y100750D02*
D03*
X712000Y91750D02*
D03*
X722000Y100750D02*
D03*
X722000Y91750D02*
D03*
X914750Y100750D02*
D03*
X914750Y91750D02*
D03*
X1102000Y100250D02*
D03*
X1102000Y91250D02*
D03*
X1092000Y100250D02*
D03*
X1092000Y91250D02*
D03*
X1082000Y100250D02*
D03*
X1082000Y91250D02*
D03*
X1374000Y842250D02*
D03*
X1374000Y851250D02*
D03*
X1374000Y907750D02*
D03*
X1374000Y898750D02*
D03*
X1347000Y916250D02*
D03*
X1347000Y925250D02*
D03*
X1334000Y925250D02*
D03*
X1334000Y916250D02*
D03*
X1302000Y907750D02*
D03*
X1302000Y898750D02*
D03*
X1302000Y842500D02*
D03*
X1302000Y851500D02*
D03*
X1335500Y823250D02*
D03*
X1335500Y832250D02*
D03*
X1409750Y735250D02*
D03*
X1409750Y744250D02*
D03*
X1399750Y744250D02*
D03*
X1399750Y735250D02*
D03*
X1389750Y744250D02*
D03*
X1389750Y735250D02*
D03*
X1379750Y735250D02*
D03*
X1379750Y744250D02*
D03*
X1353250Y625750D02*
D03*
X1353250Y616750D02*
D03*
X1353250Y590750D02*
D03*
X1353250Y599750D02*
D03*
X1380250Y572250D02*
D03*
X1380250Y581250D02*
D03*
X1370250Y572250D02*
D03*
X1370250Y581250D02*
D03*
X1294500Y599000D02*
D03*
X1294500Y590000D02*
D03*
X1291500Y617750D02*
D03*
X1291500Y626750D02*
D03*
X1321750Y815500D02*
D03*
X1321750Y824500D02*
D03*
X1311750Y815500D02*
D03*
X1311750Y824500D02*
D03*
X1572250Y853750D02*
D03*
X1572250Y844750D02*
D03*
X1562250Y853750D02*
D03*
X1562250Y844750D02*
D03*
X1552250Y853750D02*
D03*
X1552250Y862750D02*
D03*
X1572250Y834750D02*
D03*
X1572250Y825750D02*
D03*
X1487000Y845000D02*
D03*
X1487000Y854000D02*
D03*
X1487000Y865000D02*
D03*
X1487000Y874000D02*
D03*
X1588500Y1065250D02*
D03*
X1588500Y1056250D02*
D03*
X1185250Y1133250D02*
D03*
X1185250Y1124250D02*
D03*
X481250Y480000D02*
D03*
X481250Y471000D02*
D03*
X662500Y510750D02*
D03*
X662500Y519750D02*
D03*
X585750Y186500D02*
D03*
X585750Y195500D02*
D03*
X945250Y481750D02*
D03*
X945250Y490750D02*
D03*
X955000Y481750D02*
D03*
X955000Y490750D02*
D03*
X965000Y481750D02*
D03*
X965000Y490750D02*
D03*
X995250Y447000D02*
D03*
X995250Y438000D02*
D03*
X757000Y523750D02*
D03*
X757000Y514750D02*
D03*
X975750Y719500D02*
D03*
X975750Y710500D02*
D03*
X676000Y646500D02*
D03*
X676000Y637500D02*
D03*
X687000Y779000D02*
D03*
X687000Y788000D02*
D03*
X728000Y892750D02*
D03*
X728000Y883750D02*
D03*
X673750Y510750D02*
D03*
X673750Y519750D02*
D03*
X576250Y771500D02*
D03*
X576250Y762500D02*
D03*
X530250Y742500D02*
D03*
X530250Y751500D02*
D03*
X530250Y770500D02*
D03*
X530250Y761500D02*
D03*
X296750Y521500D02*
D03*
X296750Y512500D02*
D03*
X286750Y521500D02*
D03*
X286750Y512500D02*
D03*
X757000Y542750D02*
D03*
X757000Y533750D02*
D03*
D105*
X623500Y216250D02*
D03*
X623500Y222750D02*
D03*
X623500Y229250D02*
D03*
X623500Y235750D02*
D03*
X623500Y242250D02*
D03*
X623500Y248750D02*
D03*
X623500Y255250D02*
D03*
X623500Y261750D02*
D03*
X564500Y216250D02*
D03*
X564500Y222750D02*
D03*
X564500Y229250D02*
D03*
X564500Y235750D02*
D03*
X564500Y242250D02*
D03*
X564500Y248750D02*
D03*
X564500Y255250D02*
D03*
X564500Y261750D02*
D03*
D106*
X570250Y499750D02*
D03*
X570250Y504750D02*
D03*
X570250Y509750D02*
D03*
X570250Y514750D02*
D03*
X570250Y519750D02*
D03*
X570250Y524750D02*
D03*
X570250Y529750D02*
D03*
X570250Y534750D02*
D03*
X520250Y534750D02*
D03*
X520250Y529750D02*
D03*
X520250Y524750D02*
D03*
X520250Y519750D02*
D03*
X520250Y514750D02*
D03*
X520250Y509750D02*
D03*
X520250Y504750D02*
D03*
X520250Y499750D02*
D03*
D107*
X545250Y517250D02*
D03*
D108*
X500250Y520750D02*
D03*
X479250Y520750D02*
D03*
X526250Y463750D02*
D03*
X505250Y463750D02*
D03*
D109*
X486500Y549250D02*
D03*
X502500Y549250D02*
D03*
X535750Y555250D02*
D03*
X519750Y555250D02*
D03*
X1617250Y791250D02*
D03*
X1601250Y791250D02*
D03*
X1498750Y1081250D02*
D03*
X1514750Y1081250D02*
D03*
X491750Y492250D02*
D03*
X507750Y492250D02*
D03*
X75000Y277250D02*
D03*
X91000Y277250D02*
D03*
D110*
X544250Y477000D02*
D03*
X544250Y461000D02*
D03*
X903250Y91750D02*
D03*
X903250Y107750D02*
D03*
X1186500Y91250D02*
D03*
X1186500Y107250D02*
D03*
X1329250Y1144250D02*
D03*
X1329250Y1128250D02*
D03*
X1185250Y1160500D02*
D03*
X1185250Y1144500D02*
D03*
X427250Y520250D02*
D03*
X427250Y504250D02*
D03*
X427250Y471750D02*
D03*
X427250Y487750D02*
D03*
X429750Y454250D02*
D03*
X429750Y438250D02*
D03*
X111250Y310750D02*
D03*
X111250Y294750D02*
D03*
D111*
X720950Y622250D02*
D03*
X733650Y622250D02*
D03*
X746350Y622250D02*
D03*
X759050Y622250D02*
D03*
X759050Y678250D02*
D03*
X746350Y678250D02*
D03*
X733650Y678250D02*
D03*
X720950Y678250D02*
D03*
D112*
X740000Y650250D02*
D03*
D113*
X1424500Y1119500D02*
D03*
D114*
X1393000Y866000D02*
D03*
X1393000Y846000D02*
D03*
X1393000Y884000D02*
D03*
X1393000Y904000D02*
D03*
X1283000Y866000D02*
D03*
X1283000Y846000D02*
D03*
X1283000Y884000D02*
D03*
X1283000Y904000D02*
D03*
D115*
X1435500Y794000D02*
D03*
X1447500Y794000D02*
D03*
X1447500Y824000D02*
D03*
X1435500Y824000D02*
D03*
X1411000Y794000D02*
D03*
X1423000Y794000D02*
D03*
X1423000Y824000D02*
D03*
X1411000Y824000D02*
D03*
X1253000Y794000D02*
D03*
X1265000Y794000D02*
D03*
X1265000Y824000D02*
D03*
X1253000Y824000D02*
D03*
X1228750Y794000D02*
D03*
X1240750Y794000D02*
D03*
X1240750Y824000D02*
D03*
X1228750Y824000D02*
D03*
D116*
X1313000Y857500D02*
D03*
X1313000Y862500D02*
D03*
X1313000Y867500D02*
D03*
X1313000Y872500D02*
D03*
X1313000Y877500D02*
D03*
X1313000Y882500D02*
D03*
X1313000Y887500D02*
D03*
X1313000Y892500D02*
D03*
X1363000Y892500D02*
D03*
X1363000Y887500D02*
D03*
X1363000Y882500D02*
D03*
X1363000Y877500D02*
D03*
X1363000Y872500D02*
D03*
X1363000Y867500D02*
D03*
X1363000Y862500D02*
D03*
X1363000Y857500D02*
D03*
D117*
X1320500Y900000D02*
D03*
X1325500Y900000D02*
D03*
X1330500Y900000D02*
D03*
X1335500Y900000D02*
D03*
X1340500Y900000D02*
D03*
X1345500Y900000D02*
D03*
X1350500Y900000D02*
D03*
X1355500Y900000D02*
D03*
X1355500Y850000D02*
D03*
X1350500Y850000D02*
D03*
X1345500Y850000D02*
D03*
X1340500Y850000D02*
D03*
X1335500Y850000D02*
D03*
X1330500Y850000D02*
D03*
X1325500Y850000D02*
D03*
X1320500Y850000D02*
D03*
D118*
X1338000Y875002D02*
D03*
D119*
X1416750Y776500D02*
D03*
X1441250Y778250D02*
D03*
X1234500Y775250D02*
D03*
X1214000Y751250D02*
D03*
X1258750Y780750D02*
D03*
D120*
X1380500Y599750D02*
D03*
X1393500Y599750D02*
D03*
X1393500Y610750D02*
D03*
X1380500Y610750D02*
D03*
D121*
X1339250Y589750D02*
D03*
X1339250Y594750D02*
D03*
X1339250Y599750D02*
D03*
X1339250Y604750D02*
D03*
X1339250Y609750D02*
D03*
X1339250Y614750D02*
D03*
X1339250Y619750D02*
D03*
X1309250Y619750D02*
D03*
X1309250Y614750D02*
D03*
X1309250Y609750D02*
D03*
X1309250Y604750D02*
D03*
X1309250Y599750D02*
D03*
X1309250Y594750D02*
D03*
X1309250Y589750D02*
D03*
D122*
X1324250Y596350D02*
D03*
D123*
X1396750Y657500D02*
D03*
X1396750Y662500D02*
D03*
X1396750Y667500D02*
D03*
X1396750Y672500D02*
D03*
X1396750Y677500D02*
D03*
X1396750Y682500D02*
D03*
X1396750Y687500D02*
D03*
X1396750Y692500D02*
D03*
X1396750Y697500D02*
D03*
X1396750Y702500D02*
D03*
X1396750Y707500D02*
D03*
X1396750Y712500D02*
D03*
X1327750Y712500D02*
D03*
X1327750Y707500D02*
D03*
X1327750Y702500D02*
D03*
X1327750Y697500D02*
D03*
X1327750Y692500D02*
D03*
X1327750Y687500D02*
D03*
X1327750Y682500D02*
D03*
X1327750Y677500D02*
D03*
X1327750Y672500D02*
D03*
X1327750Y667500D02*
D03*
X1327750Y662500D02*
D03*
X1327750Y657500D02*
D03*
D124*
X1362250Y685000D02*
D03*
D125*
X1334750Y719500D02*
D03*
X1339750Y719500D02*
D03*
X1344750Y719500D02*
D03*
X1349750Y719500D02*
D03*
X1354750Y719500D02*
D03*
X1359750Y719500D02*
D03*
X1364750Y719500D02*
D03*
X1369750Y719500D02*
D03*
X1374750Y719500D02*
D03*
X1379750Y719500D02*
D03*
X1384750Y719500D02*
D03*
X1389750Y719500D02*
D03*
X1334750Y650500D02*
D03*
X1339750Y650500D02*
D03*
X1344750Y650500D02*
D03*
X1349750Y650500D02*
D03*
X1354750Y650500D02*
D03*
X1359750Y650500D02*
D03*
X1364750Y650500D02*
D03*
X1369750Y650500D02*
D03*
X1374750Y650500D02*
D03*
X1379750Y650500D02*
D03*
X1384750Y650500D02*
D03*
X1389750Y650500D02*
D03*
D126*
X1339715Y783243D02*
D03*
D127*
X1359715Y792993D02*
D03*
X1359715Y786493D02*
D03*
X1359715Y779993D02*
D03*
X1359715Y773493D02*
D03*
X1319715Y773493D02*
D03*
X1319715Y779993D02*
D03*
X1319715Y786493D02*
D03*
X1319715Y792993D02*
D03*
D128*
X1349465Y763243D02*
D03*
X1342965Y763243D02*
D03*
X1336465Y763243D02*
D03*
X1329965Y763243D02*
D03*
X1329965Y803243D02*
D03*
X1336465Y803243D02*
D03*
X1342965Y803243D02*
D03*
X1349465Y803243D02*
D03*
D129*
X1536500Y933000D02*
D03*
X1506500Y928000D02*
D03*
X1536500Y923000D02*
D03*
X1506500Y918000D02*
D03*
X1536500Y913000D02*
D03*
X1506500Y908000D02*
D03*
X1536500Y903000D02*
D03*
X1506500Y898000D02*
D03*
X1536500Y893000D02*
D03*
X1506500Y888000D02*
D03*
X1536500Y883000D02*
D03*
X1506500Y878000D02*
D03*
X1536500Y873000D02*
D03*
X1506500Y868000D02*
D03*
X1536500Y863000D02*
D03*
X1506500Y858000D02*
D03*
X1536500Y853000D02*
D03*
X1506500Y848000D02*
D03*
X1536500Y843000D02*
D03*
X1506500Y838000D02*
D03*
X1536500Y833000D02*
D03*
X1536500Y943000D02*
D03*
X1506500Y948000D02*
D03*
X1536500Y953000D02*
D03*
X1506500Y958000D02*
D03*
X1536500Y963000D02*
D03*
X1506500Y968000D02*
D03*
X1536500Y973000D02*
D03*
X1506500Y978000D02*
D03*
X1506500Y938000D02*
D03*
D130*
X1506500Y988000D02*
D03*
X1536500Y988000D02*
D03*
X1506500Y823000D02*
D03*
X1536500Y823000D02*
D03*
D131*
X1634250Y1062250D02*
D03*
X1600250Y1062250D02*
D03*
D132*
X1624000Y826250D02*
D03*
X1596000Y826250D02*
D03*
X1624000Y1016250D02*
D03*
X1596000Y1016250D02*
D03*
D133*
X1596000Y943750D02*
D03*
X1596000Y983750D02*
D03*
X1624000Y978750D02*
D03*
X1596000Y973750D02*
D03*
X1624000Y968750D02*
D03*
X1596000Y963750D02*
D03*
X1624000Y958750D02*
D03*
X1596000Y953750D02*
D03*
X1624000Y948750D02*
D03*
X1624000Y838750D02*
D03*
X1596000Y843750D02*
D03*
X1624000Y848750D02*
D03*
X1596000Y853750D02*
D03*
X1624000Y858750D02*
D03*
X1596000Y863750D02*
D03*
X1624000Y868750D02*
D03*
X1596000Y873750D02*
D03*
X1624000Y878750D02*
D03*
X1596000Y883750D02*
D03*
X1624000Y888750D02*
D03*
X1596000Y893750D02*
D03*
X1624000Y898750D02*
D03*
X1596000Y903750D02*
D03*
X1624000Y908750D02*
D03*
X1596000Y913750D02*
D03*
X1624000Y918750D02*
D03*
X1596000Y923750D02*
D03*
X1624000Y928750D02*
D03*
X1596000Y933750D02*
D03*
X1624000Y938750D02*
D03*
X1624000Y988750D02*
D03*
X1596000Y993750D02*
D03*
X1624000Y998750D02*
D03*
X1596000Y1003750D02*
D03*
D134*
X1572000Y1027500D02*
D03*
X1572000Y1040200D02*
D03*
X1572000Y1052900D02*
D03*
X1572000Y1065600D02*
D03*
X1518000Y1027500D02*
D03*
X1518000Y1040200D02*
D03*
X1518000Y1052900D02*
D03*
X1518000Y1065600D02*
D03*
D135*
X1223450Y1131250D02*
D03*
X1231450Y1131250D02*
D03*
X1279450Y1131250D02*
D03*
X1287450Y1131250D02*
D03*
X1223450Y1131250D02*
D03*
X1231450Y1131250D02*
D03*
X1279450Y1131250D02*
D03*
X1287450Y1131250D02*
D03*
D136*
X1237950Y1131250D02*
D03*
X1242950Y1131250D02*
D03*
X1247950Y1131250D02*
D03*
X1252950Y1131250D02*
D03*
X1257950Y1131250D02*
D03*
X1262950Y1131250D02*
D03*
X1267950Y1131250D02*
D03*
X1272950Y1131250D02*
D03*
D137*
X572250Y186500D02*
D03*
X559250Y186500D02*
D03*
X572250Y196500D02*
D03*
X559250Y196500D02*
D03*
D138*
X954250Y446250D02*
D03*
X954250Y459250D02*
D03*
X965250Y459250D02*
D03*
X965250Y446250D02*
D03*
D139*
X985750Y453000D02*
D03*
X978250Y453000D02*
D03*
X978250Y441000D02*
D03*
D140*
X985750Y441400D02*
D03*
D141*
X983245Y723750D02*
D03*
X988495Y723750D02*
D03*
X1003375Y704000D02*
D03*
X1008625Y704000D02*
D03*
X988495Y706500D02*
D03*
X983245Y706500D02*
D03*
X983245Y712250D02*
D03*
X988495Y712250D02*
D03*
X988495Y718000D02*
D03*
X983245Y718000D02*
D03*
D142*
X545750Y741750D02*
D03*
X560750Y741750D02*
D03*
X560750Y771750D02*
D03*
X545750Y771750D02*
D03*
D143*
X452250Y628750D02*
D03*
X435250Y628750D02*
D03*
X435250Y613750D02*
D03*
X452250Y613750D02*
D03*
D144*
X280000Y1162500D02*
D03*
X240000Y407500D02*
D03*
D145*
X319000Y1118750D02*
D03*
X319000Y1113750D02*
D03*
X319000Y1108750D02*
D03*
X319000Y1103750D02*
D03*
X319000Y1098750D02*
D03*
X319000Y1093750D02*
D03*
X319000Y1088750D02*
D03*
X319000Y1083750D02*
D03*
X319000Y1078750D02*
D03*
X319000Y1073750D02*
D03*
X319000Y1068750D02*
D03*
X319000Y1063750D02*
D03*
X319000Y1058750D02*
D03*
X319000Y1053750D02*
D03*
X319000Y1048750D02*
D03*
X319000Y1043750D02*
D03*
X319000Y1038750D02*
D03*
X319000Y1033750D02*
D03*
X319000Y1028750D02*
D03*
X319000Y1023750D02*
D03*
X319000Y1018750D02*
D03*
X319000Y1013750D02*
D03*
X319000Y1008750D02*
D03*
X319000Y1003750D02*
D03*
X319000Y998750D02*
D03*
X319000Y993750D02*
D03*
X319000Y988750D02*
D03*
X319000Y983750D02*
D03*
X319000Y978750D02*
D03*
X319000Y973750D02*
D03*
X319000Y968750D02*
D03*
X319000Y963750D02*
D03*
X319000Y958750D02*
D03*
X319000Y953750D02*
D03*
X319000Y948750D02*
D03*
X319000Y943750D02*
D03*
X319000Y938750D02*
D03*
X319000Y933750D02*
D03*
X319000Y928750D02*
D03*
X319000Y923750D02*
D03*
X319000Y918750D02*
D03*
X319000Y913750D02*
D03*
X319000Y908750D02*
D03*
X319000Y903750D02*
D03*
X319000Y898750D02*
D03*
X319000Y893750D02*
D03*
X319000Y888750D02*
D03*
X319000Y883750D02*
D03*
X319000Y878750D02*
D03*
X319000Y873750D02*
D03*
X319000Y868750D02*
D03*
X319000Y863750D02*
D03*
X319000Y858750D02*
D03*
X319000Y853750D02*
D03*
X319000Y848750D02*
D03*
X319000Y843750D02*
D03*
X319000Y838750D02*
D03*
X319000Y833750D02*
D03*
X401000Y1116250D02*
D03*
X401000Y1111250D02*
D03*
X401000Y1106250D02*
D03*
X401000Y1101250D02*
D03*
X401000Y1096250D02*
D03*
X401000Y1091250D02*
D03*
X401000Y1086250D02*
D03*
X401000Y1081250D02*
D03*
X401000Y1076250D02*
D03*
X401000Y1071250D02*
D03*
X401000Y1066250D02*
D03*
X401000Y1061250D02*
D03*
X401000Y1056250D02*
D03*
X401000Y1051250D02*
D03*
X401000Y1046250D02*
D03*
X401000Y1041250D02*
D03*
X401000Y1036250D02*
D03*
X401000Y1031250D02*
D03*
X401000Y1026250D02*
D03*
X401000Y1021250D02*
D03*
X401000Y1016250D02*
D03*
X401000Y1011250D02*
D03*
X401000Y1006250D02*
D03*
X401000Y1001250D02*
D03*
X401000Y996250D02*
D03*
X401000Y991250D02*
D03*
X401000Y986250D02*
D03*
X401000Y981250D02*
D03*
X401000Y976250D02*
D03*
X401000Y971250D02*
D03*
X401000Y966250D02*
D03*
X401000Y961250D02*
D03*
X401000Y956250D02*
D03*
X401000Y951250D02*
D03*
X401000Y946250D02*
D03*
X401000Y941250D02*
D03*
X401000Y936250D02*
D03*
X401000Y931250D02*
D03*
X401000Y926250D02*
D03*
X401000Y921250D02*
D03*
X401000Y916250D02*
D03*
X401000Y911250D02*
D03*
X401000Y906250D02*
D03*
X401000Y901250D02*
D03*
X401000Y896250D02*
D03*
X401000Y891250D02*
D03*
X401000Y886250D02*
D03*
X401000Y881250D02*
D03*
X401000Y876250D02*
D03*
X401000Y871250D02*
D03*
X401000Y866250D02*
D03*
X401000Y861250D02*
D03*
X401000Y856250D02*
D03*
X401000Y851250D02*
D03*
X401000Y846250D02*
D03*
X401000Y841250D02*
D03*
X401000Y836250D02*
D03*
X319000Y458750D02*
D03*
X319000Y463750D02*
D03*
X319000Y468750D02*
D03*
X319000Y473750D02*
D03*
X319000Y478750D02*
D03*
X319000Y483750D02*
D03*
X319000Y488750D02*
D03*
X319000Y493750D02*
D03*
X319000Y498750D02*
D03*
X319000Y503750D02*
D03*
X319000Y508750D02*
D03*
X319000Y513750D02*
D03*
X319000Y518750D02*
D03*
X319000Y523750D02*
D03*
X319000Y528750D02*
D03*
X319000Y533750D02*
D03*
X319000Y538750D02*
D03*
X319000Y543750D02*
D03*
X319000Y548750D02*
D03*
X319000Y553750D02*
D03*
X319000Y558750D02*
D03*
X319000Y563750D02*
D03*
X319000Y568750D02*
D03*
X319000Y573750D02*
D03*
X319000Y578750D02*
D03*
X319000Y583750D02*
D03*
X319000Y588750D02*
D03*
X319000Y593750D02*
D03*
X319000Y598750D02*
D03*
X319000Y603750D02*
D03*
X319000Y608750D02*
D03*
X319000Y613750D02*
D03*
X319000Y618750D02*
D03*
X319000Y623750D02*
D03*
X319000Y628750D02*
D03*
X319000Y633750D02*
D03*
X319000Y638750D02*
D03*
X319000Y643750D02*
D03*
X319000Y648750D02*
D03*
X319000Y653750D02*
D03*
X319000Y658750D02*
D03*
X319000Y663750D02*
D03*
X319000Y668750D02*
D03*
X319000Y673750D02*
D03*
X319000Y678750D02*
D03*
X319000Y683750D02*
D03*
X319000Y688750D02*
D03*
X319000Y693750D02*
D03*
X319000Y698750D02*
D03*
X319000Y703750D02*
D03*
X319000Y708750D02*
D03*
X319000Y713750D02*
D03*
X319000Y718750D02*
D03*
X319000Y723750D02*
D03*
X319000Y728750D02*
D03*
X319000Y733750D02*
D03*
X319000Y738750D02*
D03*
X319000Y743750D02*
D03*
X319000Y748750D02*
D03*
X319000Y753750D02*
D03*
X319000Y758750D02*
D03*
X319000Y763750D02*
D03*
X319000Y768750D02*
D03*
X319000Y773750D02*
D03*
X319000Y778750D02*
D03*
X319000Y783750D02*
D03*
X319000Y788750D02*
D03*
X319000Y793750D02*
D03*
X319000Y798750D02*
D03*
X319000Y803750D02*
D03*
X319000Y808750D02*
D03*
X401000Y451250D02*
D03*
X401000Y456250D02*
D03*
X401000Y461250D02*
D03*
X401000Y466250D02*
D03*
X401000Y471250D02*
D03*
X401000Y476250D02*
D03*
X401000Y481250D02*
D03*
X401000Y486250D02*
D03*
X401000Y491250D02*
D03*
X401000Y496250D02*
D03*
X401000Y501250D02*
D03*
X401000Y506250D02*
D03*
X401000Y511250D02*
D03*
X401000Y516250D02*
D03*
X401000Y521250D02*
D03*
X401000Y526250D02*
D03*
X401000Y531250D02*
D03*
X401000Y536250D02*
D03*
X401000Y541250D02*
D03*
X401000Y546250D02*
D03*
X401000Y551250D02*
D03*
X401000Y556250D02*
D03*
X401000Y561250D02*
D03*
X401000Y566250D02*
D03*
X401000Y571250D02*
D03*
X401000Y576250D02*
D03*
X401000Y581250D02*
D03*
X401000Y586250D02*
D03*
X401000Y591250D02*
D03*
X401000Y596250D02*
D03*
X401000Y601250D02*
D03*
X401000Y606250D02*
D03*
X401000Y611250D02*
D03*
X401000Y616250D02*
D03*
X401000Y621250D02*
D03*
X401000Y626250D02*
D03*
X401000Y631250D02*
D03*
X401000Y636250D02*
D03*
X401000Y641250D02*
D03*
X401000Y646250D02*
D03*
X401000Y651250D02*
D03*
X401000Y656250D02*
D03*
X401000Y661250D02*
D03*
X401000Y666250D02*
D03*
X401000Y671250D02*
D03*
X401000Y676250D02*
D03*
X401000Y681250D02*
D03*
X401000Y686250D02*
D03*
X401000Y691250D02*
D03*
X401000Y696250D02*
D03*
X401000Y701250D02*
D03*
X401000Y706250D02*
D03*
X401000Y711250D02*
D03*
X401000Y716250D02*
D03*
X401000Y721250D02*
D03*
X401000Y726250D02*
D03*
X401000Y731250D02*
D03*
X401000Y736250D02*
D03*
X401000Y741250D02*
D03*
X401000Y746250D02*
D03*
X401000Y751250D02*
D03*
X401000Y756250D02*
D03*
X401000Y761250D02*
D03*
X401000Y766250D02*
D03*
X401000Y771250D02*
D03*
X401000Y776250D02*
D03*
X401000Y781250D02*
D03*
X401000Y786250D02*
D03*
X401000Y791250D02*
D03*
X401000Y796250D02*
D03*
X401000Y801250D02*
D03*
X401000Y806250D02*
D03*
X401000Y831250D02*
D03*
X319000Y453750D02*
D03*
D146*
X168750Y1184500D02*
D03*
X152750Y1184500D02*
D03*
D147*
X890250Y505875D02*
D03*
X890250Y511125D02*
D03*
D148*
X1635000Y15500D02*
D03*
X15000Y1185000D02*
D03*
D149*
X444050Y213400D02*
D03*
X444050Y218400D02*
D03*
X444050Y223400D02*
D03*
X444050Y228400D02*
D03*
X444050Y233400D02*
D03*
X444050Y238400D02*
D03*
X444050Y243400D02*
D03*
X444050Y248400D02*
D03*
X444050Y253400D02*
D03*
X444050Y258400D02*
D03*
X444050Y188400D02*
D03*
X444050Y183400D02*
D03*
X444050Y178400D02*
D03*
X444050Y168400D02*
D03*
X444050Y163400D02*
D03*
X444050Y158400D02*
D03*
X444050Y148400D02*
D03*
X444050Y143400D02*
D03*
X444050Y138400D02*
D03*
X444050Y128400D02*
D03*
X444050Y123400D02*
D03*
X444050Y118400D02*
D03*
X444050Y108400D02*
D03*
X444050Y103400D02*
D03*
X444050Y98400D02*
D03*
X444050Y88400D02*
D03*
X444050Y83400D02*
D03*
X444050Y153400D02*
D03*
X444050Y133400D02*
D03*
X444050Y173400D02*
D03*
X444050Y113400D02*
D03*
X444050Y93400D02*
D03*
X519550Y90900D02*
D03*
X519550Y110900D02*
D03*
X519550Y130900D02*
D03*
X519550Y150900D02*
D03*
X519550Y170900D02*
D03*
X519550Y175900D02*
D03*
X519550Y215900D02*
D03*
X519550Y235900D02*
D03*
X519550Y255900D02*
D03*
X519550Y80900D02*
D03*
X519550Y85900D02*
D03*
X519550Y95900D02*
D03*
X519550Y100900D02*
D03*
X519550Y105900D02*
D03*
X519550Y115900D02*
D03*
X519550Y120900D02*
D03*
X519550Y125900D02*
D03*
X519550Y135900D02*
D03*
X519550Y140900D02*
D03*
X519550Y145900D02*
D03*
X519550Y155900D02*
D03*
X519550Y160900D02*
D03*
X519550Y165900D02*
D03*
X519550Y180900D02*
D03*
X519550Y185900D02*
D03*
X519550Y210900D02*
D03*
X519550Y220900D02*
D03*
X519550Y225900D02*
D03*
X519550Y230900D02*
D03*
X519550Y240900D02*
D03*
X519550Y245900D02*
D03*
X519550Y250900D02*
D03*
X519550Y260900D02*
D03*
X519550Y265900D02*
D03*
X444050Y263400D02*
D03*
D150*
X511800Y69900D02*
D03*
X511800Y276900D02*
D03*
D151*
X184300Y172800D02*
D03*
X206000Y282800D02*
D03*
X206000Y62800D02*
D03*
D152*
X1571000Y1097000D02*
D03*
X1536000Y1097000D02*
D03*
X1533000Y1170000D02*
D03*
X1632000Y1170000D02*
D03*
X1622000Y1097000D02*
D03*
D153*
X1569999Y1160001D02*
D03*
D154*
X1242700Y398100D02*
D03*
X1217300Y398100D02*
D03*
X1242700Y347300D02*
D03*
X1217300Y347300D02*
D03*
X1242700Y321900D02*
D03*
X1217300Y372700D02*
D03*
X1242700Y372700D02*
D03*
X1038900Y42700D02*
D03*
X1038900Y17300D02*
D03*
X1013500Y42700D02*
D03*
X1013500Y17300D02*
D03*
X988100Y42700D02*
D03*
X988100Y17300D02*
D03*
X962700Y42700D02*
D03*
X962700Y17300D02*
D03*
X937300Y17300D02*
D03*
X937300Y42700D02*
D03*
X911900Y17300D02*
D03*
X911900Y42700D02*
D03*
X734100Y42700D02*
D03*
X734100Y17300D02*
D03*
X708700Y42700D02*
D03*
X759500Y17300D02*
D03*
X759500Y42700D02*
D03*
X835700Y42700D02*
D03*
X835700Y17300D02*
D03*
X810300Y42700D02*
D03*
X810300Y17300D02*
D03*
X784900Y42700D02*
D03*
X784900Y17300D02*
D03*
X861100Y17300D02*
D03*
X886500Y42700D02*
D03*
X886500Y17300D02*
D03*
X861100Y42700D02*
D03*
X1064300Y17300D02*
D03*
X1064300Y42700D02*
D03*
X1089700Y17300D02*
D03*
X1089700Y42700D02*
D03*
X1115100Y17300D02*
D03*
X1115100Y42700D02*
D03*
X1140500Y17300D02*
D03*
X1140500Y42700D02*
D03*
X1165900Y42700D02*
D03*
X1191300Y42700D02*
D03*
X1165900Y17300D02*
D03*
X1191300Y17300D02*
D03*
X699750Y230750D02*
D03*
X674350Y230750D02*
D03*
X562700Y398100D02*
D03*
X537300Y398100D02*
D03*
X562700Y347300D02*
D03*
X537300Y347300D02*
D03*
X562700Y321900D02*
D03*
X537300Y372700D02*
D03*
X562700Y372700D02*
D03*
X1612950Y709850D02*
D03*
X1592650Y709850D02*
D03*
X1612950Y574150D02*
D03*
X1592650Y574150D02*
D03*
X778400Y1003750D02*
D03*
X803800Y1003750D02*
D03*
X1167000Y276650D02*
D03*
X1167000Y251250D02*
D03*
X1141600Y276650D02*
D03*
X1141600Y251250D02*
D03*
X1192400Y251250D02*
D03*
X1192400Y276650D02*
D03*
X1243200Y251250D02*
D03*
X1217800Y276650D02*
D03*
X1217800Y251250D02*
D03*
X1293250Y314250D02*
D03*
X638650Y318600D02*
D03*
X613250Y318600D02*
D03*
X638650Y344000D02*
D03*
X613250Y293200D02*
D03*
X638650Y293200D02*
D03*
X500500Y347350D02*
D03*
X500500Y372750D02*
D03*
X1293300Y283250D02*
D03*
X1318700Y372750D02*
D03*
X1293300Y372750D02*
D03*
X1318700Y398150D02*
D03*
X1293300Y347350D02*
D03*
X1318700Y347350D02*
D03*
X1299800Y1103000D02*
D03*
X612700Y837300D02*
D03*
X612700Y862700D02*
D03*
X561900Y837300D02*
D03*
X587300Y862700D02*
D03*
X587300Y837300D02*
D03*
X638100Y862700D02*
D03*
X638100Y837300D02*
D03*
X697500Y670750D02*
D03*
X747300Y833500D02*
D03*
X803800Y1035750D02*
D03*
X778400Y1035750D02*
D03*
X477750Y628200D02*
D03*
X49000Y276300D02*
D03*
X49000Y301700D02*
D03*
X49000Y327100D02*
D03*
X49000Y250900D02*
D03*
X49000Y225500D02*
D03*
X1192700Y888100D02*
D03*
X1167300Y888100D02*
D03*
X1192700Y837300D02*
D03*
X1167300Y837300D02*
D03*
X1192700Y811900D02*
D03*
X1167300Y862700D02*
D03*
X1192700Y862700D02*
D03*
X1073250Y251250D02*
D03*
X1073250Y276650D02*
D03*
X1098650Y251250D02*
D03*
X1047850Y276650D02*
D03*
X1047850Y251250D02*
D03*
X997050Y251250D02*
D03*
X997050Y276650D02*
D03*
X1022450Y251250D02*
D03*
X1022450Y276650D02*
D03*
X956750Y276650D02*
D03*
D155*
X1217300Y321900D02*
D03*
X537300Y321900D02*
D03*
X1167300Y811900D02*
D03*
D156*
X708700Y17300D02*
D03*
X725150Y230750D02*
D03*
X753000Y1003750D02*
D03*
X1243200Y276650D02*
D03*
X1318650Y314250D02*
D03*
X1318700Y283250D02*
D03*
X1325200Y1103000D02*
D03*
X772700Y833500D02*
D03*
X753000Y1035750D02*
D03*
X1098650Y276650D02*
D03*
D157*
X1599750Y457500D02*
D03*
X1549750Y492500D02*
D03*
X1599750Y527500D02*
D03*
X1347750Y527500D02*
D03*
X1297750Y492500D02*
D03*
X1347750Y457500D02*
D03*
X1473750Y527500D02*
D03*
X1423750Y492500D02*
D03*
X1473750Y457500D02*
D03*
D158*
X1478350Y584850D02*
D03*
X1478350Y635650D02*
D03*
X1478350Y686450D02*
D03*
X1478350Y661050D02*
D03*
X1503750Y622950D02*
D03*
X1478350Y610250D02*
D03*
X1503750Y597550D02*
D03*
X1503750Y648350D02*
D03*
X1503750Y673750D02*
D03*
D159*
X1503750Y699150D02*
D03*
D160*
X1567250Y699150D02*
D03*
X1567250Y584850D02*
D03*
D161*
X1536750Y564250D02*
D03*
X1536750Y719750D02*
D03*
D162*
X1043500Y1076350D02*
D03*
X1113500Y1076350D02*
D03*
X807000Y1076350D02*
D03*
X877000Y1076350D02*
D03*
D163*
X1068500Y1076350D02*
D03*
X1088500Y1076350D02*
D03*
X832000Y1076350D02*
D03*
X852000Y1076350D02*
D03*
D164*
X1012800Y1102000D02*
D03*
X1144200Y1102000D02*
D03*
X776300Y1102000D02*
D03*
X907700Y1102000D02*
D03*
D165*
X1355700Y72700D02*
D03*
X1381100Y47300D02*
D03*
X1381100Y72700D02*
D03*
X1558900Y47300D02*
D03*
X1558900Y72700D02*
D03*
X1533500Y72700D02*
D03*
X1533500Y47300D02*
D03*
X1508100Y47300D02*
D03*
X1508100Y72700D02*
D03*
X1431900Y47300D02*
D03*
X1431900Y72700D02*
D03*
X1406500Y47300D02*
D03*
X1406500Y72700D02*
D03*
X1482700Y47300D02*
D03*
X1482700Y72700D02*
D03*
X1457300Y47300D02*
D03*
X1457300Y72700D02*
D03*
X1584300Y72700D02*
D03*
X1584300Y47300D02*
D03*
D166*
X1355700Y47300D02*
D03*
D167*
X613250Y344000D02*
D03*
X500500Y398150D02*
D03*
X1293300Y398150D02*
D03*
X697500Y645350D02*
D03*
X477750Y602800D02*
D03*
X49000Y352500D02*
D03*
X956750Y251250D02*
D03*
D168*
X233000Y746750D02*
D03*
X360000Y441000D02*
D03*
X466800Y73400D02*
D03*
D169*
X233000Y536750D02*
D03*
X360000Y1129000D02*
D03*
X466800Y273400D02*
D03*
D170*
X48750Y909500D02*
D03*
X48750Y954000D02*
D03*
D171*
X18770Y973500D02*
D03*
X18770Y890000D02*
D03*
D172*
X1358460Y1119500D02*
D03*
X1490540Y1119500D02*
D03*
D173*
X1459000Y267300D02*
D03*
X1459000Y241900D02*
D03*
X1459000Y292700D02*
D03*
X602700Y1009000D02*
D03*
X628100Y1009000D02*
D03*
X577300Y1009000D02*
D03*
D174*
X1459000Y318100D02*
D03*
D175*
X1584900Y165700D02*
D03*
X1508700Y165700D02*
D03*
X1534100Y165700D02*
D03*
X1432500Y165700D02*
D03*
X1457900Y165700D02*
D03*
X1483300Y165700D02*
D03*
X1559500Y165700D02*
D03*
X1407100Y165700D02*
D03*
X1407100Y394300D02*
D03*
X1559500Y394300D02*
D03*
X1483300Y394300D02*
D03*
X1457900Y394300D02*
D03*
X1432500Y394300D02*
D03*
X1534100Y394300D02*
D03*
X1508700Y394300D02*
D03*
X704300Y1134900D02*
D03*
X704300Y1058700D02*
D03*
X704300Y1084100D02*
D03*
X704300Y982500D02*
D03*
X704300Y1007900D02*
D03*
X704300Y1033300D02*
D03*
X704300Y1109500D02*
D03*
X704300Y957100D02*
D03*
X475700Y957100D02*
D03*
X475700Y1109500D02*
D03*
X475700Y1033300D02*
D03*
X475700Y1007900D02*
D03*
X475700Y982500D02*
D03*
X475700Y1084100D02*
D03*
X475700Y1058700D02*
D03*
D176*
X1584900Y394300D02*
D03*
D177*
X1199250Y1144000D02*
D03*
X1311650Y1144000D02*
D03*
D178*
X1199250Y1184000D02*
D03*
X1311650Y1184000D02*
D03*
D179*
X561900Y862700D02*
D03*
D180*
X475700Y1134900D02*
D03*
D181*
X551900Y1009000D02*
D03*
D182*
X142500Y256400D02*
D03*
D183*
X1265000Y45000D02*
D03*
X70000Y1165000D02*
D03*
D184*
X60000Y457000D02*
D03*
X60000Y1113000D02*
D03*
D185*
X534550Y527750D02*
D03*
X534550Y506750D02*
D03*
X545250Y506750D02*
D03*
X555950Y506750D02*
D03*
X555950Y517250D02*
D03*
X534550Y517250D02*
D03*
X545250Y517250D02*
D03*
X545500Y527750D02*
D03*
X555950Y527750D02*
D03*
D186*
X1349999Y863000D02*
D03*
X1349999Y875000D02*
D03*
X1349999Y887000D02*
D03*
X1325999Y887000D02*
D03*
X1325999Y875000D02*
D03*
X1325999Y863000D02*
D03*
X1337999Y887000D02*
D03*
X1338000Y863000D02*
D03*
X1338000Y875002D02*
D03*
M02*
